<?xml version="1.0" encoding="UTF-8"?>
<svg version="1.1" xmlns="http://www.w3.org/2000/svg" width="1024" height="980">
<path d="M0 0 C1.67312988 0.44410238 3.36328172 0.82298123 5.0546875 1.19140625 C11.43807742 2.59434909 17.51786203 4.7065949 23.6484375 6.94140625 C24.44121094 7.22991455 25.23398437 7.51842285 26.05078125 7.81567383 C31.18559394 9.73531538 36.03264292 11.98790138 40.8984375 14.50390625 C42.15996947 15.12672277 43.42298795 15.7465377 44.6875 16.36328125 C53.62607078 20.75822263 62.31672049 25.44461949 70.8984375 30.50390625 C71.7028125 30.97570313 72.5071875 31.4475 73.3359375 31.93359375 C76.68080137 33.98334264 79.94773681 36.13957468 83.2109375 38.31640625 C83.8802832 38.76290527 84.54962891 39.2094043 85.23925781 39.66943359 C89.2177978 42.33824983 93.12493531 45.06203509 96.9140625 47.99609375 C100.45859761 50.68938224 104.12861631 53.21419465 107.7734375 55.76953125 C108.4746875 56.341875 109.1759375 56.91421875 109.8984375 57.50390625 C109.8984375 58.16390625 109.8984375 58.82390625 109.8984375 59.50390625 C110.7028125 59.59671875 110.7028125 59.59671875 111.5234375 59.69140625 C114.9608511 60.86736353 117.18191649 63.13417516 119.8984375 65.50390625 C120.8884375 66.16390625 121.8784375 66.82390625 122.8984375 67.50390625 C122.8984375 68.16390625 122.8984375 68.82390625 122.8984375 69.50390625 C123.5171875 69.81328125 124.1359375 70.12265625 124.7734375 70.44140625 C126.1484375 71.12890625 127.5234375 71.81640625 128.8984375 72.50390625 C128.8984375 73.16390625 128.8984375 73.82390625 128.8984375 74.50390625 C129.42953125 74.71789062 129.960625 74.931875 130.5078125 75.15234375 C133.8088197 77.01859946 136.40891964 79.54182705 139.1484375 82.12890625 C139.72037842 82.66290039 140.29231934 83.19689453 140.8815918 83.74707031 C145.31522489 87.90504681 149.65821538 92.14839108 153.8984375 96.50390625 C154.8265625 95.69953125 155.7546875 94.89515625 156.7109375 94.06640625 C160.85276606 90.50781477 165.09682629 87.07946267 169.34765625 83.65234375 C171.66571476 81.69992081 173.77709089 79.66461806 175.8984375 77.50390625 C177.0928523 76.40524623 178.30044225 75.32065982 179.5234375 74.25390625 C180.11382813 73.733125 180.70421875 73.21234375 181.3125 72.67578125 C182.8984375 71.50390625 182.8984375 71.50390625 184.8984375 71.50390625 C185.23875 70.57578125 185.23875 70.57578125 185.5859375 69.62890625 C187.28260193 66.88192575 188.95095461 66.63755352 191.8984375 65.50390625 C192.2284375 64.51390625 192.5584375 63.52390625 192.8984375 62.50390625 C194.89453125 60.6796875 194.89453125 60.6796875 197.3359375 58.81640625 C198.54056641 57.88248047 198.54056641 57.88248047 199.76953125 56.9296875 C201.8984375 55.50390625 201.8984375 55.50390625 203.8984375 55.50390625 C203.8984375 54.84390625 203.8984375 54.18390625 203.8984375 53.50390625 C205.30606458 52.5092955 206.7220216 51.52436522 208.17773438 50.6015625 C210.91812045 48.85343881 213.51691597 46.91080591 216.1484375 45.00390625 C221.76905107 40.96574342 227.46210701 37.04472823 233.2109375 33.19140625 C233.93893555 32.70027344 234.66693359 32.20914063 235.41699219 31.703125 C242.87640192 26.7324364 250.67842641 22.52815619 258.7109375 18.56640625 C260.11081828 17.87398331 261.51055679 17.18127265 262.91015625 16.48828125 C263.58868652 16.15248047 264.2672168 15.81667969 264.96630859 15.47070312 C266.68841157 14.60899883 268.39790969 13.7222082 270.10546875 12.83203125 C282.10745989 6.5980653 294.76570315 2.62155709 307.8984375 -0.49609375 C308.90342285 -0.74979736 309.9084082 -1.00350098 310.94384766 -1.26489258 C319.79990989 -3.36494457 328.18663714 -4.00410403 337.2734375 -3.93359375 C338.289254 -3.92953018 338.289254 -3.92953018 339.32559204 -3.92538452 C349.7180719 -3.86241837 359.10279111 -3.13244616 368.8984375 0.50390625 C369.97480469 0.88933594 371.05117188 1.27476562 372.16015625 1.671875 C390.30157638 8.70537415 407.42279577 22.69627557 415.8984375 40.50390625 C416.54070072 41.76224527 417.18674967 43.01865693 417.8359375 44.2734375 C424.52590651 57.33740239 424.52590651 57.33740239 426.13378906 62.99365234 C426.71016044 64.88581405 427.35161443 66.7583283 428.02368164 68.61865234 C431.18983285 77.48002557 433.10846995 86.07550661 434.35693359 95.39282227 C434.64903407 97.57085457 434.96140691 99.7452314 435.27734375 101.91992188 C439.00546567 128.08586592 438.62562346 154.25844682 435.8984375 180.50390625 C435.76953125 181.77540527 435.640625 183.0469043 435.5078125 184.35693359 C433.39063667 204.9495205 430.70832184 225.64280738 424.71875 245.52734375 C423.72131367 248.6320245 423.72131367 248.6320245 423.8984375 252.50390625 C426.90596794 253.8621458 429.80422251 254.73159552 433.0234375 255.37890625 C437.52148847 256.32898962 441.68088015 257.82553172 445.9765625 259.4453125 C448.92638777 260.51403262 451.89006591 261.42687506 454.8984375 262.31640625 C468.84429071 266.53991286 482.42017308 271.99007081 495.8984375 277.50390625 C496.9915625 277.94734375 498.0846875 278.39078125 499.2109375 278.84765625 C504.18806246 280.88827748 509.03966506 283.03773913 513.83911133 285.46435547 C515.78186889 286.44506225 517.73249433 287.40727458 519.6875 288.36328125 C528.62893513 292.7584 537.32352137 297.4275559 545.8984375 302.50390625 C546.51509277 302.86581055 547.13174805 303.22771484 547.76708984 303.60058594 C549.60815743 304.68423727 551.44190451 305.77923119 553.2734375 306.87890625 C554.35367188 307.52601563 555.43390625 308.173125 556.546875 308.83984375 C557.32289063 309.38898438 558.09890625 309.938125 558.8984375 310.50390625 C558.8984375 311.16390625 558.8984375 311.82390625 558.8984375 312.50390625 C559.6409375 312.58640625 560.3834375 312.66890625 561.1484375 312.75390625 C564.4739202 313.66085608 565.56299937 315.02250324 567.8984375 317.50390625 C568.64480469 317.94863281 569.39117188 318.39335937 570.16015625 318.8515625 C573.23068949 320.70439497 575.92837999 322.80534546 578.7109375 325.06640625 C580.17466797 326.24396484 580.17466797 326.24396484 581.66796875 327.4453125 C582.77205078 328.46431641 582.77205078 328.46431641 583.8984375 329.50390625 C583.8984375 330.16390625 583.8984375 330.82390625 583.8984375 331.50390625 C584.44242188 331.725625 584.98640625 331.94734375 585.546875 332.17578125 C588.65113615 333.92901844 591.02598334 336.24839839 593.5234375 338.75390625 C594.04760254 339.27968262 594.57176758 339.80545898 595.11181641 340.34716797 C600.80684263 346.21784967 605.39083336 352.70210932 609.8984375 359.50390625 C610.76082031 360.72980469 610.76082031 360.72980469 611.640625 361.98046875 C623.11860119 379.28664011 625.21434984 401.61475708 621.265625 421.72705078 C618.87120292 430.81950582 615.0780874 438.69561859 609.8984375 446.50390625 C609.31320312 447.39078125 608.72796875 448.27765625 608.125 449.19140625 C604.85222399 453.91697552 601.44284194 458.35825704 597.58984375 462.625 C595.93441262 464.46394312 594.3536909 466.35032734 592.7734375 468.25390625 C590.38480392 471.05437321 587.82182125 473.25514952 584.8984375 475.50390625 C584.0940625 476.30828125 583.2896875 477.11265625 582.4609375 477.94140625 C579.71674209 480.68560166 576.96153281 483.12149878 573.8984375 485.50390625 C573.2384375 485.50390625 572.5784375 485.50390625 571.8984375 485.50390625 C571.6921875 486.08140625 571.4859375 486.65890625 571.2734375 487.25390625 C569.38870771 490.33800954 566.92809717 491.54882338 563.8984375 493.50390625 C561.87575124 494.91792608 559.85498812 496.3347 557.8359375 497.75390625 C552.28871789 501.62304971 546.6217238 505.21780494 540.8359375 508.72265625 C538.3966854 510.20177721 535.98770329 511.71527504 533.5859375 513.25390625 C529.8114937 515.61391045 525.90024139 517.56224154 521.8984375 519.50390625 C519.68900055 520.60586293 517.48078453 521.71026918 515.2734375 522.81640625 C514.67249268 523.11587158 514.07154785 523.41533691 513.45239258 523.72387695 C510.42829166 525.2313303 507.4141718 526.75336003 504.41015625 528.30078125 C497.34447409 531.91764233 490.21495331 535.09951791 482.81640625 537.96875 C479.36925349 539.30596999 475.96161586 540.72618613 472.55419922 542.16113281 C461.63712701 546.74556132 450.55210003 550.49115009 439.18359375 553.8125 C436.02651286 554.76771935 432.91772099 555.85279866 429.80859375 556.953125 C427.8984375 557.50390625 427.8984375 557.50390625 424.8984375 557.50390625 C425.14078125 558.24769531 425.383125 558.99148438 425.6328125 559.7578125 C431.19966145 577.89289349 433.27825651 596.73592844 435.5859375 615.50390625 C435.74882767 616.81955063 435.74882767 616.81955063 435.91500854 618.16177368 C441.36253181 662.46011535 444.93725301 721.65668388 420.8984375 761.50390625 C420.19673856 763.16246739 419.49547122 764.82123811 418.8046875 766.484375 C415.66948466 773.47101236 412.05558058 779.84362726 406.8984375 785.50390625 C406.38667969 786.1278125 405.87492188 786.75171875 405.34765625 787.39453125 C401.04835983 792.57345384 396.34795469 796.57691175 390.8984375 800.50390625 C390.23457031 801.01824219 389.57070313 801.53257812 388.88671875 802.0625 C370.6080153 815.46688253 347.53681492 815.52173057 325.8984375 813.50390625 C324.18914062 813.36855469 324.18914062 813.36855469 322.4453125 813.23046875 C314.57247997 812.37472608 307.12160398 810.30635624 299.5234375 808.12890625 C297.98876831 807.69070557 297.98876831 807.69070557 296.4230957 807.24365234 C290.54411698 805.49471747 285.31397613 803.37670891 279.8984375 800.50390625 C278.9084375 800.17390625 277.9184375 799.84390625 276.8984375 799.50390625 C273.70063925 798.4379735 270.87253441 797.03591293 267.8828125 795.49609375 C266.19468729 794.65203115 264.4561577 793.91002633 262.7109375 793.19140625 C256.88942078 790.75573719 251.41869752 787.5442525 245.8984375 784.50390625 C245.21265625 784.13007812 244.526875 783.75625 243.8203125 783.37109375 C239.85311127 781.16503325 236.10700518 778.67866805 232.3515625 776.13671875 C229.73185204 774.39302612 227.06949692 772.73022259 224.3984375 771.06640625 C220.13747135 768.36779436 216.15955152 765.4708789 212.21875 762.328125 C206.62403827 757.92958901 200.79543456 753.82680998 194.9609375 749.75390625 C192.32488051 747.81721132 190.16047024 745.84672587 187.8984375 743.50390625 C186.9084375 742.84390625 185.9184375 742.18390625 184.8984375 741.50390625 C184.8984375 740.84390625 184.8984375 740.18390625 184.8984375 739.50390625 C184.30933594 739.23320313 183.72023438 738.9625 183.11328125 738.68359375 C180.91369622 737.51203347 179.31305387 736.28714852 177.4609375 734.62890625 C176.77644531 734.01917969 176.09195312 733.40945313 175.38671875 732.78125 C173.45577022 731.01399256 171.53866005 729.23526016 169.62890625 727.4453125 C169.05519287 726.9095459 168.48147949 726.3737793 167.89038086 725.82177734 C166.74503147 724.7497881 165.60378013 723.67340048 164.46704102 722.59228516 C161.74112025 720.03732663 159.28141633 718.06755582 155.8984375 716.50390625 C155.45564453 716.92164307 155.01285156 717.33937988 154.55664062 717.76977539 C152.50528833 719.70345776 150.45187433 721.63493774 148.3984375 723.56640625 C147.70234375 724.22318359 147.00625 724.87996094 146.2890625 725.55664062 C140.23085054 731.25023798 134.04929681 736.7937821 127.62890625 742.078125 C126.27044035 743.19740278 124.9206542 744.32721622 123.57421875 745.4609375 C117.29239246 750.69732117 110.80523226 755.51388005 104.125 760.21875 C101.57582386 762.02415925 99.0687994 763.85961121 96.5859375 765.75390625 C90.93825224 770.02587331 85.07023506 773.94784948 78.87890625 777.390625 C76.36169049 778.80562794 73.88390515 780.2838633 71.3984375 781.75390625 C51.51532456 793.35446775 31.01085023 802.11527738 8.8984375 808.50390625 C8.23312012 808.69758789 7.56780273 808.89126953 6.88232422 809.09082031 C-2.79107895 811.85598659 -11.99644609 813.27172076 -22.1015625 813.50390625 C-22.81070801 813.52437012 -23.51985352 813.54483398 -24.25048828 813.56591797 C-49.86720633 814.24461797 -71.95575456 810.06198569 -91.3828125 792.1875 C-114.29357069 769.74537096 -124.31251343 735.59096912 -126.68505859 704.36645508 C-126.85087872 702.20033847 -127.03914641 700.03704443 -127.23046875 697.87304688 C-128.76103655 679.71524283 -128.1953742 661.65922687 -126.9140625 643.50390625 C-126.81810791 642.11090302 -126.81810791 642.11090302 -126.72021484 640.6897583 C-125.661123 625.6418284 -123.74591624 611.07248671 -120.66845703 596.29394531 C-119.99770336 592.99275111 -119.43376408 589.68104489 -118.88598633 586.35766602 C-117.44276125 577.60589229 -115.37267924 569.06959019 -113.1015625 560.50390625 C-114.3184375 560.44203125 -115.5353125 560.38015625 -116.7890625 560.31640625 C-122.15056688 559.729074 -126.73221034 557.84820643 -131.703125 555.83203125 C-135.01372585 554.53823322 -138.32235437 553.46024289 -141.7265625 552.44140625 C-150.59192913 549.77753406 -159.04124867 546.62101283 -167.43359375 542.71484375 C-169.8829501 541.60313004 -172.34346499 540.59898033 -174.8515625 539.62890625 C-196.24882332 531.20585755 -217.55737342 520.17618343 -236.546875 507.23828125 C-238.61434018 505.83468104 -240.69246872 504.45342128 -242.78125 503.08203125 C-243.44084717 502.64737549 -244.10044434 502.21271973 -244.7800293 501.76489258 C-246.08456802 500.90550451 -247.39063688 500.04843304 -248.69848633 499.1940918 C-252.73434065 496.52426804 -256.42076271 493.64514033 -260.1015625 490.50390625 C-261.2771875 489.66859375 -261.2771875 489.66859375 -262.4765625 488.81640625 C-263.0128125 488.38328125 -263.5490625 487.95015625 -264.1015625 487.50390625 C-264.1015625 486.84390625 -264.1015625 486.18390625 -264.1015625 485.50390625 C-264.9059375 485.23578125 -265.7103125 484.96765625 -266.5390625 484.69140625 C-267.3846875 484.29953125 -268.2303125 483.90765625 -269.1015625 483.50390625 C-269.5965625 482.01890625 -269.5965625 482.01890625 -270.1015625 480.50390625 C-270.65328125 480.23578125 -271.205 479.96765625 -271.7734375 479.69140625 C-275.2338969 477.92633971 -277.64258039 475.25177327 -280.3515625 472.50390625 C-280.90585937 471.95734375 -281.46015625 471.41078125 -282.03125 470.84765625 C-286.1015625 466.75729295 -286.1015625 466.75729295 -286.1015625 464.50390625 C-287.0915625 464.17390625 -288.0815625 463.84390625 -289.1015625 463.50390625 C-289.4109375 462.69953125 -289.7203125 461.89515625 -290.0390625 461.06640625 C-291.33206561 457.94798699 -292.18238891 457.91926314 -295.1015625 456.50390625 C-296.14885619 454.86654444 -297.13651506 453.19105213 -298.1015625 451.50390625 C-298.86659935 450.27535009 -299.63510536 449.04895038 -300.40625 447.82421875 C-306.07781437 438.63714031 -310.24993941 429.9421731 -313.1015625 419.50390625 C-313.27896973 418.87838867 -313.45637695 418.25287109 -313.63916016 417.60839844 C-316.30059367 405.49564401 -314.67907296 391.86116588 -310.1015625 380.50390625 C-309.77800781 379.53195312 -309.45445312 378.56 -309.12109375 377.55859375 C-307.14057631 371.62512517 -304.59301813 366.67079193 -301.1015625 361.50390625 C-300.5446875 360.53453125 -299.9878125 359.56515625 -299.4140625 358.56640625 C-298.1015625 356.50390625 -298.1015625 356.50390625 -296.1015625 355.50390625 C-295.66585937 354.77171875 -295.23015625 354.03953125 -294.78125 353.28515625 C-292.89106617 350.15536348 -290.7068311 347.68772273 -288.2265625 345.00390625 C-287.38351562 344.08609375 -286.54046875 343.16828125 -285.671875 342.22265625 C-283.19335108 339.60099569 -280.66321822 337.04410757 -278.1015625 334.50390625 C-276.895 333.26640625 -276.895 333.26640625 -275.6640625 332.00390625 C-273.43053033 329.82485047 -271.13722205 327.80528764 -268.71484375 325.83984375 C-267.54460912 324.87078747 -266.39899812 323.87174811 -265.26953125 322.85546875 C-264.65722656 322.30632812 -264.04492188 321.7571875 -263.4140625 321.19140625 C-262.85332031 320.67964844 -262.29257812 320.16789062 -261.71484375 319.640625 C-260.1015625 318.50390625 -260.1015625 318.50390625 -257.1015625 318.50390625 C-256.7715625 317.51390625 -256.4415625 316.52390625 -256.1015625 315.50390625 C-253.6953125 313.671875 -253.6953125 313.671875 -250.6015625 311.69140625 C-248.961875 310.63179688 -248.961875 310.63179688 -247.2890625 309.55078125 C-245.71125 308.53757812 -245.71125 308.53757812 -244.1015625 307.50390625 C-242.59952269 306.48607664 -241.09928219 305.46558222 -239.6015625 304.44140625 C-219.01995557 290.7327186 -196.06063937 279.59015486 -173.1015625 270.50390625 C-172.19470703 270.14135742 -171.28785156 269.77880859 -170.35351562 269.40527344 C-149.38673015 261.02586475 -149.38673015 261.02586475 -139.625 258.2578125 C-137.04235512 257.48621736 -134.60162625 256.50719448 -132.1015625 255.50390625 C-130.19385835 255.01889672 -128.28556481 254.53569457 -126.37109375 254.078125 C-122.23947659 253.03277608 -118.17446324 251.75582246 -114.1015625 250.50390625 C-114.36710938 249.49972656 -114.63265625 248.49554688 -114.90625 247.4609375 C-115.26335296 246.0795129 -115.6201044 244.69799739 -115.9765625 243.31640625 C-116.15058594 242.66220703 -116.32460937 242.00800781 -116.50390625 241.33398438 C-117.88866717 235.92315928 -118.76105223 230.49216614 -119.57470703 224.96899414 C-120.10269341 221.49646834 -120.70001552 218.04308837 -121.3203125 214.5859375 C-124.22117063 198.25352516 -126.28275762 182.09007631 -127.1015625 165.50390625 C-127.16327637 164.28638672 -127.22499023 163.06886719 -127.28857422 161.81445312 C-128.06600035 145.65553755 -128.38298925 129.63823394 -127.1015625 113.50390625 C-127.02454102 112.46733887 -126.94751953 111.43077148 -126.86816406 110.36279297 C-125.39285055 91.5483703 -123.01553439 71.0866852 -113.99633789 54.19555664 C-112.41910545 51.21366207 -111.31519772 48.05000153 -110.12890625 44.8984375 C-102.26116219 26.56031161 -85.45564854 10.01521767 -67.1015625 2.50390625 C-45.18501371 -5.03417316 -22.48049536 -6.06549214 0 0 Z M-64.453125 49.453125 C-76.94060244 64.98849385 -80.70115182 83.31757307 -84.1015625 102.50390625 C-84.23578613 103.2309375 -84.37000977 103.95796875 -84.50830078 104.70703125 C-88.88955561 129.35544097 -86.39937482 155.91707514 -83.1015625 180.50390625 C-82.9463916 181.72078125 -82.7912207 182.93765625 -82.63134766 184.19140625 C-81.07895609 196.34468578 -79.5409918 208.31854779 -76.05078125 220.0859375 C-74.28074599 226.45952124 -73.23121906 232.99126504 -72.1015625 239.50390625 C-69.098492 240.43387953 -67.04781137 240.51239423 -63.98022461 239.87060547 C-63.17128754 239.70631546 -62.36235046 239.54202545 -61.52890015 239.37275696 C-60.65440216 239.1865831 -59.77990417 239.00040924 -58.87890625 238.80859375 C-56.97538861 238.42042467 -55.07182207 238.03249531 -53.16821289 237.64477539 C-52.16807159 237.43789093 -51.1679303 237.23100647 -50.13748169 237.01785278 C-34.37306559 233.76696309 -18.61325102 230.75431377 -2.6640625 228.56640625 C-1.97214813 228.47139832 -1.28023376 228.37639038 -0.56735229 228.27850342 C2.6754208 227.83691072 5.91965223 227.40890804 9.16552734 226.99072266 C11.70950897 226.65895684 14.25149825 226.31163009 16.79150391 225.95068359 C22.5123851 225.14395759 28.15233963 224.4173874 33.9296875 224.22265625 C43.85825659 224.22984645 43.85825659 224.22984645 52.6484375 220.43359375 C54.40804288 217.86488411 55.65663857 215.35372956 56.8984375 212.50390625 C57.83662709 211.16180942 58.81526079 209.84689158 59.8359375 208.56640625 C62.86041615 204.57377438 65.79562692 200.51976131 68.73046875 196.4609375 C70.2722327 194.35802704 71.82716761 192.27439869 73.41015625 190.203125 C74.03216919 189.38666504 74.03216919 189.38666504 74.66674805 188.55371094 C75.84441742 187.01211955 77.02754907 185.47470557 78.2109375 183.9375 C80.08837988 181.72355546 80.08837988 181.72355546 79.8984375 179.50390625 C80.8575 179.10171875 80.8575 179.10171875 81.8359375 178.69140625 C84.22975436 177.61722873 84.22975436 177.61722873 84.8984375 174.50390625 C86.55481186 172.82701044 88.22359246 171.16235421 89.8984375 169.50390625 C92.37647303 166.51616726 94.70405458 163.4110116 97.05664062 160.32421875 C100.69659767 155.60482616 100.69659767 155.60482616 102.8984375 154.50390625 C103.3521875 153.74078125 103.8059375 152.97765625 104.2734375 152.19140625 C105.91702902 149.47315874 107.59393385 147.67285086 109.8984375 145.50390625 C113.36509802 142.32403504 113.36509802 142.32403504 115.8984375 138.44140625 C117.30975378 135.70698096 119.49458479 134.404627 121.8984375 132.50390625 C125.52408248 129.02658887 125.52408248 129.02658887 126.8984375 124.50390625 C125.7228125 124.13265625 125.7228125 124.13265625 124.5234375 123.75390625 C121.8984375 122.50390625 121.8984375 122.50390625 121.15234375 120.79296875 C119.23412012 117.29116486 116.26090831 115.14886132 113.2109375 112.62890625 C111.99869792 111.61067708 110.78645833 110.59244792 109.57421875 109.57421875 C108.67050537 108.82446777 108.67050537 108.82446777 107.74853516 108.05957031 C106.46902925 106.98369124 105.20384568 105.89063164 103.95068359 104.78417969 C103.32887207 104.23536133 102.70706055 103.68654297 102.06640625 103.12109375 C101.50590576 102.6194873 100.94540527 102.11788086 100.36791992 101.60107422 C98.93698862 100.30448182 98.93698862 100.30448182 96.8984375 100.50390625 C96.8984375 99.84390625 96.8984375 99.18390625 96.8984375 98.50390625 C95.51949652 97.22245909 95.51949652 97.22245909 93.6484375 95.94140625 C92.92011719 95.41417969 92.19179688 94.88695312 91.44140625 94.34375 C90.60222656 93.73660156 89.76304687 93.12945312 88.8984375 92.50390625 C86.91787291 91.00575252 84.93878165 89.50564964 82.9609375 88.00390625 C78.75835104 84.85064815 74.51045774 81.83660355 70.109375 78.96875 C67.663697 77.3483803 65.28442448 75.64830463 62.8984375 73.94140625 C59.09956189 71.26812341 55.24440184 68.93020106 51.15234375 66.73828125 C48.82671836 65.46462852 46.58825971 64.0901773 44.3359375 62.69140625 C38.05288834 58.88617929 31.46326428 55.70116469 24.87036133 52.47583008 C22.85211635 51.48107543 20.84638874 50.46342595 18.83984375 49.4453125 C8.27346847 44.17238348 -2.37495023 40.98384454 -13.9140625 38.62890625 C-15.46951782 38.30611694 -15.46951782 38.30611694 -17.05639648 37.97680664 C-33.61117699 34.78928935 -52.38987786 36.22886111 -64.453125 49.453125 Z M285.8984375 52.50390625 C284.23074393 53.20946891 282.56279766 53.91449436 280.890625 54.609375 C269.01684949 59.94093302 257.81980054 67.27499535 247.265625 74.8359375 C244.08360806 77.07805175 240.80652374 79.1640248 237.515625 81.2421875 C236.98195313 81.65855469 236.44828125 82.07492188 235.8984375 82.50390625 C235.8984375 83.16390625 235.8984375 83.82390625 235.8984375 84.50390625 C234.9909375 84.75140625 234.0834375 84.99890625 233.1484375 85.25390625 C229.63430727 86.6054948 228.49696952 87.85905459 225.8984375 90.50390625 C223.80922092 92.17472164 221.70991609 93.81638273 219.5859375 95.44140625 C213.53311726 100.12764279 207.71242163 105.03654335 201.96166992 110.08764648 C198.66861319 112.98004423 195.32909905 115.7740015 191.8984375 118.50390625 C190.54535437 119.81719282 189.20973672 121.14889706 187.8984375 122.50390625 C186.8984375 123.50390625 185.8984375 124.50390625 184.8984375 125.50390625 C185.5584375 126.82390625 186.2184375 128.14390625 186.8984375 129.50390625 C187.5584375 129.50390625 188.2184375 129.50390625 188.8984375 129.50390625 C189.1665625 130.09042969 189.4346875 130.67695313 189.7109375 131.28125 C190.91255741 133.53033464 192.19765252 135.17346528 193.8984375 137.06640625 C194.50945312 137.75089844 195.12046875 138.43539062 195.75 139.140625 C197.34584998 140.89605998 198.94538994 142.64814189 200.546875 144.3984375 C200.99804688 144.89206787 201.44921875 145.38569824 201.9140625 145.89428711 C203.2259323 147.32702423 204.5425669 148.75539403 205.859375 150.18359375 C207.8984375 152.50390625 207.8984375 152.50390625 208.8984375 154.50390625 C209.5584375 154.50390625 210.2184375 154.50390625 210.8984375 154.50390625 C211.1459375 155.24640625 211.3934375 155.98890625 211.6484375 156.75390625 C213.03423516 159.80266111 214.47295257 161.21317048 216.8984375 163.50390625 C222.16197506 169.39405543 226.91199095 175.66500321 231.69970703 181.94091797 C233.3726251 184.12218508 235.07365733 186.28104049 236.7734375 188.44140625 C238.71637413 190.91922191 240.52353549 193.40859357 242.2109375 196.06640625 C243.04625 197.27296875 243.04625 197.27296875 243.8984375 198.50390625 C244.5584375 198.50390625 245.2184375 198.50390625 245.8984375 198.50390625 C246.15753906 199.23609375 246.41664063 199.96828125 246.68359375 200.72265625 C247.93307525 203.58320553 249.36477425 205.59611974 251.3359375 208.00390625 C253.79381125 211.07117018 255.9162964 214.10595007 257.8984375 217.50390625 C260.34726188 221.36375264 260.34726188 221.36375264 264.36328125 223.09765625 C268.10254375 223.52736155 271.83051208 223.80267809 275.58569336 224.0480957 C300.70639964 225.73615911 325.5418753 229.9854361 350.19824219 234.96484375 C354.00791527 235.72540055 357.82731875 236.42863467 361.6484375 237.12890625 C368.76287485 238.45340256 375.83169798 239.9470152 382.8984375 241.50390625 C385.80867482 234.58149709 387.37848912 228.1189459 388.2734375 220.6796875 C388.68607368 217.60360435 389.30292957 214.62795458 390.0234375 211.609375 C396.04192763 186.18707193 398.29010147 158.61356512 396.8984375 132.50390625 C396.83414551 131.28461426 396.76985352 130.06532227 396.70361328 128.80908203 C395.27328392 103.67859713 391.55604826 79.67654854 378.8984375 57.50390625 C378.22147517 56.17577063 377.54920086 54.84507338 376.8984375 53.50390625 C376.2384375 53.50390625 375.5784375 53.50390625 374.8984375 53.50390625 C374.8365625 52.94703125 374.7746875 52.39015625 374.7109375 51.81640625 C372.64921542 45.94842801 366.27787238 42.15935977 360.8984375 39.50390625 C354.8613804 37.04425266 349.34532858 35.92137119 342.8359375 35.94140625 C341.98813721 35.94382324 341.14033691 35.94624023 340.2668457 35.94873047 C321.42788337 36.47066098 302.11107965 43.14086558 285.8984375 52.50390625 Z M154.8984375 155.50390625 C153.40214571 157.18245755 151.97551089 158.92349523 150.5859375 160.69140625 C148.19746491 163.72058965 145.8624553 166.5391839 143.10546875 169.2421875 C140.66563714 171.21578844 140.66563714 171.21578844 140.8984375 173.50390625 C140.03798828 173.84615234 140.03798828 173.84615234 139.16015625 174.1953125 C136.28660567 175.85790222 134.76396591 177.83492028 132.7109375 180.44140625 C131.92847656 181.42496094 131.14601563 182.40851563 130.33984375 183.421875 C129.13134766 184.94748047 129.13134766 184.94748047 127.8984375 186.50390625 C126.31775392 188.42275876 124.73450633 190.33950263 123.1484375 192.25390625 C120.68776607 195.25378568 118.30498617 198.25873399 116.0859375 201.44140625 C113.8984375 204.50390625 113.8984375 204.50390625 111.9609375 206.37890625 C108.77123293 209.66526854 106.43884282 213.69329827 103.8984375 217.50390625 C137.8884375 217.50390625 171.8784375 217.50390625 206.8984375 217.50390625 C204.28514554 212.27732234 202.83901747 210.35094129 198.8984375 206.50390625 C197.09580886 204.19364865 195.43473597 201.7921074 193.7734375 199.37890625 C190.19151717 194.14724652 190.19151717 194.14724652 185.8984375 189.50390625 C184.84476642 188.32704477 183.80314948 187.13928727 182.7734375 185.94140625 C182.25523437 185.34199219 181.73703125 184.74257812 181.203125 184.125 C179.8984375 182.50390625 179.8984375 182.50390625 178.8984375 180.50390625 C178.2384375 180.50390625 177.5784375 180.50390625 176.8984375 180.50390625 C176.68703125 179.98441406 176.475625 179.46492188 176.2578125 178.9296875 C174.31875626 175.46947508 171.75661981 172.66537023 169.1484375 169.69140625 C168.11197917 168.49739583 167.07552083 167.30338542 166.0390625 166.109375 C165.52408203 165.5220459 165.00910156 164.9347168 164.47851562 164.32958984 C163.38361425 163.0644983 162.30517698 161.78504081 161.24023438 160.49462891 C160.70978516 159.85444824 160.17933594 159.21426758 159.6328125 158.5546875 C159.15553711 157.96985596 158.67826172 157.38502441 158.18652344 156.7824707 C156.96434722 155.26907999 156.96434722 155.26907999 154.8984375 155.50390625 Z M100.84729004 259.95565796 C95.57989117 260.26034376 90.31855111 260.5378732 85.04443359 260.69287109 C84.16272995 260.72333023 83.28102631 260.75378937 82.37260437 260.78517151 C80.77001025 260.83787971 79.16686876 260.87675554 77.56355286 260.89830017 C74.18150665 261.01923316 72.22848301 261.26144885 69.46606445 263.29077148 C67.85361739 265.31003435 66.90757307 267.13243766 65.8984375 269.50390625 C63.21578846 274.1403053 60.25397207 278.59554176 57.32421875 283.078125 C55.72953192 285.32231648 55.72953192 285.32231648 55.8984375 287.50390625 C55.2384375 287.50390625 54.5784375 287.50390625 53.8984375 287.50390625 C53.48980469 288.35855469 53.08117187 289.21320313 52.66015625 290.09375 C50.86831429 293.56221569 48.8529113 296.81018036 46.7109375 300.06640625 C45.90792633 301.3027833 45.10586365 302.53977682 44.3046875 303.77734375 C43.9025 304.39834961 43.5003125 305.01935547 43.0859375 305.65917969 C38.20446311 313.24232535 33.58564355 320.93942144 29.328125 328.890625 C27.91560492 331.47252645 26.4270296 333.98925344 24.8984375 336.50390625 C20.79394693 343.27685153 17.00450355 350.20292345 13.5234375 357.31640625 C10.85877943 362.73223727 7.82129666 367.90759931 4.765625 373.109375 C2.88700904 376.5246831 1.40587969 379.91414984 -0.1015625 383.50390625 C-0.73973401 384.68640051 -1.39993933 385.85792174 -2.1015625 387.00390625 C-4.09205637 390.37942057 -5.5658723 393.89837274 -7.1015625 397.50390625 C-7.6790625 398.32890625 -8.2565625 399.15390625 -8.8515625 400.00390625 C-10.64131987 403.58342099 -10.10808889 405.67910596 -9.1015625 409.50390625 C-7.8276036 411.54224049 -6.49094327 413.54242751 -5.1015625 415.50390625 C-4.38656537 417.17154407 -3.67347179 418.84006256 -2.97607422 420.51513672 C-1.38468144 424.13420026 0.52454661 427.58764841 2.3984375 431.06640625 C3.18033696 432.52569386 3.96159913 433.98532315 4.7421875 435.4453125 C5.11255127 436.13802246 5.48291504 436.83073242 5.86450195 437.54443359 C7.25299964 440.17585801 8.57246004 442.84055324 9.8984375 445.50390625 C12.89615129 451.12088491 16.13345425 456.58333294 19.42578125 462.03125 C21.6739528 465.80603141 23.78761944 469.65115095 25.8984375 473.50390625 C29.2032966 479.52072614 32.60606134 485.47248328 36.078125 491.39453125 C37.27727164 493.44285899 38.47014855 495.49487208 39.65625 497.55078125 C43.07604822 503.47025261 46.6124472 509.28752408 50.3203125 515.03125 C51.89350641 517.49618006 53.39747785 519.99448934 54.8984375 522.50390625 C58.82914696 528.837797 62.90139665 535.04267221 67.22265625 541.1171875 C68.8984375 543.50390625 68.8984375 543.50390625 70.61328125 546.71484375 C72.70916996 549.81858967 72.70916996 549.81858967 76.453125 550.4921875 C77.89047498 550.63220469 79.33139746 550.7383019 80.7734375 550.81640625 C81.53389374 550.87032028 82.29434998 550.92423431 83.07785034 550.9797821 C103.85366252 552.40702174 124.58490405 552.70403882 145.40141296 552.69258499 C147.79743589 552.69139432 150.19345448 552.69194187 152.58947754 552.69259644 C176.73707045 552.69117988 200.80733413 552.30051973 224.8984375 550.50390625 C226.07083984 550.41995605 227.24324219 550.33600586 228.45117188 550.24951172 C234.26683711 549.86128796 234.26683711 549.86128796 239.8984375 548.50390625 C239.8984375 547.84390625 239.8984375 547.18390625 239.8984375 546.50390625 C240.5584375 546.50390625 241.2184375 546.50390625 241.8984375 546.50390625 C242.671875 544.86421875 242.671875 544.86421875 243.4609375 543.19140625 C245.73509317 538.62685094 248.43849317 534.38992302 251.21484375 530.1171875 C253.32545542 526.84108725 255.31027038 523.49901252 257.29296875 520.14453125 C261.14251732 513.65438324 265.250148 507.38290936 269.50390625 501.15234375 C270.02597656 500.38148438 270.54804687 499.610625 271.0859375 498.81640625 C271.55386719 498.13191406 272.02179688 497.44742188 272.50390625 496.7421875 C274.16239683 494.08024043 275.50607037 491.31356779 276.8984375 488.50390625 C277.96483965 486.61922522 279.04870733 484.7443364 280.1484375 482.87890625 C281.07076172 481.30882812 281.07076172 481.30882812 282.01171875 479.70703125 C282.94564453 478.12148438 282.94564453 478.12148438 283.8984375 476.50390625 C285.63257759 473.54451594 287.36265991 470.58291745 289.0859375 467.6171875 C290.32747444 465.48463375 291.57793365 463.35725649 292.8359375 461.234375 C297.00298061 454.11296344 300.66731853 446.89839081 304.10913086 439.3996582 C305.70018265 435.95860101 307.28197788 432.66089953 309.3984375 429.50390625 C313.27793183 423.49559478 316.16202836 416.88313404 319.04736328 410.35009766 C319.8984375 408.50390625 319.8984375 408.50390625 321.40234375 405.984375 C322.23530551 401.81956618 319.81454005 398.96711445 317.6484375 395.50390625 C316.80725947 394.10966009 315.9686488 392.71386126 315.1328125 391.31640625 C314.73602295 390.65809814 314.3392334 389.99979004 313.93041992 389.3215332 C312.68472454 387.12749437 311.79365046 384.8595127 310.8984375 382.50390625 C310.16112007 381.25434724 309.39013286 380.02400906 308.5859375 378.81640625 C306.69620584 375.86886562 305.05474383 372.90243379 303.5234375 369.75390625 C301.14081419 364.86840104 298.4392633 360.21863194 295.64453125 355.55859375 C294.33111145 353.26084367 293.12183527 350.98291826 291.953125 348.61328125 C289.97868496 344.61130699 287.80805406 340.74732303 285.5859375 336.87890625 C282.62339482 331.68209483 279.8249591 326.44665081 277.2109375 321.06640625 C274.49752543 315.54536642 271.45972133 310.51065233 267.8984375 305.50390625 C262.62196972 297.6743089 257.48498598 289.75969351 252.8984375 281.50390625 C252.2384375 281.50390625 251.5784375 281.50390625 250.8984375 281.50390625 C250.65480469 280.83746094 250.41117188 280.17101562 250.16015625 279.484375 C247.42661903 273.02713383 244.10847286 266.32183962 238.8984375 261.50390625 C234.59134818 259.81624984 230.75688584 259.48661589 226.15795898 259.5300293 C223.37278517 259.49782902 220.62710633 259.26471885 217.8515625 259.03125 C205.55849121 258.04364224 193.2188711 257.8344286 180.89276123 257.55072021 C179.07181904 257.50797614 177.25098868 257.46053402 175.43017578 257.41259766 C150.54662545 256.825033 125.67823472 258.51285975 100.84729004 259.95565796 Z M7.5859375 266.37890625 C3.46455776 267.11036287 -0.6289751 267.68558927 -4.79370117 268.10571289 C-13.73134862 269.02079057 -22.41147315 270.70953588 -31.18920898 272.60986328 C-38.10417737 274.10591938 -45.02094815 275.43638733 -52.01367188 276.51538086 C-55.36098607 277.06063893 -57.21980728 277.5827361 -60.1015625 279.50390625 C-59.77542969 280.41011719 -59.44929687 281.31632812 -59.11328125 282.25 C-56.30242258 290.08557949 -53.57445662 297.93633929 -51.01953125 305.859375 C-48.06742396 314.90313226 -44.73487757 323.71300937 -41.1015625 332.50390625 C-40.64394531 333.61378906 -40.18632812 334.72367187 -39.71484375 335.8671875 C-37.54682901 341.09516299 -35.34525735 346.30798132 -33.1015625 351.50390625 C-30.00092351 350.83083132 -30.00092351 350.83083132 -28.8828125 348.484375 C-28.46 347.56269531 -28.0371875 346.64101563 -27.6015625 345.69140625 C-21.48195452 332.9346115 -14.53846535 320.57262881 -7.0078125 308.59765625 C-4.88660325 305.15503796 -2.89529558 301.65311231 -0.9140625 298.12890625 C1.77205946 293.36053922 4.65897617 288.91317305 7.8984375 284.50390625 C8.87153401 282.80883491 9.84446448 281.11345983 10.7890625 279.40234375 C12.57978908 276.33793136 14.61286624 273.43896133 16.62890625 270.51953125 C18.05377523 268.43459054 18.05377523 268.43459054 18.8984375 265.50390625 C14.99348102 265.42386322 11.42107278 265.65739021 7.5859375 266.37890625 Z M292.8984375 268.50390625 C294.2420651 272.24211768 295.93153563 275.17796614 298.2734375 278.37890625 C300.67944265 281.74235262 302.90138874 285.07987209 304.89453125 288.69921875 C306.05719216 290.789294 307.28632668 292.83198752 308.5234375 294.87890625 C326.71576858 325.1075776 326.71576858 325.1075776 332.8984375 337.50390625 C334.36679107 340.29255876 335.87665995 343.05661495 337.3984375 345.81640625 C337.98431641 346.90791992 337.98431641 346.90791992 338.58203125 348.02148438 C338.96488281 348.71306641 339.34773437 349.40464844 339.7421875 350.1171875 C340.08443359 350.74407471 340.42667969 351.37096191 340.77929688 352.0168457 C341.9210904 353.82692957 341.9210904 353.82692957 344.8984375 354.50390625 C348.8559494 347.0435753 351.93817304 339.40441533 354.8984375 331.50390625 C356.68073296 326.94985594 358.4965548 322.42019881 360.4609375 317.94140625 C361.51885542 315.41160252 362.4437039 312.95978682 363.296875 310.36328125 C363.55831299 309.57107178 363.81975098 308.7788623 364.08911133 307.96264648 C364.48972778 306.74557007 364.48972778 306.74557007 364.8984375 305.50390625 C365.40947761 303.96852395 365.92118638 302.43336404 366.43359375 300.8984375 C366.68560547 300.14240234 366.93761719 299.38636719 367.19726562 298.60742188 C369.09765625 292.90625 370.99804688 287.20507812 372.8984375 281.50390625 C371.28388672 281.23126953 371.28388672 281.23126953 369.63671875 280.953125 C368.16142507 280.69941207 366.68616657 280.44549455 365.2109375 280.19140625 C364.50904297 280.07345703 363.80714844 279.95550781 363.08398438 279.83398438 C358.66898146 279.0687172 354.32539177 278.14261572 349.96875 277.09375 C341.53408692 275.11596269 333.00811582 273.76512273 324.4609375 272.37890625 C322.83652529 272.11236434 321.2121759 271.84543931 319.58789062 271.578125 C316.61829919 271.08992662 313.64837301 270.60389295 310.67797852 270.12060547 C308.29854077 269.73235796 305.92038028 269.33611523 303.54418945 268.9284668 C301.14427583 268.54335562 298.94804341 268.3996027 296.5234375 268.44140625 C294.7290625 268.47234375 294.7290625 268.47234375 292.8984375 268.50390625 Z M-110.7890625 293.19140625 C-111.64322754 293.4639624 -112.49739258 293.73651855 -113.37744141 294.01733398 C-115.95356663 294.84185738 -118.52787946 295.67179423 -121.1015625 296.50390625 C-122.16769775 296.84760254 -122.16769775 296.84760254 -123.25537109 297.19824219 C-140.0103258 302.61956956 -156.00188636 309.40923334 -172.1015625 316.50390625 C-172.95073242 316.87483398 -173.79990234 317.24576172 -174.67480469 317.62792969 C-175.46532227 317.97500977 -176.25583984 318.32208984 -177.0703125 318.6796875 C-178.10575195 319.13275269 -178.10575195 319.13275269 -179.16210938 319.5949707 C-181.12468803 320.51474416 -182.98005546 321.53677681 -184.8515625 322.62890625 C-188.1015625 324.50390625 -188.1015625 324.50390625 -190.39453125 325.390625 C-195.60562019 327.53371353 -200.37697171 330.59761472 -205.23974609 333.42822266 C-207.04646684 334.47207416 -208.86279812 335.49656436 -210.68359375 336.515625 C-211.77027344 337.13050781 -212.85695312 337.74539063 -213.9765625 338.37890625 C-214.96398437 338.93320312 -215.95140625 339.4875 -216.96875 340.05859375 C-217.67257813 340.53554688 -218.37640625 341.0125 -219.1015625 341.50390625 C-219.1015625 342.16390625 -219.1015625 342.82390625 -219.1015625 343.50390625 C-220.43767578 343.88482422 -220.43767578 343.88482422 -221.80078125 344.2734375 C-225.16546132 345.52772652 -227.18798847 346.89029235 -229.9140625 349.19140625 C-233.20341828 351.92593094 -236.50828842 354.60301795 -239.9140625 357.19140625 C-243.23143473 359.76512936 -246.2045794 362.45445036 -249.1015625 365.50390625 C-249.63265625 366.014375 -250.16375 366.52484375 -250.7109375 367.05078125 C-261.12641565 377.09756991 -269.74138571 388.46471958 -270.203125 403.41796875 C-269.7585133 416.9273241 -264.22554925 428.91533925 -256.1015625 439.50390625 C-255.64136719 440.1896875 -255.18117188 440.87546875 -254.70703125 441.58203125 C-245.74013762 454.70935679 -226.98122167 468.01069874 -212.1015625 473.50390625 C-212.1015625 474.16390625 -212.1015625 474.82390625 -212.1015625 475.50390625 C-210.9259375 476.08140625 -209.7503125 476.65890625 -208.5390625 477.25390625 C-203.79720216 479.62898866 -199.20727586 482.21253834 -194.6875 484.984375 C-193.40746094 485.76748047 -193.40746094 485.76748047 -192.1015625 486.56640625 C-191.3178125 487.05238281 -190.5340625 487.53835938 -189.7265625 488.0390625 C-187.22668417 489.43408389 -184.69251934 490.56714408 -182.05175781 491.66674805 C-179.12161784 492.92456602 -176.26432531 494.32627886 -173.39355469 495.71313477 C-165.09006992 499.71809838 -156.79677827 503.41880329 -148.1015625 506.50390625 C-147.2554541 506.80683594 -146.4093457 507.10976563 -145.53759766 507.421875 C-134.14630215 511.49116927 -122.77587972 515.32836924 -111.1015625 518.50390625 C-107.76285978 519.486378 -104.43120793 520.49120303 -101.1015625 521.50390625 C-98.57639879 518.97874254 -98.16825318 516.9238006 -97.1640625 513.50390625 C-96.84566406 512.43140625 -96.52726563 511.35890625 -96.19921875 510.25390625 C-95.61556007 508.25991218 -95.03223938 506.2658179 -94.45141602 504.27099609 C-92.45240117 497.49326718 -90.22396424 490.80655865 -87.9140625 484.12890625 C-87.52186523 482.99493408 -87.12966797 481.86096191 -86.72558594 480.69262695 C-83.41308202 471.21281636 -79.7667749 461.89941476 -75.95654297 452.61083984 C-74.73147236 449.59189085 -73.57102814 446.54950116 -72.4140625 443.50390625 C-66.62188652 428.36261401 -66.62188652 428.36261401 -63.0390625 421.37890625 C-61.53245162 418.41508157 -60.11430357 415.42877612 -58.7890625 412.37890625 C-58.44230469 411.59257812 -58.09554687 410.80625 -57.73828125 409.99609375 C-55.5246782 401.33180697 -62.19866254 391.12184202 -66.07739258 383.61010742 C-67.15196568 381.40025233 -68.07183751 379.16886347 -68.97265625 376.8828125 C-69.32126709 376.00238281 -69.66987793 375.12195313 -70.02905273 374.21484375 C-70.38298096 373.32023437 -70.73690918 372.425625 -71.1015625 371.50390625 C-71.76699566 369.84846197 -72.43363798 368.19350316 -73.1015625 366.5390625 C-76.57644318 357.90870695 -80.02907232 349.28734471 -83.1015625 340.50390625 C-83.62873451 339.0129601 -84.1560972 337.52208136 -84.68359375 336.03125 C-88.37730283 325.56198924 -91.95423863 315.05809169 -95.43603516 304.51660156 C-96.44383603 301.46879878 -97.4603696 298.42391936 -98.4765625 295.37890625 C-99.01822917 293.75390625 -99.55989583 292.12890625 -100.1015625 290.50390625 C-103.78558956 290.50390625 -107.30207585 292.07201389 -110.7890625 293.19140625 Z M412.8984375 291.50390625 C410.045605 297.91367459 407.54761729 304.34786985 405.5234375 311.06640625 C402.71484645 320.36260586 399.33057296 329.42287961 395.8984375 338.50390625 C395.41396478 339.79814051 394.92958275 341.09240872 394.4453125 342.38671875 C391.28788512 350.73678273 391.28788512 350.73678273 389.34765625 354.55859375 C388.06373497 357.16796475 387.20764494 359.51973181 386.4609375 362.31640625 C385.28828235 366.3844316 383.83809638 370.13233178 382.05859375 373.96875 C380.64526813 377.05712821 379.33973264 380.18547968 378.0234375 383.31640625 C375.61035352 389.0189372 372.89990175 394.4661726 369.90234375 399.8828125 C368.39470333 403.81910323 369.47139479 406.4586981 371.03417969 410.28369141 C371.49985352 411.27675293 371.96552734 412.26981445 372.4453125 413.29296875 C372.9609375 414.40027344 373.4765625 415.50757813 374.0078125 416.6484375 C374.54921875 417.79699219 375.090625 418.94554687 375.6484375 420.12890625 C376.70600828 422.39179666 377.76330257 424.65481631 378.8203125 426.91796875 C379.33650146 428.02003662 379.85269043 429.12210449 380.38452148 430.25756836 C385.66357064 441.57760006 390.38277369 452.99266817 394.70483398 464.70776367 C395.85754671 467.81448859 397.05496643 470.86458535 398.375 473.90625 C400.18139632 478.17212439 401.70370441 482.50030681 403.2109375 486.87890625 C403.82534096 488.64849996 404.43992769 490.41803005 405.0546875 492.1875 C405.36148438 493.0729248 405.66828125 493.95834961 405.984375 494.87060547 C407.3823651 498.89804168 408.79464958 502.92037432 410.2109375 506.94140625 C410.45303955 507.63218262 410.6951416 508.32295898 410.94458008 509.03466797 C412.18553612 512.55837031 413.47998281 516.04767158 414.8984375 519.50390625 C423.92411995 517.15865018 433.03460418 514.71347245 441.5859375 510.94140625 C444.09988916 509.85044609 446.48807611 508.95929409 449.0859375 508.12890625 C454.83177208 506.25232054 460.34808925 503.88902134 465.8984375 501.50390625 C466.55392578 501.22466309 467.20941406 500.94541992 467.88476562 500.65771484 C469.99574671 499.7574435 472.1036996 498.85040126 474.2109375 497.94140625 C475.19719116 497.52036621 475.19719116 497.52036621 476.20336914 497.09082031 C479.46645917 495.67169138 482.58648419 494.15678893 485.6640625 492.3671875 C488.71142043 490.61164434 491.5342322 489.4885517 494.8984375 488.50390625 C494.8984375 487.84390625 494.8984375 487.18390625 494.8984375 486.50390625 C495.7646875 486.23578125 496.6309375 485.96765625 497.5234375 485.69140625 C511.90683604 480.63058084 525.30948345 470.85954581 537.66015625 462.07421875 C539.58560416 460.72338095 541.53615752 459.44800015 543.5234375 458.19140625 C544.3071875 457.63453125 545.0909375 457.07765625 545.8984375 456.50390625 C545.8984375 455.84390625 545.8984375 455.18390625 545.8984375 454.50390625 C546.77048828 454.10945313 546.77048828 454.10945313 547.66015625 453.70703125 C550.00847572 452.44475831 551.73641595 451.03942064 553.7109375 449.25390625 C557.67430959 445.67667151 557.67430959 445.67667151 559.5859375 444.203125 C569.85764683 436.22773531 581.88975062 421.37610631 583.56640625 408.40234375 C584.56226603 394.78762818 578.92999451 384.26311765 570.18359375 374 C562.0431948 365.1081796 553.73906002 357.51692457 543.8984375 350.50390625 C542.49952203 349.44546756 541.10331253 348.38343424 539.7109375 347.31640625 C533.3917935 342.58360338 526.82577032 338.29406581 519.8984375 334.50390625 C519.145625 334.08753906 518.3928125 333.67117188 517.6171875 333.2421875 C514.71838147 331.64871732 511.80940028 330.07506647 508.8984375 328.50390625 C508.23924316 328.14570801 507.58004883 327.78750977 506.90087891 327.41845703 C495.7448288 321.33978661 495.7448288 321.33978661 484.0859375 316.32421875 C478.52985575 314.24068809 473.21854962 311.68094205 467.9609375 308.94140625 C463.79380497 306.82548647 459.68242752 305.42518599 455.1875 304.1796875 C452.655373 303.4321483 450.30921287 302.39028594 447.90234375 301.3125 C443.032924 299.34764641 437.92745603 297.99591797 432.8984375 296.50390625 C431.39310894 296.04857436 429.88790602 295.59282697 428.3828125 295.13671875 C426.8464879 294.6753357 425.31003088 294.21439334 423.7734375 293.75390625 C423.03883301 293.53105957 422.30422852 293.30821289 421.54736328 293.07861328 C418.5631929 292.19289426 416.02924855 291.50390625 412.8984375 291.50390625 Z M343.8984375 452.50390625 C343.43469727 453.3760376 342.97095703 454.24816895 342.49316406 455.14672852 C340.75726572 458.41065072 339.01995059 461.67381706 337.28222656 464.93676758 C336.53314737 466.34379122 335.78444243 467.75101418 335.03613281 469.15844727 C333.9547826 471.19210656 332.87204744 473.22502337 331.7890625 475.2578125 C331.45972717 475.87789688 331.13039185 476.49798126 330.79107666 477.13685608 C328.56845133 481.30454086 326.25128151 485.40831833 323.8984375 489.50390625 C322.93573223 491.29322757 321.97709113 493.08474434 321.0234375 494.87890625 C318.67474077 499.21358958 316.1250681 503.30234146 313.29296875 507.3359375 C311.80361725 509.56225664 311.80361725 509.56225664 310.49609375 512.33984375 C308.73338191 515.83078897 306.67434453 519.05893196 304.5234375 522.31640625 C299.8423542 529.501765 295.71703493 536.82307027 291.8984375 544.50390625 C292.63779541 544.39320801 293.37715332 544.28250977 294.13891602 544.16845703 C297.57940918 543.6540558 301.02014863 543.14132578 304.4609375 542.62890625 C305.70423828 542.44328125 306.94753906 542.25765625 308.22851562 542.06640625 C314.44562679 541.14342686 320.65929123 540.26225552 326.8984375 539.50390625 C333.34029207 538.67461003 339.63194021 537.35359509 345.97216797 535.96923828 C351.64854385 534.736753 357.32303252 533.76616023 363.07421875 532.94140625 C367.06807683 532.32271731 370.96716133 531.43675144 374.8984375 530.50390625 C370.70842418 518.47892744 370.70842418 518.47892744 366.2109375 506.56640625 C364.73842538 502.80540395 363.43448103 499.07765165 362.3359375 495.19140625 C361.23684853 491.34149008 359.73056943 488.01460662 357.86328125 484.484375 C356.52491755 481.7372074 355.66469613 478.89618887 354.7421875 475.98828125 C352.01732513 467.96507537 348.38627042 460.2200059 344.8984375 452.50390625 C344.5684375 452.50390625 344.2384375 452.50390625 343.8984375 452.50390625 Z M-33.1015625 454.50390625 C-38.94168909 467.73753856 -38.94168909 467.73753856 -43.4609375 481.453125 C-44.35134232 484.30350627 -45.73174422 486.80786044 -47.12890625 489.4375 C-48.60036847 492.56361854 -49.45539855 495.82598577 -50.390625 499.14453125 C-51.15551731 501.68296506 -52.18948755 504.04366163 -53.28125 506.45703125 C-54.83013042 510.32185669 -55.94510962 514.33392534 -57.13671875 518.3203125 C-57.7758836 520.42929772 -58.47102481 522.52218042 -59.22265625 524.59375 C-60.08220929 527.43982561 -60.17127192 529.56216887 -60.1015625 532.50390625 C-32.5601049 538.08039064 -32.5601049 538.08039064 -4.77001953 542.18017578 C-0.64518936 542.68058976 3.47311751 543.22951362 7.5925293 543.77246094 C12.02694162 544.35650051 16.46263538 544.93053366 20.8984375 545.50390625 C20.475625 544.80265625 20.0528125 544.10140625 19.6171875 543.37890625 C17.25004188 539.41931721 14.93656319 535.42910481 12.6171875 531.44140625 C9.76851705 526.57276948 6.842279 521.75302597 3.8984375 516.94140625 C3.2178125 515.82636719 2.5371875 514.71132813 1.8359375 513.5625 C0.00923786 510.58659773 0.00923786 510.58659773 -1.80859375 508.2421875 C-3.22486955 506.33813091 -3.68761317 504.82202249 -4.1015625 502.50390625 C-4.7615625 502.50390625 -5.4215625 502.50390625 -6.1015625 502.50390625 C-6.3903125 501.55515625 -6.6790625 500.60640625 -6.9765625 499.62890625 C-7.86981359 496.45179047 -7.86981359 496.45179047 -10.1015625 494.50390625 C-10.3696875 493.82328125 -10.6378125 493.14265625 -10.9140625 492.44140625 C-13.1830749 486.82858609 -16.33736975 481.65319243 -19.6015625 476.56640625 C-22.46329454 472.05401999 -24.769115 467.30511312 -27.1015625 462.50390625 C-27.87039821 460.96124239 -28.64105244 459.41948263 -29.4140625 457.87890625 C-29.9709375 456.76515625 -30.5278125 455.65140625 -31.1015625 454.50390625 C-31.7615625 454.50390625 -32.4215625 454.50390625 -33.1015625 454.50390625 Z M374.2109375 571.75390625 C373.56012207 571.88667969 372.90930664 572.01945313 372.23876953 572.15625 C368.69850807 572.88692645 365.17219887 573.66501773 361.65234375 574.48828125 C352.68658143 576.57585296 343.77367731 578.2015305 334.64819336 579.42749023 C329.17657243 580.16431574 323.76075136 581.0438375 318.3359375 582.06640625 C312.41534306 583.15837906 306.51579261 583.92840996 300.5234375 584.50390625 C299.71422852 584.58511719 298.90501953 584.66632812 298.07128906 584.75 C293.00816558 585.24604271 287.94718974 585.6374253 282.87109375 585.9765625 C280.44264721 586.17242065 278.01426108 586.36902939 275.5859375 586.56640625 C273.85947998 586.65631836 273.85947998 586.65631836 272.09814453 586.74804688 C265.85282207 587.26251711 265.85282207 587.26251711 260.6652832 590.48510742 C258.89199729 592.75168374 257.38623237 595.04332243 255.8984375 597.50390625 C254.85112057 598.91116749 253.79096529 600.30909047 252.7109375 601.69140625 C250.30363447 604.87570622 248.11060494 608.18155848 245.8984375 611.50390625 C239.65927788 620.49007554 233.11532167 629.18224648 226.29833984 637.73632812 C224.8779538 639.52976987 223.47397852 641.33495589 222.07421875 643.14453125 C217.27709373 649.33536488 212.38092937 655.31345771 207.07421875 661.08203125 C204.77933683 663.63647791 202.61652616 666.26862732 200.4609375 668.94140625 C195.82552445 674.67424925 190.90743858 680.09753139 185.8984375 685.50390625 C187.03925781 686.64085937 187.03925781 686.64085937 188.203125 687.80078125 C189.65680409 689.25867391 191.10646309 690.72088988 192.53125 692.20703125 C196.72406569 696.55351034 201.2711873 700.31201678 205.98046875 704.0859375 C209.98049598 707.40055176 213.73117428 710.94958141 217.48828125 714.53515625 C219.76641601 716.39606374 221.0290024 717.13107942 223.8984375 717.50390625 C223.8984375 718.16390625 223.8984375 718.82390625 223.8984375 719.50390625 C225.71889021 721.02978732 227.60704187 722.47541456 229.5234375 723.87890625 C230.56757812 724.64976562 231.61171875 725.420625 232.6875 726.21484375 C235.71915113 728.37609382 238.79574951 730.44655341 241.8984375 732.50390625 C243.54743071 733.66610239 245.19341762 734.83257927 246.8359375 736.00390625 C249.69381551 738.01468868 252.52925097 739.93533669 255.5859375 741.62890625 C257.96416807 742.9750745 259.96667055 744.25480889 262.125 745.875 C265.76559077 748.49933312 269.54888656 750.50051637 273.5859375 752.44140625 C275.00139119 753.13393249 276.41675505 753.82664236 277.83203125 754.51953125 C278.52280762 754.85533203 279.21358398 755.19113281 279.92529297 755.53710938 C282.68340625 756.88852346 285.4137023 758.2934125 288.1484375 759.69140625 C305.29741274 768.17443267 322.42561476 774.02327459 341.7109375 774.12890625 C342.78939941 774.13962158 343.86786133 774.15033691 344.97900391 774.16137695 C355.44697595 773.97418614 363.52655676 770.32482486 371.3359375 763.31640625 C374.76969672 759.54764613 377.84862508 755.58617187 380.8984375 751.50390625 C381.65833984 750.57384766 381.65833984 750.57384766 382.43359375 749.625 C391.97396948 737.03170404 394.73315865 720.72827814 395.66015625 705.37792969 C395.8979639 702.50961852 396.26057471 699.67001012 396.64076233 696.81758118 C398.04301157 686.08208078 398.29688495 675.44647068 398.2734375 664.62890625 C398.27289368 663.67802124 398.27234985 662.72713623 398.27178955 661.74743652 C398.20624198 636.59080211 396.14344778 611.98333354 389.265625 587.6953125 C387.68237056 582.03973441 386.76468006 576.30672563 385.8984375 570.50390625 C381.81820278 570.44683398 378.21618295 570.92553865 374.2109375 571.75390625 Z M-73.1015625 571.50390625 C-76.60233897 581.43378164 -79.51678689 590.9091204 -80.41137695 601.42675781 C-81.05697287 608.88156352 -82.35391471 616.18018685 -83.69384766 623.53808594 C-83.86062012 624.45750977 -84.02739258 625.37693359 -84.19921875 626.32421875 C-84.34883057 627.13133301 -84.49844238 627.93844727 -84.65258789 628.77001953 C-86.15717074 637.93169368 -86.47673368 647.05254817 -86.7265625 656.31640625 C-86.75875381 657.50967529 -86.75875381 657.50967529 -86.79159546 658.72705078 C-87.34711727 680.33530682 -87.43113674 701.42676651 -82.1015625 722.50390625 C-81.79089844 723.78523437 -81.48023438 725.0665625 -81.16015625 726.38671875 C-77.95234629 738.60055582 -72.94246914 749.57559941 -65.1015625 759.50390625 C-64.63878906 760.15101563 -64.17601562 760.798125 -63.69921875 761.46484375 C-57.366611 769.15803831 -44.69102927 772.3661729 -35.1015625 773.50390625 C-23.0722402 774.22756371 -12.6008388 773.03720344 -1.1015625 769.50390625 C-0.20566406 769.24222656 0.69023437 768.98054687 1.61328125 768.7109375 C5.92828854 767.37586687 9.83939574 765.61147108 13.8359375 763.51953125 C15.96668864 762.47029773 18.11014594 761.64355852 20.3359375 760.81640625 C26.77688862 758.3077205 32.76462741 754.94829779 38.83984375 751.67578125 C41.97426758 749.98773712 45.13429773 748.37423413 48.3359375 746.81640625 C55.88448886 743.08051304 62.8821827 738.54188241 69.84765625 733.828125 C72.44792616 732.14909357 75.0904189 730.79991483 77.8984375 729.50390625 C77.8984375 728.84390625 77.8984375 728.18390625 77.8984375 727.50390625 C78.5790625 727.27703125 79.2596875 727.05015625 79.9609375 726.81640625 C84.97094204 724.57789358 89.06834263 721.4034588 92.8984375 717.50390625 C94.05310783 716.44895745 95.22010752 715.40736092 96.3984375 714.37890625 C96.98625 713.86070312 97.5740625 713.3425 98.1796875 712.80859375 C99.8984375 711.50390625 99.8984375 711.50390625 102.8984375 710.50390625 C104.26483092 708.86423415 105.5933794 707.19280497 106.8984375 705.50390625 C108.5438753 703.81627774 110.21132327 702.14987135 111.8984375 700.50390625 C112.7234375 699.65828125 113.5484375 698.81265625 114.3984375 697.94140625 C116.79022153 695.60941682 119.29238089 693.58875154 121.8984375 691.50390625 C123.58372438 689.85607019 125.25540797 688.19387948 126.8984375 686.50390625 C125.58375972 683.63665662 124.14217221 681.45846034 122.0234375 679.12890625 C118.61344767 675.32025372 115.2778484 671.45593164 111.9609375 667.56640625 C107.83070706 662.72404488 103.64298024 657.9498604 99.32421875 653.2734375 C97.8984375 651.50390625 97.8984375 651.50390625 96.8984375 648.50390625 C95.25712574 646.81226466 93.58688784 645.14850073 91.8984375 643.50390625 C90.43654951 641.79530826 88.99914795 640.06548024 87.5859375 638.31640625 C86.4103125 636.86234375 86.4103125 636.86234375 85.2109375 635.37890625 C84.4478125 634.43015625 83.6846875 633.48140625 82.8984375 632.50390625 C82.2590625 631.72015625 81.6196875 630.93640625 80.9609375 630.12890625 C72.84885737 620.12400742 64.74398693 609.88940472 57.984375 598.91015625 C57.62601563 598.44609375 57.26765625 597.98203125 56.8984375 597.50390625 C56.2384375 597.50390625 55.5784375 597.50390625 54.8984375 597.50390625 C54.49625 596.39015625 54.49625 596.39015625 54.0859375 595.25390625 C52.87568555 592.45121753 52.04189486 590.67494026 49.8984375 588.50390625 C47.38319745 587.89022942 45.20481527 587.53348424 42.65234375 587.30859375 C41.93386765 587.23093781 41.21539154 587.15328186 40.47514343 587.07327271 C38.13848927 586.82484794 35.80014037 586.60192574 33.4609375 586.37890625 C31.84910731 586.21132482 30.23745246 586.04204849 28.62597656 585.87109375 C22.06893971 585.18302963 15.50653019 584.55494011 8.94140625 583.94921875 C7.34370423 583.80127465 5.74604436 583.65287435 4.1484375 583.50390625 C3.39344971 583.43413574 2.63846191 583.36436523 1.8605957 583.29248047 C-5.42778583 582.56810124 -12.60417607 581.27883843 -19.80615234 579.96484375 C-25.35820503 578.95623496 -30.86781662 578.1234127 -36.4765625 577.50390625 C-42.81274483 576.77883796 -48.82207356 575.45463998 -54.99145508 573.90332031 C-60.99538854 572.43090874 -66.91954155 571.74213442 -73.1015625 571.50390625 Z M103.8984375 591.50390625 C105.70869809 594.52100723 107.4622276 597.44051959 109.4609375 600.31640625 C109.87472656 600.92097656 110.28851563 601.52554688 110.71484375 602.1484375 C111.10542969 602.59574219 111.49601562 603.04304687 111.8984375 603.50390625 C112.5584375 603.50390625 113.2184375 603.50390625 113.8984375 603.50390625 C114.0840625 604.16390625 114.2696875 604.82390625 114.4609375 605.50390625 C116.13119865 608.98966866 118.25212658 611.34610672 120.83203125 614.1953125 C125.72785173 619.66493424 130.46594705 625.34191531 134.6484375 631.37890625 C136.85615195 634.44517632 139.19947192 636.86920175 141.8984375 639.50390625 C143.7341777 641.6303385 145.54885462 643.77192324 147.34765625 645.9296875 C147.85941406 646.44917969 148.37117188 646.96867188 148.8984375 647.50390625 C149.5584375 647.50390625 150.2184375 647.50390625 150.8984375 647.50390625 C151.1665625 648.10203125 151.4346875 648.70015625 151.7109375 649.31640625 C152.92337246 651.54983908 153.84496023 653.00328824 155.8984375 654.50390625 C159.03778686 654.34222302 159.93875042 653.46096732 162.1171875 651.140625 C162.87 650.16738281 163.6228125 649.19414063 164.3984375 648.19140625 C167.08467667 644.74621252 169.77187698 641.55326774 172.8984375 638.50390625 C174.39802923 636.81980978 175.84946595 635.10141339 177.3046875 633.37890625 C178.39500922 632.09617481 179.49998658 630.82579638 180.6171875 629.56640625 C181.16375 628.94765625 181.7103125 628.32890625 182.2734375 627.69140625 C182.77617188 627.12808594 183.27890625 626.56476562 183.796875 625.984375 C185.09741997 624.54403377 185.09741997 624.54403377 184.8984375 622.50390625 C185.5584375 622.50390625 186.2184375 622.50390625 186.8984375 622.50390625 C188.47480756 620.5540306 189.94860989 618.60681859 191.3984375 616.56640625 C195.6451012 610.6305744 195.6451012 610.6305744 197.8984375 609.50390625 C198.2078125 608.51390625 198.5171875 607.52390625 198.8359375 606.50390625 C199.1865625 605.51390625 199.5371875 604.52390625 199.8984375 603.50390625 C200.8884375 603.17390625 201.8784375 602.84390625 202.8984375 602.50390625 C204.5756161 600.48828357 204.5756161 600.48828357 206.0859375 598.06640625 C206.61574219 597.26332031 207.14554688 596.46023438 207.69140625 595.6328125 C209.06284214 593.62181645 209.06284214 593.62181645 208.8984375 591.50390625 C174.2484375 591.50390625 139.5984375 591.50390625 103.8984375 591.50390625 Z " fill="#070635" transform="translate(339.1015625,3.49609375)"/>
<path d="M0 0 C4.83037764 3.59469964 8.46446795 7.68627117 12.19140625 12.375 C13.30515625 13.426875 13.30515625 13.426875 14.44140625 14.5 C16.19140625 16.375 16.19140625 16.375 16.19140625 19.375 C16.85140625 19.375 17.51140625 19.375 18.19140625 19.375 C19.3979666 21.50059994 20.58850863 23.63308683 21.76171875 25.77734375 C22.64806279 27.38777759 23.55571842 28.98691356 24.49609375 30.56640625 C34.57502792 48.56450299 34.83637432 72.49177786 29.6015625 92.0234375 C27.05822941 100.40214832 23.51577059 110.19587817 17.19140625 116.375 C16.73765625 117.138125 16.28390625 117.90125 15.81640625 118.6875 C11.58327006 125.68845601 5.87763957 130.71238773 -0.80859375 135.375 C-1.46859375 135.375 -2.12859375 135.375 -2.80859375 135.375 C-3.13859375 136.365 -3.46859375 137.355 -3.80859375 138.375 C-5.93979693 139.8240969 -7.97824724 141.05136722 -10.24609375 142.25 C-11.23307251 142.77509155 -11.23307251 142.77509155 -12.23999023 143.31079102 C-31.53794769 153.09151563 -54.05775483 155.20726233 -74.80859375 149.375 C-76.36513672 148.93994141 -76.36513672 148.93994141 -77.953125 148.49609375 C-89.52202716 144.94671298 -98.61492413 139.12529487 -107.80859375 131.375 C-109.01128906 130.47974609 -109.01128906 130.47974609 -110.23828125 129.56640625 C-113.45897519 126.82049546 -115.9590166 123.76229611 -118.55859375 120.4375 C-119.29916016 119.52581055 -119.29916016 119.52581055 -120.0546875 118.59570312 C-122.68457174 115.25611039 -124.4432522 112.7507954 -124.80859375 108.375 C-125.46859375 108.375 -126.12859375 108.375 -126.80859375 108.375 C-128.95884914 104.30115431 -130.56223534 100.35158524 -131.87109375 95.9375 C-132.20882813 94.79925781 -132.5465625 93.66101563 -132.89453125 92.48828125 C-133.19617188 91.46089844 -133.4978125 90.43351562 -133.80859375 89.375 C-134.20046875 88.1375 -134.59234375 86.9 -134.99609375 85.625 C-140.11855748 65.13514507 -135.60081074 42.15620845 -124.90014648 24.09423828 C-112.16578188 4.03711559 -93.25648556 -9.78827705 -70.07397461 -15.13012695 C-45.05761536 -20.3136173 -20.79779229 -14.62535205 0 0 Z " fill="#070635" transform="translate(546.80859375,340.625)"/>
<path d="M0 0 C6.93 0 13.86 0 21 0 C22.98 2.64 24.96 5.28 27 8 C27.886875 9.051875 28.77375 10.10375 29.6875 11.1875 C31.76164407 13.71010765 33.36912494 16.18303399 35 19 C35.556875 19.70125 36.11375 20.4025 36.6875 21.125 C38 23 38 23 38 26 C38.99 26.33 39.98 26.66 41 27 C42.68359375 29.07421875 42.68359375 29.07421875 44.4375 31.6875 C45.0459375 32.58855469 45.654375 33.48960937 46.28125 34.41796875 C46.8484375 35.27003906 47.415625 36.12210938 48 37 C48.66515625 37.95326172 48.66515625 37.95326172 49.34375 38.92578125 C52 42.74888393 52 42.74888393 52 45 C52.99 45.33 53.98 45.66 55 46 C56.9375 48.58203125 56.9375 48.58203125 59 51.8125 C61.75314027 56.12294693 61.75314027 56.12294693 64.75 60.26171875 C66 62 66 62 66 64 C66.66 64 67.32 64 68 64 C70 67 70 67 70 70 C71.485 70.495 71.485 70.495 73 71 C74.9375 73.58203125 74.9375 73.58203125 77 76.8125 C79.75314027 81.12294693 79.75314027 81.12294693 82.75 85.26171875 C84 87 84 87 84 89 C84.66 89 85.32 89 86 89 C87.485 90.98 87.485 90.98 89 93 C89.33 62.31 89.66 31.62 90 0 C97.59 0 105.18 0 113 0 C113 46.2 113 92.4 113 140 C105.41 140 97.82 140 90 140 C88 137 88 137 88 134 C87.34 134 86.68 134 86 134 C84.49767154 132.02894506 83.11385501 130.06384682 81.75 128 C80.93349904 126.79085049 80.11579346 125.58251353 79.296875 124.375 C78.90048828 123.78847656 78.50410156 123.20195313 78.09570312 122.59765625 C76.7856612 120.68747035 75.40984398 118.83754946 74 117 C71.38836743 113.57585952 68.93834995 110.04842762 66.5 106.5 C63.65779143 102.36810862 60.77077543 98.28854748 57.734375 94.296875 C55.25278862 91.01044979 52.81375523 87.69327999 50.375 84.375 C49.90723145 83.74094238 49.43946289 83.10688477 48.95751953 82.45361328 C46.2002184 78.69901135 43.57509378 74.88307792 41 71 C39.39353026 68.69500583 37.76131886 66.40887132 36.125 64.125 C35.68736328 63.51293701 35.24972656 62.90087402 34.79882812 62.27026367 C31.9697646 58.3238872 29.10123268 54.41179051 26.15625 50.55078125 C25.05279211 49.07080564 24.02401129 47.53601693 23 46 C22.67 77.02 22.34 108.04 22 140 C7 140 7 140 0 139 C0 93.13 0 47.26 0 0 Z " fill="#070635" transform="translate(512,840)"/>
<path d="M0 0 C77.94064748 0 77.94064748 0 91.18359375 13.171875 C100.32066781 22.89573363 102.228593 31.49900248 102.375 44.5625 C102.43107422 46.4197168 102.43107422 46.4197168 102.48828125 48.31445312 C102.56614605 56.48593105 101.39729577 62.09525276 97 69 C96.34 70.093125 95.68 71.18625 95 72.3125 C90.98937354 77.7017793 86.89665908 80.83819439 80.98828125 83.88671875 C78.85723506 84.96175311 78.85723506 84.96175311 77 87 C77.3403125 87.4640625 77.680625 87.928125 78.03125 88.40625 C82.01128429 94.0799159 85.12093377 100.00406155 88.10742188 106.23828125 C90.12049066 110.40325115 92.38508822 114.1697067 95 118 C96.00311624 119.75737755 96.98319961 121.52814331 97.9375 123.3125 C100.21432213 127.5491184 102.53906126 131.75182075 104.921875 135.9296875 C106.12031086 138.23103172 107.05060915 140.5867578 108 143 C103.43835918 143.23248586 98.87823781 143.37448143 94.3125 143.5 C93.01892578 143.56703125 91.72535156 143.6340625 90.39257812 143.703125 C81.04586126 143.89633879 81.04586126 143.89633879 78.07543945 141.35058594 C76.76438144 139.27601943 75.85049397 137.29777801 75 135 C74.54753906 134.15953125 74.09507813 133.3190625 73.62890625 132.453125 C73.27699219 131.72609375 72.92507812 130.9990625 72.5625 130.25 C72.14226562 129.3940625 71.72203125 128.538125 71.2890625 127.65625 C70.45002485 125.92732394 69.61145847 124.19816908 68.7734375 122.46875 C64.75919474 114.29941386 60.39056836 106.34156923 55.96264648 98.38964844 C55.45161377 97.46442383 54.94058105 96.53919922 54.4140625 95.5859375 C53.9495166 94.7511084 53.4849707 93.9162793 53.00634766 93.05615234 C52 91 52 91 52 89 C42.43 89 32.86 89 23 89 C23 106.49 23 123.98 23 142 C15.41 142 7.82 142 0 142 C0 95.14 0 48.28 0 0 Z M47.31640625 22.12109375 C46.03451416 22.16419678 44.75262207 22.2072998 43.43188477 22.25170898 C41.02153931 22.34367554 41.02153931 22.34367554 38.5625 22.4375 C33.426875 22.623125 28.29125 22.80875 23 23 C23 38.18 23 53.36 23 69 C29.290625 69.061875 35.58125 69.12375 42.0625 69.1875 C44.03484619 69.21481201 46.00719238 69.24212402 48.03930664 69.27026367 C49.6212503 69.27903425 51.20320079 69.28667683 52.78515625 69.29296875 C53.59142456 69.30831665 54.39769287 69.32366455 55.22839355 69.33947754 C62.32603004 69.34273085 68.17210594 67.55249341 73.64453125 62.7109375 C77.306491 58.08863673 78.74343723 52.12580585 79.4375 46.375 C78.33862085 37.89793231 75.50729369 31.71404921 69 26 C62.49501333 21.84083817 54.78895798 21.85100152 47.31640625 22.12109375 Z " fill="#070635" transform="translate(0,836)"/>
<path d="M0 0 C7.51585029 6.70645103 13.34022615 17.02220132 15 27 C15.23016823 31.31647237 15.1888685 35.61655046 15.125 39.9375 C15.11597656 41.09830078 15.10695313 42.25910156 15.09765625 43.45507812 C15.07421162 46.30360108 15.04139522 49.15169078 15 52 C-9.67130802 52.65543784 -34.31891909 53.18104844 -59 53 C-56.99336376 62.8805904 -54.646696 70.9297754 -45.96484375 76.84375 C-40.63502654 79.98018319 -36.81792276 80.36560472 -30.6875 80.375 C-29.44323242 80.41173828 -29.44323242 80.41173828 -28.17382812 80.44921875 C-22.26651932 80.47719338 -18.79395983 79.50986344 -14 76 C-12.46875426 73.91210693 -12.46875426 73.91210693 -11.3125 71.75 C-9.33732347 69.25795485 -7.90265162 68.14408158 -4.73632812 67.63867188 C1.18361327 67.29095785 7.09088846 67.56507601 13 68 C11.4785705 77.70567097 5.5323796 85.92892861 -2 92 C-11.83207851 98.73985229 -19.45614743 100.531377 -31.3125 100.625 C-31.98618622 100.63156616 -32.65987244 100.63813232 -33.35397339 100.64489746 C-48.40871551 100.69249855 -58.83427213 96.71041094 -69.80859375 86.28125 C-80.44228515 74.6530407 -82.187091 62.989388 -82.18530273 47.77661133 C-82.18748362 45.70307706 -82.20566823 43.63008077 -82.22460938 41.55664062 C-82.31064377 22.45671807 -82.31064377 22.45671807 -76.5625 14.125 C-75.96566406 13.24070312 -75.36882812 12.35640625 -74.75390625 11.4453125 C-74.17511719 10.63835938 -73.59632812 9.83140625 -73 9 C-72.47277344 8.23429688 -71.94554688 7.46859375 -71.40234375 6.6796875 C-70.93957031 6.12539063 -70.47679688 5.57109375 -70 5 C-69.34 5 -68.68 5 -68 5 C-67.78085938 4.42378906 -67.56171875 3.84757813 -67.3359375 3.25390625 C-63.64635393 -2.97091749 -55.19196477 -7.00890954 -48.4375 -9 C-31.47662817 -12.43229206 -13.87208119 -10.88694979 0 0 Z M-38 10 C-39.10601562 10.309375 -39.10601562 10.309375 -40.234375 10.625 C-46.43953368 12.45739585 -51.01383005 14.73277735 -54.44140625 20.37109375 C-56.69364802 24.68949464 -58.032726 28.16363001 -59 33 C-41.84 33 -24.68 33 -7 33 C-8.00904517 23.91859349 -9.20358027 19.12398187 -15.9375 13.1875 C-23.86173298 7.52733358 -28.79351753 7.03520056 -38 10 Z " fill="#070635" transform="translate(188,880)"/>
<path d="M0 0 C8.57045942 7.64158014 15.37750514 16.54064906 16.24023438 28.26464844 C16.49985871 36.18319059 16.33395605 44.08609784 16 52 C-9.33763825 52.65866648 -34.65298686 53.17962885 -60 53 C-59.73380755 54.92754209 -59.45218294 56.85295722 -59.1640625 58.77734375 C-59.0088916 59.84976318 -58.8537207 60.92218262 -58.69384766 62.02709961 C-57.72231385 66.18979039 -55.93932998 67.98331923 -53 71 C-53 71.99 -53 72.98 -53 74 C-52.2575 74.268125 -51.515 74.53625 -50.75 74.8125 C-48.12063827 75.9479062 -46.25638662 77.27010359 -44 79 C-39.87306853 80.37564382 -36.00953657 80.18423809 -31.6875 80.1875 C-30.84509766 80.19974609 -30.00269531 80.21199219 -29.13476562 80.22460938 C-24.41460144 80.23568091 -20.34583756 80.07964564 -16 78 C-15.505 76.515 -15.505 76.515 -15 75 C-14.360625 74.525625 -13.72125 74.05125 -13.0625 73.5625 C-10.5987457 71.93563728 -10.5987457 71.93563728 -9 68 C-1.74 68 5.52 68 13 68 C11.3678917 77.79264981 6.1140814 86.28537931 -1.765625 92.45947266 C-11.36016241 99.0745875 -20.26046279 100.92514465 -31.75 100.625 C-32.99910156 100.63144531 -34.24820313 100.63789062 -35.53515625 100.64453125 C-42.97963545 100.55805895 -48.50553669 99.63012614 -55 96 C-56.07378906 95.50628906 -57.14757812 95.01257813 -58.25390625 94.50390625 C-67.62018076 89.3744387 -76.08265162 80.38893698 -79.31640625 70.13671875 C-84.14678073 52.49841126 -84.66133367 31.27630075 -76.31640625 14.64453125 C-72.02331079 7.50783707 -72.02331079 7.50783707 -68.90625 5.9609375 C-66.44927963 4.72238277 -66.1961453 3.42437112 -65 1 C-62.17648642 -1.26879579 -59.07250157 -3.08642446 -56 -5 C-54.7934375 -5.86625 -54.7934375 -5.86625 -53.5625 -6.75 C-37.03347435 -14.81293934 -13.96938077 -11.00189671 0 0 Z M-34 9 C-35.55644353 9.3224271 -37.12059745 9.60799418 -38.6875 9.875 C-45.75004649 11.25330323 -50.13680822 13.62489329 -55 19 C-55.721875 19.7425 -56.44375 20.485 -57.1875 21.25 C-59.72652685 24.74713101 -59.72652685 24.74713101 -61 33 C-43.18 33 -25.36 33 -7 33 C-7.94978963 24.45189331 -9.22677967 17.72747373 -16 12 C-20.10185813 9.74362982 -29.8058271 4.8058271 -34 9 Z " fill="#070635" transform="translate(1008,880)"/>
<path d="M0 0 C7.96010834 5.90230943 12.36497981 13.20815055 14.6875 22.8125 C15.36760021 28.82747865 15.15529775 34.9073334 15.078125 40.94921875 C15.07064976 42.68226972 15.06496291 44.41532923 15.06097412 46.14839172 C15.04581858 50.67438759 15.0066259 55.19985687 14.9621582 59.72564697 C14.9209859 64.35804118 14.90291656 68.99052181 14.8828125 73.62304688 C14.84011989 82.68646461 14.76985479 91.7493558 14.6875 100.8125 C6.7675 100.8125 -1.1525 100.8125 -9.3125 100.8125 C-9.8075 96.3575 -9.8075 96.3575 -10.3125 91.8125 C-10.84617187 92.27140625 -11.37984375 92.7303125 -11.9296875 93.203125 C-22.48500166 101.89573666 -32.62801066 104.46893268 -46.30078125 103.62890625 C-55.66028707 102.34478735 -63.22637522 97.93993032 -69.05859375 90.5234375 C-69.67927734 89.67652344 -69.67927734 89.67652344 -70.3125 88.8125 C-70.83585938 88.18988281 -71.35921875 87.56726563 -71.8984375 86.92578125 C-75.80238578 81.09142761 -76.10040002 71.67522337 -75.3125 64.8125 C-74.47526889 61.09093514 -73.45509477 57.45112026 -72.3125 53.8125 C-71.6525 53.8125 -70.9925 53.8125 -70.3125 53.8125 C-70.085625 53.255625 -69.85875 52.69875 -69.625 52.125 C-66.24720223 46.17364202 -60.66141392 42.15062736 -54.1796875 40.15625 C-43.77685476 37.69146733 -33.37338177 37.68347049 -22.75 37.75 C-21.34570473 37.75502634 -19.9414077 37.75958724 -18.53710938 37.76367188 C-15.12886097 37.77538407 -11.7207036 37.79178628 -8.3125 37.8125 C-8.44550548 35.88627212 -8.58633065 33.96058309 -8.73046875 32.03515625 C-8.8080542 30.96273682 -8.88563965 29.89031738 -8.96557617 28.78540039 C-9.49455954 24.25237399 -10.85194474 21.22269128 -14.125 18.0625 C-21.78164486 13.68727437 -30.88460083 13.57984161 -39.33984375 15.5 C-45.53053348 17.68174087 -46.07882702 18.34515405 -49.3125 24.8125 C-56.5725 24.8125 -63.8325 24.8125 -71.3125 24.8125 C-69.94792149 15.26045042 -66.93352904 9.42548243 -59.3984375 3.375 C-58.71007812 2.859375 -58.02171875 2.34375 -57.3125 1.8125 C-56.70664062 1.338125 -56.10078125 0.86375 -55.4765625 0.375 C-41.25541322 -9.70581468 -14.77739643 -8.85430867 0 0 Z M-49.21875 62.3203125 C-52.00658463 65.50852764 -52.61903332 68.24709923 -52.375 72.4375 C-51.60160831 76.5413532 -50.52465728 79.00186238 -47.3125 81.8125 C-40.6714659 86.0897762 -34.05799159 86.6803422 -26.3125 85.8125 C-19.54732933 83.89570164 -13.81115953 79.58498596 -9.91796875 73.70703125 C-7.85444852 69.58728238 -7.12701523 66.12538108 -7.21875 61.51953125 C-7.23228516 60.63370361 -7.24582031 59.74787598 -7.25976562 58.83520508 C-7.28586914 57.83396606 -7.28586914 57.83396606 -7.3125 56.8125 C-29.30564561 54.98404621 -29.30564561 54.98404621 -49.21875 62.3203125 Z " fill="#070635" transform="translate(711.3125,875.1875)"/>
<path d="M0 0 C0 0.66 0 1.32 0 2 C1.2375 1.938125 2.475 1.87625 3.75 1.8125 C16.1852844 1.89058656 24.92169084 6.43899375 33.9375 14.6875 C40.20937624 24.76051336 39.3390553 36.61650605 39.07421875 48.015625 C39.04612218 49.72481091 39.01943874 51.43402057 38.99409485 53.14324951 C38.92424624 57.60191988 38.83543899 62.06001016 38.74243164 66.51824951 C38.65062922 71.0835838 38.57710225 75.64921035 38.50195312 80.21484375 C38.35233567 89.14362795 38.18095998 98.07179598 38 107 C31.07 107 24.14 107 17 107 C16.67 103.7 16.34 100.4 16 97 C15.01 97.99 14.02 98.98 13 100 C12.34 100 11.68 100 11 100 C10.505 101.485 10.505 101.485 10 103 C8.36328125 104.09765625 8.36328125 104.09765625 6.3125 105.0625 C5.64863281 105.38347656 4.98476563 105.70445312 4.30078125 106.03515625 C-6.0329782 110.36866828 -20.27123607 111.34705925 -30.9375 107.3125 C-38.61038706 103.40109931 -45.09807106 97.29263371 -48.04296875 89.09765625 C-50.66667607 79.32958158 -51.04030627 70.48125205 -47 61 C-40.31914527 51.12918761 -32.3457488 47.44681671 -21 45 C-16.0540141 44.176739 -11.32825692 43.88221584 -6.31640625 43.90234375 C-5.61603745 43.9037587 -4.91566864 43.90517365 -4.19407654 43.90663147 C-1.98350534 43.91217523 0.22696004 43.92471674 2.4375 43.9375 C3.94726415 43.94252229 5.45702991 43.94708391 6.96679688 43.95117188 C10.64456493 43.96212613 14.32227212 43.9793511 18 44 C17.18927219 32.96925287 17.18927219 32.96925287 11.5 24.125 C4.07062182 19.90685488 -3.61630226 19.40738438 -11.80859375 21.296875 C-14.03313674 21.94475195 -14.03313674 21.94475195 -16.09765625 23.078125 C-18 24 -18 24 -21 24 C-21.309375 24.969375 -21.61875 25.93875 -21.9375 26.9375 C-23 30 -23 30 -24 31 C-25.63472882 31.08700342 -27.27314055 31.10701063 -28.91015625 31.09765625 C-29.89951172 31.09443359 -30.88886719 31.09121094 -31.90820312 31.08789062 C-32.94912109 31.07951172 -33.99003906 31.07113281 -35.0625 31.0625 C-36.10728516 31.05798828 -37.15207031 31.05347656 -38.22851562 31.04882812 C-40.8190666 31.03699913 -43.40950559 31.02051689 -46 31 C-44.98764409 21.70680028 -41.2498094 15.5227078 -34.0625 9.5625 C-30.19198177 6.69416953 -26.6003324 4.53344413 -22 3 C-21.17886719 2.72414063 -20.35773438 2.44828125 -19.51171875 2.1640625 C-12.89577285 0.12406787 -6.89774598 -0.36023045 0 0 Z M-24 69 C-26.50690159 72.52533036 -27.03653681 74.29362159 -26.8125 78.625 C-25.67519117 83.34920592 -25.12663216 85.14876682 -21.1875 88.125 C-14.36928326 92.13571573 -8.8285117 92.64715697 -1 92 C6.01524656 90.01234681 11.47215753 85.28619521 15.875 79.5625 C18.31775275 73.99845207 19.04390261 69.06114288 19 63 C14.68755812 62.94140092 10.37522026 62.90620314 6.0625 62.875 C4.85013672 62.85824219 3.63777344 62.84148438 2.38867188 62.82421875 C-7.33053013 62.77154015 -15.92894014 63.1888369 -24 69 Z " fill="#070635" transform="translate(255,868)"/>
<path d="M0 0 C1.38480415 1.62415302 2.72696469 3.28683432 4 5 C4.7425 5.70125 5.485 6.4025 6.25 7.125 C8 9 8 9 8 12 C8.66 12 9.32 12 10 12 C13.25711277 17.77874846 14.69343615 22.37822074 15 29 C12.62412376 28.88513575 10.24984829 28.75841844 7.875 28.625 C6.87726563 28.57859375 6.87726563 28.57859375 5.859375 28.53125 C-4.27005545 27.93540115 -4.27005545 27.93540115 -7.64453125 24.16015625 C-8.02996094 23.46792969 -8.41539062 22.77570312 -8.8125 22.0625 C-9.21082031 21.37285156 -9.60914063 20.68320312 -10.01953125 19.97265625 C-11 18 -11 18 -12 15 C-14.11785113 13.88214887 -14.11785113 13.88214887 -17 13 C-17.65355469 12.72800781 -18.30710937 12.45601562 -18.98046875 12.17578125 C-26.64072037 9.17947044 -33.22583202 9.66752296 -40.8125 12.75 C-47.04214395 15.80998356 -51.42783949 20.51625899 -54 27 C-57.32699787 40.13882209 -57.87003508 55.76347716 -51.125 67.875 C-46.94428803 73.85610139 -41.93853192 76.9023043 -35 79 C-27.11905861 80.23718116 -21.79712738 78.9546923 -15 75 C-14.01 75 -13.02 75 -12 75 C-11.731875 74.2575 -11.46375 73.515 -11.1875 72.75 C-10.0520938 70.12063827 -8.72989641 68.25638662 -7 66 C-6.505 64.515 -6.505 64.515 -6 63 C1.26 63 8.52 63 16 63 C14.875 74.25 14.875 74.25 12.4375 78.125 C11.98246094 78.87007812 11.52742188 79.61515625 11.05859375 80.3828125 C10.70925781 80.91648437 10.35992187 81.45015625 10 82 C9.34 82 8.68 82 8 82 C7.896875 82.598125 7.79375 83.19625 7.6875 83.8125 C6.90175967 86.31258286 6.03081147 87.37535082 4 89 C3.34 89 2.68 89 2 89 C1.505 90.485 1.505 90.485 1 92 C-1.26135465 93.33984531 -3.4475145 94.50311743 -5.8125 95.625 C-6.44220703 95.93695312 -7.07191406 96.24890625 -7.72070312 96.5703125 C-19.10045729 102.11092733 -34.850416 102.14541362 -46.82519531 98.2590332 C-59.25291257 93.51237805 -70.02986935 84.79946868 -75.5703125 72.51953125 C-82.0899557 55.43380192 -82.02953469 33.96784235 -75 17 C-73.4921875 14.140625 -73.4921875 14.140625 -72 12 C-71.34 12 -70.68 12 -70 12 C-69.773125 11.2575 -69.54625 10.515 -69.3125 9.75 C-67.73124115 6.43688621 -65.93160239 5.16380177 -63 3 C-62.1028125 2.0409375 -62.1028125 2.0409375 -61.1875 1.0625 C-45.01389084 -14.18690292 -17.10489564 -12.35216053 0 0 Z " fill="#070635" transform="translate(384,879)"/>
<path d="M0 0 C7.92 0 15.84 0 24 0 C29.89285714 17.41071429 29.89285714 17.41071429 31.8125 24.4375 C34.09953215 32.68234698 36.89923109 40.75356184 39.6340332 48.85864258 C42.12486284 56.2741805 44.48394024 63.70585285 46.59155273 71.23950195 C47.2979446 74.38081393 47.2979446 74.38081393 49 77 C53.41825109 65.34963957 57.00628763 53.45260656 60.5 41.5 C63.74968786 30.38224437 67.03256149 19.27921917 71.10546875 8.4296875 C72.13191275 5.64170422 73.06050875 2.81847374 74 0 C81.92 0 89.84 0 98 0 C97.26331952 4.42008287 96.63868228 6.96620508 94.8828125 10.8359375 C93.32179316 14.66250702 92.22760132 18.64009184 91.03515625 22.59375 C88.94465465 29.47268356 86.74493639 36.28960717 84 42.9375 C81.9684561 47.87694008 80.46339854 52.92973017 78.93359375 58.04296875 C77.85015237 61.47462199 76.41708459 64.69346929 75 68 C73.99186183 71.12084511 73.04726368 74.25813205 72.1015625 77.3984375 C70.95164073 81.15811079 69.74233304 84.89512288 68.5 88.625 C68.1184375 89.77226563 67.736875 90.91953125 67.34375 92.1015625 C65.62446152 97.08949826 63.80301308 102.04171402 62 107 C53.75 107 45.5 107 37 107 C35.53515625 102.60546875 34.0703125 98.2109375 32.60546875 93.81640625 C32.20618164 92.62023682 32.20618164 92.62023682 31.79882812 91.39990234 C31.2739473 89.82301404 30.7517288 88.2452366 30.23242188 86.66650391 C28.63344646 81.81870117 26.93456853 77.02298605 25.125 72.25 C24.8674292 71.56607178 24.6098584 70.88214355 24.34448242 70.17749023 C22.69120753 65.79638804 21.00651 61.42803031 19.3125 57.0625 C17.66362213 52.79852284 16.15088894 48.5211844 14.74609375 44.171875 C13.91797136 41.76121505 12.96990381 39.41954927 12 37.0625 C10.28839552 32.87134683 8.96743568 28.65152002 7.71484375 24.3046875 C6.71936165 21.09520969 5.34307461 18.07787931 4 15 C2.13222961 9.9481258 0.89314548 5.35887288 0 0 Z " fill="#070635" transform="translate(830,872)"/>
<path d="M0 0 C0 8.91 0 17.82 0 27 C7.26 27 14.52 27 22 27 C22 33.27 22 39.54 22 46 C14.74 46 7.48 46 0 46 C0.0403946 53.58930922 0.09756928 61.17814173 0.18390274 68.76706123 C0.22333303 72.29134041 0.25554282 75.81537141 0.27099609 79.33984375 C0.28910326 83.39623752 0.33907322 87.45170488 0.390625 91.5078125 C0.39185364 92.76739777 0.39308228 94.02698303 0.39434814 95.32473755 C0.49220529 103.97693755 0.49220529 103.97693755 5 111 C8.65144672 113.07096978 12.16314642 113.35141625 16.3125 113.625 C19.1278125 113.810625 19.1278125 113.810625 22 114 C22 120.27 22 126.54 22 133 C-7.39734546 133.86462781 -7.39734546 133.86462781 -15.7578125 126.60546875 C-23.93170141 117.10723895 -23.29348927 106.73243658 -23.1953125 94.58203125 C-23.19157196 93.23011995 -23.18872992 91.8782059 -23.18673706 90.52629089 C-23.17918241 87.00658384 -23.15960658 83.48704776 -23.1373291 79.96740723 C-23.11669227 76.36045645 -23.10769762 72.75347745 -23.09765625 69.14648438 C-23.07635095 62.09758053 -23.04123786 55.04881958 -23 48 C-28.61 48 -34.22 48 -40 48 C-40 41.4 -40 34.8 -40 28 C-34.72 28 -29.44 28 -24 28 C-24 19.42 -24 10.84 -24 2 C-21.15375 1.67 -18.3075 1.34 -15.375 1 C-14.04734619 0.84337891 -14.04734619 0.84337891 -12.69287109 0.68359375 C-11.97695801 0.60238281 -11.26104492 0.52117188 -10.5234375 0.4375 C-9.80075684 0.35371094 -9.07807617 0.26992188 -8.33349609 0.18359375 C-5.56355 -0.03433882 -2.77850607 0 0 0 Z " fill="#070635" transform="translate(439,844)"/>
<path d="M0 0 C7.26 0 14.52 0 22 0 C22 8.58 22 17.16 22 26 C29.59 26 37.18 26 45 26 C45 32.6 45 39.2 45 46 C37.41 46 29.82 46 22 46 C22.09723559 53.5076108 22.20015687 61.01470817 22.31738281 68.52197266 C22.35552584 71.07270653 22.39040357 73.6234915 22.421875 76.17431641 C22.46784528 79.85337514 22.5257864 83.53208651 22.5859375 87.2109375 C22.59748871 88.34050873 22.60903992 89.47007996 22.62094116 90.63388062 C22.78208925 100.46825442 22.78208925 100.46825442 25 110 C27.37470438 111.70198927 27.37470438 111.70198927 30 112 C30.99 112.495 30.99 112.495 32 113 C34.204364 113.22950319 36.41392173 113.41075933 38.625 113.5625 C40.72875 113.706875 42.8325 113.85125 45 114 C45 120.27 45 126.54 45 133 C14.08350344 133.62668574 14.08350344 133.62668574 5 125 C-0.62442582 116.55634241 -0.66798529 107.81239114 -0.48828125 98.05078125 C-0.4789334 96.5419381 -0.47182663 95.03307957 -0.46684265 93.5242157 C-0.44792727 89.58986073 -0.39896538 85.65645716 -0.34332275 81.72247314 C-0.29179184 77.69336816 -0.26925709 73.66410652 -0.24414062 69.63476562 C-0.19082665 61.75602926 -0.10302294 53.87824329 0 46 C-5.61 46 -11.22 46 -17 46 C-17 39.4 -17 32.8 -17 26 C-11.39 26 -5.78 26 0 26 C0 17.42 0 8.84 0 0 Z " fill="#070635" transform="translate(748,846)"/>
<path d="M0 0 C7.26 0 14.52 0 22 0 C22 35.31 22 70.62 22 107 C14.74 107 7.48 107 0 107 C0 71.69 0 36.38 0 0 Z " fill="#080635" transform="translate(802,872)"/>
<path d="M0 0 C3.47642225 3.65939184 4.87443927 6.30493018 5.25 11.375 C4.97686234 15.33549612 4.37912831 16.88252152 2 20 C1.34 20.9075 0.68 21.815 0 22.75 C-4.41676942 26.06257706 -8.58653411 26.11959056 -14 26 C-18.26803225 25.36769893 -20.22717244 24.08550907 -22.875 20.8125 C-25.25255405 17.10811739 -25.63138507 14.41969546 -25 10 C-23.2162804 4.98859732 -21.53961514 0.4108973 -16.75 -2.25 C-10.45756004 -3.96611999 -5.68808001 -3.11234566 0 0 Z " fill="#070635" transform="translate(823,829)"/>
</svg>
