<?xml version="1.0" standalone="no"?>
<!DOCTYPE svg PUBLIC "-//W3C//DTD SVG 20010904//EN"
 "http://www.w3.org/TR/2001/REC-SVG-20010904/DTD/svg10.dtd">
<svg version="1.0" xmlns="http://www.w3.org/2000/svg"
 width="512.000000pt" height="512.000000pt" viewBox="0 0 512.000000 512.000000"
 preserveAspectRatio="xMidYMid meet">
<metadata>
Created by potrace 1.16, written by Peter Selinger 2001-2019
</metadata>
<g transform="translate(0.000000,512.000000) scale(0.100000,-0.100000)"
fill="#000000" stroke="none">
<path d="M2475 5075 c-38 -25 -86 -54 -105 -65 -19 -11 -52 -30 -72 -42 -20
-13 -89 -54 -153 -93 -63 -38 -150 -91 -193 -117 -42 -26 -93 -56 -112 -68
-19 -11 -53 -31 -75 -45 -22 -13 -56 -34 -75 -45 -19 -11 -60 -36 -90 -56 -30
-19 -64 -39 -75 -44 -11 -6 -49 -28 -84 -50 -34 -22 -67 -40 -72 -40 -5 0 -9
-4 -9 -8 0 -4 -19 -18 -42 -30 -24 -12 -108 -62 -188 -111 -80 -49 -192 -117
-250 -151 -58 -34 -121 -72 -140 -85 -19 -12 -69 -43 -110 -68 -134 -82 -154
-94 -198 -121 l-42 -26 0 -1253 0 -1252 63 -34 c68 -38 282 -164 309 -183 9
-6 59 -35 110 -64 l93 -53 3 1253 2 1252 33 17 c17 9 64 37 102 62 39 25 90
57 115 70 58 33 170 100 190 115 8 6 32 21 52 33 41 24 234 142 258 157 34 22
150 92 215 130 39 23 90 54 115 70 25 16 77 47 115 70 39 22 124 74 190 115
210 130 206 128 235 113 14 -7 46 -27 73 -45 26 -17 56 -35 67 -38 11 -4 20
-11 20 -16 0 -5 4 -9 9 -9 5 0 38 -18 72 -40 35 -21 93 -56 127 -77 35 -21 86
-51 112 -68 27 -16 80 -48 117 -69 37 -22 70 -42 73 -46 3 -3 25 -18 50 -32
25 -13 86 -50 137 -81 50 -32 94 -57 97 -57 4 0 12 -5 19 -10 20 -17 86 -59
125 -80 20 -11 69 -40 107 -65 39 -24 103 -64 143 -87 90 -53 92 -54 170 -102
l62 -39 -2 -1242 c-3 -1109 -1 -1243 12 -1240 13 2 92 47 161 90 9 5 34 20 55
33 22 12 60 35 85 50 26 15 94 54 153 87 l106 60 -3 1254 -2 1254 -60 38 c-33
21 -80 50 -105 64 -25 14 -76 45 -115 69 -38 25 -104 64 -145 87 -41 23 -77
45 -80 49 -3 3 -34 23 -70 43 -36 21 -119 71 -185 112 -66 41 -151 92 -190
115 -99 58 -148 88 -165 100 -17 12 -104 65 -215 130 -38 22 -124 74 -190 115
-66 41 -151 92 -190 115 -38 22 -124 74 -190 115 -166 102 -260 155 -276 155
-8 -1 -45 -21 -84 -45z m136 7 c13 -10 53 -35 89 -56 36 -20 85 -50 110 -66
25 -16 77 -47 115 -70 39 -23 106 -63 150 -90 44 -27 99 -59 123 -72 23 -12
42 -26 42 -30 0 -4 4 -8 9 -8 5 0 38 -18 72 -40 35 -21 96 -58 134 -80 39 -22
124 -74 190 -115 66 -41 152 -93 190 -115 39 -23 106 -63 150 -90 44 -27 96
-59 115 -70 19 -11 71 -43 115 -70 44 -27 112 -67 150 -90 39 -23 90 -54 115
-70 25 -16 70 -43 100 -61 30 -17 74 -43 97 -58 l42 -26 1 -1245 0 -1245 -33
-19 c-68 -39 -95 -55 -177 -104 -47 -28 -134 -79 -195 -113 -60 -34 -111 -66
-113 -71 -19 -47 -22 125 -22 1232 0 820 3 1240 10 1240 7 0 10 -415 10 -1225
0 -674 2 -1225 5 -1225 6 0 103 56 245 140 63 38 148 87 188 110 l72 41 0
1239 0 1238 -105 64 c-58 35 -140 84 -182 110 -43 26 -94 57 -113 68 -19 11
-71 43 -115 70 -44 27 -111 67 -150 90 -38 23 -90 54 -115 70 -25 16 -76 47
-115 70 -73 43 -147 87 -340 205 -64 39 -149 90 -190 115 -41 25 -126 77 -190
115 -121 73 -190 115 -380 229 -64 38 -118 73 -121 78 -15 23 -43 11 -197 -87
-18 -11 -114 -70 -214 -130 -101 -61 -236 -142 -300 -182 -65 -40 -149 -91
-188 -113 -38 -23 -124 -74 -190 -115 -66 -41 -151 -93 -190 -115 -38 -23
-124 -74 -190 -115 -66 -41 -151 -93 -190 -115 -38 -23 -124 -74 -190 -115
-66 -40 -166 -101 -222 -135 l-103 -62 0 -1238 0 -1239 73 -41 c39 -23 124
-72 187 -110 63 -38 147 -86 185 -108 l70 -40 5 1232 5 1231 3 -1242 c2 -1110
-1 -1280 -20 -1235 -2 4 -52 36 -113 71 -60 34 -148 85 -195 113 -83 49 -110
65 -177 104 l-33 19 0 1245 1 1245 42 26 c23 15 67 41 97 58 30 18 75 45 100
61 25 16 77 47 115 70 39 23 106 63 150 90 44 27 96 59 115 70 38 23 128 77
305 185 113 69 208 126 333 202 35 21 86 52 113 68 118 73 315 190 324 194 5
2 12 7 15 11 3 3 52 34 110 69 58 34 134 80 169 102 34 21 65 39 67 39 2 0 20
11 40 25 44 30 73 32 105 7z m10 -641 c24 -15 114 -70 199 -122 85 -51 193
-117 240 -146 47 -29 105 -64 130 -78 25 -14 76 -45 113 -68 37 -23 152 -93
255 -155 103 -63 241 -147 307 -188 66 -40 149 -90 184 -110 79 -45 137 -84
125 -84 -5 0 -56 29 -114 65 -58 35 -136 83 -175 105 -38 23 -90 54 -115 70
-25 16 -54 34 -65 40 -11 5 -45 25 -75 44 -30 19 -86 53 -125 76 -38 23 -90
54 -115 70 -25 16 -76 47 -115 70 -38 23 -101 61 -140 85 -38 24 -90 56 -115
70 -25 14 -76 45 -115 70 -38 24 -88 54 -109 66 -38 20 -102 61 -189 117 -43
28 -38 30 -152 -43 -38 -24 -90 -56 -115 -70 -25 -14 -76 -46 -115 -70 -38
-25 -90 -56 -115 -70 -25 -14 -76 -46 -115 -70 -38 -24 -101 -62 -140 -85 -38
-23 -90 -54 -115 -70 -25 -16 -76 -47 -115 -70 -38 -23 -95 -57 -125 -76 -30
-19 -64 -39 -75 -44 -11 -6 -40 -24 -65 -40 -25 -16 -74 -45 -110 -66 -36 -21
-67 -40 -70 -44 -3 -4 -21 -15 -40 -25 -19 -9 -42 -23 -50 -30 -8 -6 -42 -26
-75 -44 -33 -18 -51 -25 -40 -16 19 15 53 36 250 155 146 88 302 183 420 256
66 40 147 90 180 109 33 20 114 69 180 110 66 40 170 104 230 140 61 37 157
95 215 131 58 35 110 64 116 64 6 0 30 -13 55 -29z"/>
<path d="M2240 3571 c-14 -10 -43 -29 -65 -43 -78 -48 -130 -81 -157 -100 -15
-10 -32 -18 -37 -18 -5 0 -16 -6 -23 -13 -7 -8 -32 -25 -55 -38 -114 -67 -159
-94 -168 -102 -10 -8 -29 -20 -152 -92 l-63 -36 0 -1252 0 -1253 43 -22 c23
-12 74 -42 112 -66 66 -42 135 -85 230 -141 22 -13 45 -27 50 -32 6 -4 28 -17
50 -28 22 -11 42 -23 45 -26 3 -3 16 -12 29 -19 14 -7 30 -17 35 -22 6 -5 67
-43 136 -85 69 -41 141 -86 160 -98 152 -96 154 -97 231 -45 24 16 50 30 57
30 6 0 12 4 12 8 0 5 12 14 28 21 15 7 50 27 77 45 28 18 66 41 85 52 19 10
37 22 40 25 3 4 23 16 45 28 22 12 69 40 105 62 36 23 117 73 180 112 63 38
135 83 160 98 25 15 75 45 112 66 l68 38 0 1256 c0 1188 -1 1257 -17 1263 -10
3 -72 39 -138 81 -66 41 -140 86 -165 100 -25 13 -106 63 -180 110 -74 46
-153 94 -175 106 -22 12 -42 25 -45 29 -3 4 -15 10 -27 14 l-23 7 -2 -1462 -3
-1463 -95 -58 c-162 -98 -183 -109 -189 -100 -3 4 -26 20 -51 34 -64 36 -150
89 -188 116 l-32 23 3 1455 c1 965 -1 1454 -8 1453 -5 0 -21 -8 -35 -18z m20
-1456 l-5 -1450 -5 1437 -5 1436 -55 -34 c-30 -18 -71 -43 -90 -54 -48 -28
-242 -147 -260 -160 -8 -6 -75 -47 -147 -92 l-133 -81 0 -1242 0 -1241 33 -17
c17 -9 86 -51 152 -92 66 -41 136 -84 155 -95 19 -11 67 -40 105 -64 39 -24
117 -73 175 -107 58 -35 116 -70 130 -80 87 -58 244 -149 256 -149 8 0 27 8
42 18 66 45 93 62 192 121 58 34 152 92 210 127 58 36 139 85 180 110 41 25
111 68 155 95 44 27 115 70 158 96 l77 46 0 1238 0 1238 -62 36 c-35 20 -117
69 -183 110 -193 118 -223 137 -352 214 -68 41 -123 78 -123 83 0 4 17 -3 38
-17 20 -14 57 -36 82 -50 25 -14 77 -45 115 -70 39 -24 90 -56 115 -70 25 -14
75 -45 112 -68 38 -23 115 -70 173 -105 l105 -64 0 -1239 0 -1239 -37 -20
c-21 -11 -67 -38 -102 -60 -34 -22 -67 -40 -71 -40 -5 0 -10 -3 -12 -7 -1 -5
-41 -31 -88 -60 -47 -28 -114 -69 -150 -91 -36 -23 -114 -70 -175 -107 -60
-36 -164 -100 -230 -141 -66 -40 -130 -79 -142 -85 -24 -13 -64 -6 -85 14 -7
7 -42 30 -78 50 -36 21 -85 51 -110 67 -25 16 -76 47 -115 70 -38 23 -89 53
-112 68 -24 15 -95 59 -158 97 -64 39 -146 89 -183 112 -37 23 -83 52 -102 63
-19 12 -51 31 -70 43 l-35 22 3 1245 2 1245 66 40 c108 66 226 139 264 165 14
9 54 33 90 54 36 20 85 50 110 66 25 16 68 42 95 58 28 17 59 37 70 45 11 9
20 15 20 14 0 -1 -2 -654 -5 -1452z"/>
</g>
</svg>
