<?xml version="1.0" encoding="UTF-8"?>
<svg version="1.1" xmlns="http://www.w3.org/2000/svg" width="1024" height="1024">
<path d="M0 0 C13.18349688 11.50937153 23.69630357 25.48859671 29.71484375 42.0234375 C30.00831192 42.82587387 30.30178009 43.62831024 30.60414124 44.45506287 C35.49225802 58.01087486 39.89112316 71.74228672 44.37110901 85.43693542 C45.17004356 87.87786426 45.97035805 90.31833647 46.77111816 92.75866699 C53.561676 113.45388772 60.28931523 134.16786155 66.89157104 154.92404175 C72.73265797 173.28664954 78.71109014 191.60281608 84.72265625 209.91015625 C84.94971756 210.60165268 85.17677887 211.29314911 85.41072083 212.00559998 C88.17829698 220.43312845 90.94892578 228.85965117 93.72265625 237.28515625 C101.23665297 214.86519328 108.6419026 192.41297651 115.91394043 169.91339111 C118.24946365 162.68746253 120.59061103 155.46335489 122.93128586 148.23909378 C123.45487593 146.62303837 123.97841796 145.00696738 124.50191116 143.39088058 C130.95393396 123.47272011 137.43643772 103.56468346 143.97663879 83.67527771 C145.77058524 78.21250053 147.54233305 72.74323718 149.29321289 67.26651001 C161.94392069 27.72269104 161.94392069 27.72269104 175.72265625 12.28515625 C176.73392578 11.06119141 176.73392578 11.06119141 177.765625 9.8125 C193.62080217 -8.87292738 217.47586449 -21.41041372 241.72265625 -24.71484375 C242.50253906 -24.82441406 243.28242187 -24.93398437 244.0859375 -25.046875 C272.23351609 -28.41381024 301.00241485 -21.04798262 323.59765625 -3.83984375 C347.43471032 15.09712709 361.59529381 40.47515189 365.41015625 70.6875 C366.7917526 86.59312803 364.8378897 101.02444418 360.28515625 116.26171875 C359.9348938 117.43790268 359.58463135 118.61408661 359.22375488 119.82591248 C355.0508726 133.70192832 350.49483874 147.45037321 345.93347168 161.20245361 C343.7192811 167.88476138 341.51882667 174.57161851 339.31640625 181.2578125 C339.07328705 181.99548481 338.83016785 182.73315712 338.5796814 183.49318314 C334.21713551 196.73290366 329.94492057 210.00000819 325.72265625 223.28515625 C319.27692261 243.55539183 312.65739403 263.76584521 306.003582 283.96844101 C299.8501273 302.65306728 293.74618734 321.35050981 287.78515625 340.09765625 C281.14854363 360.96896988 274.32238579 381.77537171 267.46779251 402.57580948 C261.13742494 421.78670571 254.8505801 441.00846785 248.72265625 460.28515625 C242.10957662 481.08800537 235.30642496 501.82573539 228.47383881 522.55722427 C221.84578622 542.66892978 215.27777455 562.79656476 208.84765625 582.97265625 C208.19687394 585.01071765 207.54591783 587.04872356 206.89477539 589.08666992 C206.58525436 590.05555649 206.27573334 591.02444305 205.95683289 592.02268982 C205.36008608 593.89066191 204.76333533 595.75863274 204.1665802 597.62660217 C202.87254616 601.67863335 201.58045546 605.73124132 200.29541016 609.78613281 C190.14641905 641.76648733 173.43225282 669.2507823 142.8359375 685.28125 C126.2018676 693.58840958 108.58824332 697.47388282 90.02351284 697.40096664 C89.08425114 697.4013309 88.14498944 697.40169516 87.17726526 697.40207046 C84.03615862 697.40204991 80.89511082 697.39483786 77.75401306 697.38763428 C75.47663429 697.38608746 73.19925519 697.38497642 70.92187601 697.38426328 C64.6680189 697.38099146 58.4141853 697.37136343 52.16033709 697.36065602 C46.10677299 697.35125529 40.05320629 697.34658879 33.99963731 697.34169825 C17.78757208 697.32830901 1.57552661 697.30465629 -14.6365245 697.2798922 C-22.30967822 697.26824722 -29.98283353 697.25790738 -37.65598932 697.24773091 C-63.93542275 697.21285847 -90.21485193 697.17589852 -116.49427128 697.13157272 C-118.14300657 697.12879684 -119.79174187 697.12602104 -121.44047716 697.12324531 C-123.09312967 697.12046102 -124.74578219 697.11767651 -126.3984347 697.11489177 C-129.71378393 697.1093056 -133.02913318 697.10372367 -136.34448242 697.09814453 C-137.57749725 697.09606635 -137.57749725 697.09606635 -138.83542148 697.09394619 C-165.48493133 697.04911312 -192.1344364 697.01651656 -218.78397158 696.99129964 C-246.97691529 696.96457773 -275.16982414 696.92705602 -303.36273664 696.87712502 C-306.45952595 696.87168015 -309.55631534 696.86627856 -312.65310478 696.86090851 C-313.41558973 696.85958113 -314.17807467 696.85825374 -314.96366522 696.85688614 C-327.21613949 696.83580574 -339.46860404 696.8244775 -351.72109312 696.81665621 C-364.04370361 696.80853825 -376.36625888 696.78933177 -388.68883503 696.75900379 C-395.3600948 696.7428734 -402.03129122 696.7318094 -408.70257759 696.73360634 C-414.81631332 696.73513602 -420.9298627 696.72281157 -427.04355352 696.69970801 C-429.2487957 696.69376737 -431.45405839 696.69279227 -433.65930367 696.6974394 C-466.32216766 696.75809803 -493.91802173 687.72491231 -517.58984375 664.34765625 C-522.81539161 659.04206103 -527.49104566 653.73355467 -531.27734375 647.28515625 C-531.63135254 646.68364746 -531.98536133 646.08213867 -532.35009766 645.46240234 C-547.26133287 619.75660724 -552.24143858 589.47816754 -544.53759766 560.41796875 C-536.18164286 531.76898089 -517.71379526 508.68239833 -491.71923828 494.05273438 C-470.98472715 482.93497283 -449.40306859 481.14941093 -426.32373047 481.07983398 C-424.30257472 481.0702433 -422.28142093 481.06023253 -420.26026917 481.04983521 C-414.79617214 481.02290904 -409.3320666 481.0018333 -403.86794043 480.98183322 C-398.14909676 480.95989746 -392.43027901 480.93254605 -386.7114563 480.90577698 C-375.89222553 480.85595239 -365.0729803 480.81097577 -354.25372136 480.76775461 C-341.93206224 480.71829454 -329.61042915 480.66340905 -317.28879523 480.60807502 C-291.95166904 480.49441216 -266.61451786 480.38753921 -241.27734375 480.28515625 C-242.2337677 479.60230057 -243.19019165 478.91944489 -244.17559814 478.21589661 C-245.44551929 477.30905619 -246.71543691 476.40221084 -247.98535156 475.49536133 C-248.61394073 475.04658882 -249.24252991 474.59781631 -249.89016724 474.13544464 C-254.61320051 470.76249689 -259.32550809 467.37510012 -264.02734375 463.97265625 C-265.56507234 462.86063307 -267.10283371 461.74865521 -268.640625 460.63671875 C-269.40842285 460.08145508 -270.1762207 459.52619141 -270.96728516 458.95410156 C-273.22915204 457.31997326 -275.49310683 455.68878495 -277.7578125 454.05859375 C-286.26726434 447.93018428 -294.7347406 441.74896127 -303.16943359 435.51806641 C-311.49237124 429.37595991 -319.8816659 423.32724942 -328.27734375 417.28515625 C-338.28284773 410.08452417 -348.25422853 402.84264839 -358.16943359 395.51806641 C-363.53808924 391.55614141 -368.92873815 387.62638664 -374.33984375 383.72265625 C-375.44235474 382.92625732 -375.44235474 382.92625732 -376.56713867 382.11376953 C-380.3507516 379.38385774 -384.14350098 376.66776758 -387.94921875 373.96875 C-416.74549044 353.4869797 -437.11545009 330.65899596 -444.27734375 295.28515625 C-448.70569862 266.97731816 -442.61003637 237.94834982 -426.234375 214.33984375 C-424.32446249 211.90765976 -422.33897815 209.58956999 -420.27734375 207.28515625 C-419.56835938 206.44597656 -418.859375 205.60679687 -418.12890625 204.7421875 C-400.30927586 184.07766874 -374.32086628 171.70090683 -347.27734375 169.28515625 C-317.34522851 167.52728214 -292.22246842 176.10747818 -268.2109375 193.86230469 C-265.43973011 195.90152144 -262.64291882 197.90454774 -259.84838867 199.91162109 C-251.98340456 205.56529576 -244.17706467 211.29628747 -236.38623047 217.05151367 C-228.80132227 222.6490114 -221.16179067 228.16900481 -213.51123047 233.67626953 C-209.01211206 236.9166182 -204.51910256 240.16543327 -200.02490234 243.41259766 C-196.28939875 246.11113647 -192.55252895 248.80773578 -188.8125 251.5 C-180.29813694 257.63272304 -171.82518173 263.81748414 -163.38525391 270.05224609 C-155.81242551 275.64079192 -148.18493304 281.15168977 -140.54638672 286.64990234 C-138.19534848 288.3442486 -135.8472915 290.04265497 -133.5 291.7421875 C-132.31386108 292.60058228 -132.31386108 292.60058228 -131.10375977 293.47631836 C-129.61559326 294.55343919 -128.12776719 295.63103061 -126.64038086 296.70922852 C-121.22581439 300.62521672 -115.75998739 304.4651654 -110.27734375 308.28515625 C-110.54659668 307.48263428 -110.81584961 306.6801123 -111.09326172 305.85327148 C-124.4269919 266.07071206 -137.48663363 226.1977178 -150.20874023 186.21533203 C-153.80349455 174.93204955 -157.45548664 163.66963081 -161.171875 152.42578125 C-161.7881929 150.55774841 -161.7881929 150.55774841 -162.41696167 148.65197754 C-164.41160022 142.60740362 -166.41322582 136.5653245 -168.42773438 130.52734375 C-179.11388103 98.30516456 -183.07536074 66.32353669 -167.40234375 34.91015625 C-166.06979695 32.34376981 -164.68975076 29.8083589 -163.27734375 27.28515625 C-162.72175781 26.28742188 -162.16617187 25.2896875 -161.59375 24.26171875 C-146.9089129 -0.31865606 -121.71076408 -16.31863445 -94.38964844 -23.22607422 C-61.17100238 -30.91258941 -25.967516 -21.88462114 0 0 Z " fill="#4285F3" transform="translate(602.27734375,175.71484375)"/>
<path d="M0 0 C2.77120739 2.03921675 5.56801868 4.04224306 8.36254883 6.04931641 C16.22753294 11.70299107 24.03387283 17.43398278 31.82470703 23.18920898 C39.40961523 28.78670672 47.04914683 34.30670012 54.69970703 39.81396484 C59.19882544 43.05431351 63.69183494 46.30312858 68.18603516 49.55029297 C71.92153875 52.24883178 75.65840855 54.94543109 79.3984375 57.63769531 C87.91280056 63.77041835 96.38575577 69.95517946 104.82568359 76.18994141 C112.40013971 81.77968845 120.02897609 87.29228616 127.66894531 92.79199219 C130.00564292 94.47473691 132.34096442 96.15937333 134.67578125 97.84472656 C135.45590576 98.40708008 136.23603027 98.96943359 137.03979492 99.54882812 C138.57998947 100.66304573 140.11669228 101.78210784 141.6496582 102.90625 C144.81373313 105.22028018 147.93814339 107.42559931 151.296875 109.45410156 C159.300733 114.39288269 161.62448777 120.41971295 164.20800781 129.04394531 C164.98955908 131.60633949 165.84021149 134.13807446 166.70703125 136.67285156 C169.20353284 143.99047678 171.60805483 151.32778396 173.86328125 158.72363281 C175.93619311 165.49716839 178.17051461 172.21085233 180.43359375 178.92285156 C181.19556052 181.18274617 181.95598184 183.44316246 182.71484375 185.70410156 C183.04548828 186.68443359 183.37613281 187.66476562 183.71679688 188.67480469 C184.77259398 191.92693094 185.78371363 195.18727113 186.78222656 198.45727539 C188.95178529 205.53369302 191.25134422 212.56347614 193.57421875 219.59082031 C194.01767261 220.93611447 194.46096138 222.28146305 194.90409851 223.62686157 C195.84239116 226.47532868 196.78119574 229.32362618 197.72042847 232.17178345 C205.17987042 254.79606238 212.57824759 277.4367966 219.79434204 300.14007568 C224.03283645 313.46541322 228.34399171 326.76543891 232.71484375 340.04785156 C232.9679941 340.8172727 233.22114445 341.58669384 233.48196602 342.37943077 C236.00408116 350.04355182 238.53014769 357.70635446 241.0638628 365.36664867 C247.73899513 385.55372333 254.21913788 405.78903343 260.36035156 426.14599609 C264.56823772 439.97382216 271.29732492 452.62873648 280.93359375 463.42285156 C281.96226562 464.66421875 281.96226562 464.66421875 283.01171875 465.93066406 C299.42380871 485.23553246 324.92506507 497.44385294 349.93359375 500.42285156 C370.54345108 502.01586624 391.87642094 498.84560857 410.33984375 489.16894531 C411.52578125 488.59273437 412.71171875 488.01652344 413.93359375 487.42285156 C414.59359375 487.75285156 415.25359375 488.08285156 415.93359375 488.42285156 C392.86864942 500.93317803 371.17724401 503.74265541 345.24342346 503.64558411 C342.96086637 503.64447223 340.67830871 503.64423884 338.39575142 503.64480227 C332.15542644 503.64377074 325.91518367 503.63018023 319.67488086 503.61441696 C313.62595495 503.60110104 307.57702735 503.59730421 301.52809003 503.59314102 C287.63845102 503.58314874 273.7488557 503.55952798 259.85924263 503.53165362 C249.13176603 503.51020239 238.40428892 503.49243217 227.67680168 503.47723961 C226.13324325 503.47503851 224.58968481 503.47283632 223.04612638 503.47063303 C220.71988578 503.46731601 218.39364517 503.46400074 216.06740456 503.46069367 C194.45288519 503.42987595 172.83837556 503.39494668 151.22387791 503.35139942 C150.40984992 503.34976019 149.59582193 503.34812095 148.75712642 503.34643204 C144.63170441 503.33811078 140.50628247 503.32974837 136.38086057 503.32136909 C135.56159919 503.31970506 134.74233781 503.31804103 133.89825033 503.31632658 C132.24150778 503.3129608 130.58476524 503.30959318 128.92802269 503.30622373 C103.14660421 503.25388468 77.36519573 503.21481259 51.58374023 503.1862793 C22.59052786 503.15416619 -6.40264565 503.1121404 -35.39582115 503.05549067 C-38.48914685 503.04947914 -41.58247261 503.04350058 -44.67579842 503.03754234 C-45.43740436 503.03606846 -46.1990103 503.03459458 -46.98369521 503.03307603 C-58.46241346 503.01106185 -69.94112476 502.99674998 -81.41985893 502.98636818 C-94.47826777 502.97454433 -107.53661131 502.9522688 -120.59497672 502.9162123 C-127.25412423 502.89810401 -133.91321015 502.88501566 -140.5723896 502.8847599 C-146.67478748 502.88439838 -152.77699445 502.87018654 -158.8793397 502.84519061 C-161.08036325 502.83855903 -163.28140883 502.83688124 -165.48243885 502.8408135 C-198.13044406 502.89090704 -225.71886697 493.8509715 -249.37890625 470.48535156 C-254.60445411 465.17975635 -259.28010816 459.87124998 -263.06640625 453.42285156 C-263.42041504 452.82134277 -263.77442383 452.21983398 -264.13916016 451.60009766 C-279.05039537 425.89430255 -284.03050108 395.61586285 -276.32666016 366.55566406 C-267.97070536 337.9066762 -249.50285776 314.82009364 -223.50830078 300.19042969 C-202.77378965 289.07266815 -181.19213109 287.28710624 -158.11279297 287.2175293 C-156.09163722 287.20793861 -154.07048343 287.19792785 -152.04933167 287.18753052 C-146.58523464 287.16060436 -141.1211291 287.13952861 -135.65700293 287.11952853 C-129.93815926 287.09759277 -124.21934151 287.07024137 -118.5005188 287.04347229 C-107.68128803 286.9936477 -96.8620428 286.94867108 -86.04278386 286.90544993 C-73.72112474 286.85598985 -61.39949165 286.80110436 -49.07785773 286.74577034 C-23.74073154 286.63210748 1.59641964 286.52523452 26.93359375 286.42285156 C25.9771698 285.73999588 25.02074585 285.0571402 24.03533936 284.35359192 C22.76541821 283.44675151 21.49550059 282.53990615 20.22558594 281.63305664 C19.59699677 281.18428413 18.96840759 280.73551163 18.32077026 280.27313995 C13.59773699 276.9001922 8.88542941 273.51279543 4.18359375 270.11035156 C2.64586516 268.99832838 1.10810379 267.88635053 -0.4296875 266.77441406 C-1.19748535 266.21915039 -1.9652832 265.66388672 -2.75634766 265.09179688 C-5.01821454 263.45766857 -7.28216933 261.82648026 -9.546875 260.19628906 C-18.05632684 254.06787959 -26.5238031 247.88665659 -34.95849609 241.65576172 C-43.28143374 235.51365523 -51.6707284 229.46494473 -60.06640625 223.42285156 C-70.07191023 216.22221948 -80.04329103 208.9803437 -89.95849609 201.65576172 C-95.32715174 197.69383673 -100.71780065 193.76408195 -106.12890625 189.86035156 C-106.86391357 189.32941895 -107.5989209 188.79848633 -108.35620117 188.25146484 C-112.1398141 185.52155305 -115.93256348 182.80546289 -119.73828125 180.10644531 C-148.53455294 159.62467501 -168.90451259 136.79669127 -176.06640625 101.42285156 C-180.49476112 73.11501347 -174.39909887 44.08604513 -158.0234375 20.47753906 C-156.11352499 18.04535507 -154.12804065 15.7272653 -152.06640625 13.42285156 C-151.35742188 12.58367187 -150.6484375 11.74449219 -149.91796875 10.87988281 C-110.84200514 -34.43452411 -45.62814799 -33.73878385 0 0 Z " fill="#FABB04" transform="translate(334.06640625,369.5771484375)"/>
<path d="M0 0 C2.02312947 -0.01938588 4.04625667 -0.03900997 6.06938171 -0.05885315 C24.49270897 -0.23178584 42.91681473 -0.32576107 61.34077549 -0.39992237 C74.93744718 -0.45581373 88.53269708 -0.55059819 102.12871605 -0.6955803 C111.715484 -0.79434129 121.30186247 -0.84670686 130.88911575 -0.86577719 C136.60296894 -0.87849531 142.31497247 -0.91149491 148.02826118 -0.99537086 C153.40937978 -1.07355163 158.78776333 -1.09379106 164.16937447 -1.07163048 C166.13130624 -1.07331954 168.09335417 -1.09517417 170.05477524 -1.13996887 C184.2424944 -1.44711483 192.53093418 1.72586925 203.38423431 10.91604006 C205.49244787 12.68238814 207.71021521 14.2623562 209.97045898 15.82739258 C211.2864152 16.77673343 212.60154154 17.72722587 213.91577148 18.67895508 C214.64860352 19.20875977 215.38143555 19.73856445 216.13647461 20.28442383 C222.42939465 24.84265429 228.68263542 29.45396725 234.93261719 34.07080078 C243.25553935 40.21311904 251.64500233 46.2617962 260.04077148 52.30395508 C270.04627546 59.50458716 280.01765626 66.74646294 289.93286133 74.07104492 C297.51745988 79.66827681 305.15665478 85.18804135 312.80688477 90.69506836 C317.30600317 93.93541702 321.79901267 97.1842321 326.29321289 100.43139648 C330.02871648 103.1299353 333.76558629 105.82653461 337.50561523 108.51879883 C346.01997829 114.65152187 354.49293351 120.83628297 362.93286133 127.07104492 C371.25579898 133.21315142 379.64509364 139.26186191 388.04077148 145.30395508 C398.14228224 152.57368007 408.20778047 159.88683474 418.21630859 167.28417969 C423.34090581 171.06655768 428.49539236 174.80078166 433.69848633 178.47436523 C437.02876353 180.83503161 440.30939013 183.25021481 443.56420898 185.71411133 C462.35282527 199.90053784 480.66837979 210.14074781 504.04077148 214.30395508 C504.04077148 214.63395508 504.04077148 214.96395508 504.04077148 215.30395508 C453.64270712 215.35532983 403.24464093 215.40308912 352.84655762 215.4309845 C351.72701503 215.43160575 351.72701503 215.43160575 350.58485543 215.43223956 C334.36291435 215.44121908 318.140973 215.44952952 301.91903123 215.45715107 C293.96335474 215.46089295 286.00767833 215.46478263 278.05200195 215.46875 C277.26033263 215.46914228 276.4686633 215.46953455 275.653004 215.46993872 C250.01036903 215.48271404 224.36775394 215.50524145 198.72513101 215.53284674 C172.36560267 215.56117215 146.00608532 215.57961782 119.64654202 215.58570005 C115.92017899 215.58656446 112.19381599 215.58754137 108.467453 215.58858681 C107.73407887 215.58878908 107.00070473 215.58899135 106.24510713 215.58919974 C94.45796694 215.59273963 82.67086084 215.60663956 70.88373452 215.62445118 C59.02269417 215.64215205 47.16168747 215.64884924 35.30063438 215.64445921 C28.87851805 215.64253941 22.45650142 215.64546462 16.03440285 215.6615715 C10.14793429 215.6762268 4.26163202 215.67687091 -1.62484437 215.66665176 C-3.7475948 215.66538971 -5.87035583 215.66914725 -7.99308556 215.67860463 C-40.37003347 215.81439507 -67.85300587 206.49376126 -91.27172852 183.36645508 C-96.49727637 178.06085986 -101.17293042 172.7523535 -104.95922852 166.30395508 C-105.3132373 165.70244629 -105.66724609 165.1009375 -106.03198242 164.48120117 C-120.94321764 138.77540606 -125.92332335 108.49696637 -118.21948242 79.43676758 C-109.86352763 50.78777972 -91.39568003 27.70119716 -65.40112305 13.0715332 C-44.68088977 1.96142739 -23.06276114 0.18478465 0 0 Z " fill="#EA4335" transform="translate(175.959228515625,656.696044921875)"/>
<path d="M0 0 C13.18349688 11.50937153 23.69630357 25.48859671 29.71484375 42.0234375 C30.00831192 42.82587387 30.30178009 43.62831024 30.60414124 44.45506287 C35.49225802 58.01087486 39.89112316 71.74228672 44.37110901 85.43693542 C45.17004356 87.87786426 45.97035805 90.31833647 46.77111816 92.75866699 C53.87829651 114.41883515 60.92652151 136.09674539 67.80810547 157.82983398 C71.27185716 168.74860068 74.82420613 179.63341577 78.46683884 190.49357605 C79.17654558 192.6117166 79.88407057 194.73057202 80.59072876 196.84973145 C80.82301241 197.54628845 81.05529606 198.24284546 81.29461861 198.96051025 C81.76250106 200.36383619 82.2302785 201.76719713 82.69795036 203.17059326 C84.0678554 207.27679662 85.45245572 211.37766511 86.84814167 215.47517204 C87.5020291 217.40322039 88.14833537 219.33361589 88.79142761 221.26528931 C89.57980189 223.63269666 90.38027114 225.99612414 91.19502258 228.35458374 C94.53554418 238.49863094 93.0408952 245.08451578 89.6875 255.02734375 C89.3777977 255.96610352 89.0680954 256.90486328 88.74900818 257.87207031 C88.07816299 259.90320737 87.40404122 261.93326459 86.72698975 263.96234131 C84.87870264 269.50254993 83.05472782 275.05078258 81.2265625 280.59765625 C80.84830322 281.74297821 80.47004395 282.88830017 80.08032227 284.06832886 C76.66793887 294.41277694 73.3491605 304.78578032 70.04949951 315.16662598 C63.33350734 336.28830291 56.46111846 357.35665177 49.53515625 378.41015625 C49.29849243 379.12960419 49.06182861 379.84905212 48.81799316 380.59030151 C47.64061701 384.16936606 46.4631075 387.74838672 45.28555298 391.32739258 C45.05713337 392.02164337 44.82871376 392.71589417 44.59337234 393.43118286 C44.136627 394.81935399 43.67985783 396.20751729 43.22306442 397.59567261 C39.16000518 409.9435924 35.11711332 422.2979704 31.09765625 434.66015625 C30.71318832 435.84064545 30.71318832 435.84064545 30.32095337 437.04498291 C29.60733813 439.23664423 28.89518482 441.4287745 28.18359375 443.62109375 C27.79993652 444.8023584 27.4162793 445.98362305 27.02099609 447.20068359 C25.94054271 450.56535635 24.90821954 453.94383106 23.87646484 457.32373047 C21.82361354 464.01120978 19.6615369 470.66065373 17.46994781 477.30364227 C16.77734559 479.40306981 16.08635016 481.5030209 15.39569092 483.60308838 C13.92273311 488.08090159 12.44778184 492.5580568 10.97265625 497.03515625 C7.21260962 508.44853598 3.45707126 519.86335992 -0.27734375 531.28515625 C-0.68073975 532.51886963 -1.08413574 533.75258301 -1.49975586 535.02368164 C-2.60272596 538.40604581 -3.69926548 541.79041079 -4.79296875 545.17578125 C-5.10611023 546.13579041 -5.41925171 547.09579956 -5.74188232 548.0848999 C-9.38576948 559.42580679 -12.42644537 570.54447916 -12.375 582.53125 C-12.37358505 583.18722672 -12.3721701 583.84320343 -12.37071228 584.51905823 C-12.36517406 586.58697327 -12.35263377 588.65477467 -12.33984375 590.72265625 C-12.33482074 592.13606613 -12.33025925 593.54947773 -12.32617188 594.96289062 C-12.31522501 598.40368193 -12.29800413 601.84440797 -12.27734375 605.28515625 C-14.01616789 602.67692003 -14.86249862 600.88019516 -15.81103516 597.96459961 C-16.10026855 597.08302689 -16.38950195 596.20145416 -16.6875 595.29316711 C-17.15349609 593.84867439 -17.15349609 593.84867439 -17.62890625 592.375 C-17.95938965 591.36257736 -18.28987305 590.35015472 -18.63037109 589.30705261 C-19.72564543 585.94707042 -20.8140587 582.58490815 -21.90234375 579.22265625 C-22.67468733 576.84805341 -23.44731532 574.47354305 -24.22021484 572.09912109 C-29.48951659 555.89097948 -34.68235265 539.6587706 -39.85491943 523.41955566 C-46.12969768 503.7322561 -52.5662886 484.09939406 -59.02734375 464.47265625 C-59.27762455 463.71235737 -59.52790535 462.95205849 -59.78577042 462.16872025 C-60.7839967 459.13642782 -61.78229873 456.10416032 -62.78060627 453.07189465 C-63.267404 451.59328927 -63.75419535 450.11468179 -64.24098015 448.63607216 C-64.71934822 447.18304048 -65.19773781 445.73001588 -65.67614937 444.27699852 C-69.50659344 432.64226338 -73.31701823 421.00121715 -77.08984375 409.34765625 C-77.31877319 408.64081696 -77.54770264 407.93397766 -77.78356934 407.20571899 C-79.98688988 400.40001931 -82.18022246 393.59114106 -84.36613464 386.77983093 C-85.28515299 383.91659363 -86.2054151 381.0537565 -87.12557983 378.19088745 C-87.74673629 376.25552134 -88.36525794 374.31931018 -88.98364258 372.38305664 C-90.99729805 366.11042691 -93.12497875 359.90504345 -95.40625 353.72509766 C-96.60677598 350.36241362 -97.57080023 346.97585757 -98.52734375 343.53515625 C-100.41734933 336.93314304 -102.55603895 330.44832013 -104.83984375 323.97265625 C-120.90614932 278.33243332 -135.5937709 232.16760519 -150.25952148 186.06298828 C-153.83569071 174.834263 -157.46964977 163.62663408 -161.16796875 152.4375 C-161.57909409 151.19140457 -161.99021942 149.94530914 -162.4138031 148.66145325 C-164.40957962 142.61347794 -166.41233478 136.56799436 -168.42797852 130.52661133 C-179.11402982 98.30470393 -183.07520498 66.3232245 -167.40234375 34.91015625 C-166.06979695 32.34376981 -164.68975076 29.8083589 -163.27734375 27.28515625 C-162.72175781 26.28742188 -162.16617187 25.2896875 -161.59375 24.26171875 C-146.9089129 -0.31865606 -121.71076408 -16.31863445 -94.38964844 -23.22607422 C-61.17100238 -30.91258941 -25.967516 -21.88462114 0 0 Z " fill="#34A853" transform="translate(602.27734375,175.71484375)"/>
<path d="M0 0 C11.25140565 8.40233727 20.65936136 20.78338597 22.8125 35 C22.90642245 36.33148887 22.96553334 37.66564769 23 39 C23.03867187 39.92554688 23.07734375 40.85109375 23.1171875 41.8046875 C23.45530226 56.56903191 19.3738182 69.22886629 9.5625 80.5 C-0.38565177 90.73286318 -13.38239159 98.06422608 -27.99975586 98.38037109 C-44.67893372 98.33821809 -57.56269723 92.84605894 -69.74609375 81.40625 C-79.96453956 70.49712935 -84.39266194 55.42492688 -84.28515625 40.7734375 C-83.25212612 27.10347709 -76.63665086 14.13609728 -66.67578125 4.828125 C-46.94286014 -11.6521168 -22.01418738 -13.64343413 0 0 Z " fill="#FDFEFD" transform="translate(562,214)"/>
<path d="M0 0 C10.05556257 8.61036069 18.54056451 20.5182211 20.26953125 33.9609375 C20.68175182 41.77595241 21.0250971 49.54543569 18.26953125 56.9609375 C17.95113281 57.87101563 17.63273438 58.78109375 17.3046875 59.71875 C11.97378718 73.75499258 3.2411507 84.43127388 -10.48046875 90.8359375 C-12.21600828 91.57899784 -13.96664578 92.28776246 -15.73046875 92.9609375 C-17.02017578 93.50814453 -17.02017578 93.50814453 -18.3359375 94.06640625 C-29.82677201 97.09448577 -45.09020782 96.74764066 -55.91015625 91.640625 C-71.07178487 82.61084618 -81.58294887 71.10383848 -86.26171875 53.78125 C-88.72555309 38.95718005 -86.16206766 24.48002893 -77.73046875 11.9609375 C-69.07388413 0.88371533 -58.12902351 -7.76252624 -44.07421875 -10.7578125 C-28.11694591 -12.67268524 -13.00401935 -9.71115608 0 0 Z " fill="#FEFEFE" transform="translate(729.73046875,721.0390625)"/>
<path d="M0 0 C1.44270264 -0.00942627 1.44270264 -0.00942627 2.91455078 -0.01904297 C15.73477039 0.20741606 28.11535332 4.92681817 37.62890625 13.6875 C48.81518445 25.73026818 54.89197003 39.39333286 54.62890625 55.7734375 C53.29036848 71.53843796 46.13737262 85.16788056 34.3125 95.5 C20.87233766 105.19061386 5.48491173 108.58071678 -10.828125 106.00390625 C-22.18270479 103.13281965 -30.44042592 97.7184384 -38.6875 89.5 C-39.265 88.94570313 -39.8425 88.39140625 -40.4375 87.8203125 C-50.42708683 77.36246379 -53.19008703 62.94560757 -52.93359375 49.01953125 C-51.85873984 33.64741422 -44.68830314 21.98094812 -33.6875 11.5 C-30.84225515 9.09678426 -27.97800652 7.2379809 -24.6875 5.5 C-23.81480469 5.0153125 -22.94210937 4.530625 -22.04296875 4.03125 C-14.6931255 0.56343405 -8.0462733 0.03986487 0 0 Z " fill="#FEFEFE" transform="translate(860.6875,202.5)"/>
<path d="M0 0 C11.74390277 8.94403191 21.33610657 19.97937911 24.234375 34.78125 C26.13091307 50.42768907 23.52143252 66.00061585 13.734375 78.671875 C12.36585118 80.25834892 10.97110072 81.82271041 9.546875 83.359375 C8.96421875 83.99617187 8.3815625 84.63296875 7.78125 85.2890625 C-3.04655755 95.88148293 -16.98539284 98.69801023 -31.5300293 98.74438477 C-46.19703146 98.53195265 -56.94537414 92.5475664 -67.640625 82.671875 C-74.70681939 75.27668776 -79.21590266 66.28920029 -81.453125 56.359375 C-81.72576172 55.16441406 -81.72576172 55.16441406 -82.00390625 53.9453125 C-84.26086186 40.95309849 -81.43205387 27.73651296 -74.203125 16.73046875 C-57.29828736 -6.1740769 -25.37891785 -16.97316162 0 0 Z " fill="#FEFEFE" transform="translate(191.453125,719.640625)"/>
<path d="M0 0 C1.52016724 0.00749268 1.52016724 0.00749268 3.07104492 0.01513672 C11.26566779 0.20535849 17.48316584 1.54291646 24.75 5.5 C26.09578125 6.18642578 26.09578125 6.18642578 27.46875 6.88671875 C39.49027201 13.49493491 47.34000244 23.96569244 51.91796875 36.765625 C54.69216498 47.3414341 55.28839905 59.06172282 51.75 69.5 C51.38261719 70.6446875 51.38261719 70.6446875 51.0078125 71.8125 C46.5120785 84.54378213 37.80266968 94.48825239 25.9375 100.75 C12.78950201 106.89668906 -2.17255574 109.25618026 -16.25 104.5 C-32.88479664 97.71500763 -42.92246387 87.34153628 -50.26953125 71.078125 C-54.34855677 60.35240052 -54.09503676 44.96049421 -50.1875 34.25 C-43.13142452 19.04772501 -31.86582895 7.75608766 -16.07421875 1.83203125 C-10.73308088 0.1351451 -5.57170983 -0.0360868 0 0 Z " fill="#FEFEFD" transform="translate(262.25,397.5)"/>
<path d="M0 0 C3.42561368 1.27632707 6.36927937 2.77187509 9.4375 4.75 C31.93531023 18.37496631 59.37200021 22.62423658 85.046875 17.05078125 C94.05082348 14.75399582 103.15827033 12.06885246 111.40625 7.74609375 C112.5921875 7.16988281 113.778125 6.59367188 115 6 C115.99 6.495 115.99 6.495 117 7 C90.36502977 21.44669314 61.91442792 26.09812116 32.37890625 17.74609375 C21.26575788 14.36624865 8.86545689 9.75181575 0 2 C0 1.34 0 0.68 0 0 Z " fill="#F0B30E" transform="translate(633,851)"/>
<path d="M0 0 C3.51911349 1.31030822 6.57690959 2.87367174 9.75 4.875 C14.34430168 7.68952716 19.02072381 9.95536968 24 12 C24 12.33 24 12.66 24 13 C17.97762503 12.54160401 13.80960709 10.64219308 8.625 7.625 C7.90183594 7.22539063 7.17867187 6.82578125 6.43359375 6.4140625 C1.12963924 3.38891771 1.12963924 3.38891771 0 0 Z " fill="#EDAE15" transform="translate(633,851)"/>
</svg>
