<?xml version="1.0" encoding="UTF-8"?>
<svg version="1.1" xmlns="http://www.w3.org/2000/svg" width="2560" height="1173">
<path d="M0 0 C0.64839844 0.35852051 1.29679687 0.71704102 1.96484375 1.08642578 C10.67469503 5.96523604 18.49199565 11.37731929 26 18 C26.85207031 18.7425 27.70414063 19.485 28.58203125 20.25 C31.08759688 22.466906 33.55215808 24.71960004 36 27 C36.75023437 27.69609375 37.50046875 28.3921875 38.2734375 29.109375 C48.59047078 39.02820699 56.63183103 50.7998864 64 63 C64.39687012 63.65000977 64.79374023 64.30001953 65.20263672 64.96972656 C73.0742396 78.00267794 78.68956366 91.75917569 84 106 C84.27183105 106.71752441 84.54366211 107.43504883 84.82373047 108.17431641 C94.65277856 134.38738498 99.04250203 163.17973088 101 191 C101.13136353 192.8547998 101.13136353 192.8547998 101.26538086 194.74707031 C101.98164886 205.45923323 102.20182874 216.14065007 102.1875 226.875 C102.18689575 227.72139038 102.1862915 228.56778076 102.18566895 229.43981934 C102.05391912 297.94008708 86.70147656 368.06708198 41 421 C40.23171875 421.89847656 39.4634375 422.79695313 38.671875 423.72265625 C36.49685996 426.19975671 34.26765293 428.60738726 32 431 C31.51515137 431.51739746 31.03030273 432.03479492 30.53076172 432.56787109 C21.47293325 442.17398756 11.72754883 450.31967482 1 458 C0.38044434 458.44827148 -0.23911133 458.89654297 -0.87744141 459.35839844 C-48.35763964 493.418318 -108.31898401 504.21280263 -165.625 504.25 C-166.56753632 504.25067474 -167.51007263 504.25134949 -168.48117065 504.25204468 C-196.03632373 504.22090694 -223.41208566 501.59654695 -250 494 C-250 569.9 -250 645.8 -250 724 C-267.01232799 726.43033257 -282.90180199 728.19830191 -299.9375 728.1875 C-300.60276703 728.18756042 -301.26803406 728.18762085 -301.95346069 728.18768311 C-317.87726492 728.16726949 -333.3567935 727.1286413 -349 724 C-349 481.12 -349 238.24 -349 -12 C-325.97285774 -17.75678556 -301.27769576 -17.38070759 -277.8125 -14.6875 C-276.23637939 -14.51118042 -276.23637939 -14.51118042 -274.62841797 -14.33129883 C-266.75333827 -13.30133896 -266.75333827 -13.30133896 -264 -10 C-263.35608579 -7.08841224 -262.87858223 -4.31039912 -262.5 -1.36328125 C-262.37899933 -0.49901016 -262.25799866 0.36526093 -262.1333313 1.25572205 C-261.74329744 4.06478568 -261.37138192 6.87591511 -261 9.6875 C-260.73778006 11.60413599 -260.47459541 13.52064025 -260.21044922 15.43701172 C-259.45446613 20.95552975 -258.72198437 26.47693974 -258 32 C-257.90271606 32.74401062 -257.80543213 33.48802124 -257.7052002 34.25457764 C-256.76135914 41.49814266 -255.85611416 48.74555894 -255 56 C-254.23429687 54.83597656 -254.23429687 54.83597656 -253.453125 53.6484375 C-226.95044762 14.27034593 -188.67438891 -11.77731705 -141.8984375 -21.0625 C-94.77896281 -29.60608821 -42.15280386 -23.37153159 0 0 Z M-215.05859375 100.046875 C-238.3040531 124.92933853 -250.23638273 160.8837855 -250.12025452 194.5861969 C-250.12110894 195.50860245 -250.12196337 196.431008 -250.12284368 197.38136524 C-250.12448095 200.44900657 -250.119006 203.51659229 -250.11352539 206.58422852 C-250.11324311 208.79242451 -250.11340204 211.00062059 -250.1139679 213.20881653 C-250.11425429 219.18744001 -250.10838304 225.16604334 -250.10139394 231.14466214 C-250.09513415 237.39868139 -250.09455452 243.65270112 -250.09336853 249.90672302 C-250.09061559 260.398512 -250.08437334 270.89029477 -250.07543945 281.38208008 C-250.06625012 292.1851396 -250.05917673 302.98819712 -250.05493164 313.79125977 C-250.05466892 314.45798226 -250.05440619 315.12470476 -250.05413551 315.81163097 C-250.0528304 319.15662721 -250.05156897 322.50162346 -250.05032361 325.84661973 C-250.03987674 353.56441828 -250.02229227 381.28220862 -250 409 C-248.43372089 409.64084358 -246.86596175 410.27807041 -245.29760742 410.91381836 C-244.4247258 411.26907089 -243.55184418 411.62432343 -242.6525116 411.99034119 C-238.61529114 413.52707913 -234.5147864 414.58362792 -230.3125 415.5625 C-229.4167627 415.77229492 -228.52102539 415.98208984 -227.59814453 416.19824219 C-210.9854504 419.93085028 -194.00467109 421.60750903 -177 422 C-175.60612061 422.03287109 -175.60612061 422.03287109 -174.18408203 422.06640625 C-126.76579982 423.00460804 -85.43590647 412.60664571 -50 380 C-47.43033475 377.47909501 -45.19377963 374.85191352 -43 372 C-42.60780273 371.50226074 -42.21560547 371.00452148 -41.81152344 370.49169922 C-2.36577563 320.16990326 4.22089826 251.64417841 -3 190 C-7.41268529 155.88512214 -16.95037142 120.48083423 -40 94 C-40.76699219 93.113125 -41.53398438 92.22625 -42.32421875 91.3125 C-61.93323335 70.17200034 -90.43221319 62.17069149 -118.47729492 61.02368164 C-155.86572138 60.19804655 -188.58180527 73.72080828 -215.05859375 100.046875 Z " fill="#FF4900" transform="translate(1314,445)"/>
<path d="M0 0 C0.73879395 0.20882813 1.47758789 0.41765625 2.23876953 0.6328125 C31.19315712 9.05182513 56.36184215 25.30485646 78 46 C78.9384375 46.88558594 79.876875 47.77117187 80.84375 48.68359375 C120.03598541 86.60978785 140.24926121 147.28684475 142.1008606 200.92160034 C142.14716506 204.01190601 142.16473847 207.10075568 142.16796875 210.19140625 C142.17129715 211.33496078 142.17462555 212.47851532 142.17805481 213.65672302 C142.18309177 216.07119346 142.18546414 218.48567079 142.18530273 220.90014648 C142.18746287 224.50061346 142.2055805 228.10076 142.22460938 231.70117188 C142.26243385 247.41394226 142.23763944 263.41290338 140 279 C139 280 139 280 136.68288749 280.1241985 C135.64435239 280.12381878 134.60581729 280.12343906 133.53581142 280.12304783 C132.34249909 280.12503888 131.14918675 280.12702993 129.91971344 280.12908131 C128.57850974 280.12622772 127.23730623 280.12328212 125.89610291 280.12025452 C124.48455793 280.12069009 123.07301303 280.12156475 121.66146857 280.12284368 C117.76437944 280.12509129 113.86731754 280.12106375 109.97023189 280.11606562 C105.7745729 280.1117651 101.57891557 280.11320726 97.383255 280.1139679 C90.10792105 280.11449339 82.83259603 280.11134399 75.55726433 280.10573006 C65.03823108 280.09761842 54.51920217 280.09500018 44.00016613 280.09374207 C26.93557379 280.09155102 9.87098623 280.0848895 -7.19360352 280.07543945 C-23.77465796 280.0662667 -40.35571111 280.0591852 -56.93676758 280.05493164 C-57.95805734 280.05466892 -58.97934711 280.05440619 -60.03158505 280.05413551 C-65.15486677 280.05283051 -70.27814851 280.0515668 -75.40143025 280.05032361 C-117.93429014 280.03994934 -160.46714482 280.02232959 -203 280 C-202.62025719 284.16600202 -202.23385475 288.33132272 -201.84185791 292.4961853 C-201.70999846 293.90646547 -201.57980991 295.31690309 -201.45147705 296.72750854 C-197.77220516 337.1005942 -186.54357397 376.49384439 -155 404 C-112.05700738 438.5117768 -52.38136729 440.34563038 0 435 C27.40804503 431.88367879 53.70296927 425.47314343 79.89111328 416.99462891 C84.24287582 415.60236563 88.61688168 414.28966627 93 413 C103.90727773 437.62205003 111.43039093 464.88537118 111 492 C77.91381804 505.19622286 44.41141166 513.0211897 9 517 C7.9584375 517.11859375 6.916875 517.2371875 5.84375 517.359375 C-29.84951178 521.18365305 -67.43421452 520.91658706 -103 516 C-104.03141113 515.86078125 -105.06282227 515.7215625 -106.12548828 515.578125 C-143.59773589 510.31458705 -182.32779852 497.66256361 -213 475 C-213.97324219 474.30777344 -214.94648437 473.61554688 -215.94921875 472.90234375 C-223.46169398 467.44834445 -230.30582607 461.41053991 -237 455 C-237.55445801 454.47809082 -238.10891602 453.95618164 -238.68017578 453.41845703 C-285.6645557 409.05979182 -305.19994205 341.8419586 -307.06851196 278.68429565 C-307.21103009 272.33151304 -307.24547662 265.97921256 -307.25 259.625 C-307.25100708 258.63811188 -307.25201416 257.65122375 -307.25305176 256.63442993 C-307.24090311 238.92080742 -306.32218957 221.57407042 -304 204 C-303.86078125 202.93668457 -303.7215625 201.87336914 -303.578125 200.77783203 C-294.8744066 137.10167002 -267.22376268 75.76430691 -215.48291016 35.83422852 C-155.12964892 -9.5150795 -71.90430339 -20.38696906 0 0 Z M-156 98 C-156.81597656 98.72316406 -157.63195313 99.44632813 -158.47265625 100.19140625 C-180.02967576 120.3818952 -191.41226323 149.29291989 -197.75 177.5625 C-197.94899902 178.44744141 -198.14799805 179.33238281 -198.35302734 180.24414062 C-200.16585165 188.83988438 -200.96036264 197.16308243 -202 206 C-120.49 206 -38.98 206 45 206 C45.10030985 192.7070671 45.10030985 192.7070671 43.8125 179.6875 C43.6117688 178.36794312 43.6117688 178.36794312 43.40698242 177.02172852 C39.08170123 150.12787705 29.42681909 124.4098377 11 104 C10.18015625 103.08605469 9.3603125 102.17210937 8.515625 101.23046875 C-8.94275245 82.76487721 -34.11693544 71.08598958 -59.56665039 69.82299805 C-95.13576645 69.24652435 -128.59669932 72.99074743 -156 98 Z " fill="#FF4900" transform="translate(2044,430)"/>
<path d="M0 0 C0.84894836 0.00060425 1.69789673 0.0012085 2.5725708 0.00183105 C57.2555824 0.10686507 115.07942476 10.00970905 156 49.1875 C156.74636719 49.87070312 157.49273438 50.55390625 158.26171875 51.2578125 C180.8897882 72.66167575 192.60025132 104.10795197 198.1875 134.125 C198.34250977 134.95757324 198.49751953 135.79014648 198.65722656 136.64794922 C199.15328851 139.48868741 199.57890384 142.33462134 200 145.1875 C200.25585279 146.84497788 200.25585279 146.84497788 200.51687431 148.53594017 C202.53291728 163.67312447 202.27220873 178.86785623 202.23213124 194.10584068 C202.22340206 198.27734202 202.22642352 202.44883816 202.22793579 206.62034607 C202.22897872 213.82772952 202.22276447 221.03507645 202.21146011 228.24245071 C202.19512715 238.66278442 202.18998918 249.08310067 202.18748413 259.50344579 C202.18311919 276.41441655 202.16984285 293.32536789 202.15087891 310.23632812 C202.1324889 326.65266829 202.11834771 343.06900316 202.10986328 359.48535156 C202.10933783 360.49918803 202.10881239 361.5130245 202.10827102 362.55758329 C202.10566073 367.64428013 202.10313336 372.73097701 202.10064721 377.81767392 C202.07995215 419.94096278 202.04475954 462.06423027 202 504.1875 C196.98290814 505.28138485 191.96528926 506.37281014 186.94720459 507.4621315 C185.24646176 507.83166821 183.54585518 508.20183269 181.84539795 508.57268143 C167.61300985 511.67588798 153.3577528 514.46940693 139 516.9375 C137.91901031 517.1251593 136.83802063 517.3128186 135.72427368 517.50616455 C118.86453297 520.43028282 102.01759527 523.33886931 85 525.1875 C84.35285034 525.25948608 83.70570068 525.33147217 83.03894043 525.40563965 C61.76770302 527.75530301 40.58320165 528.47261492 19.1875 528.5 C17.50734299 528.50537781 17.50734299 528.50537781 15.79324341 528.51086426 C-4.6432676 528.54613553 -25.08563718 527.57251996 -45.3125 524.5 C-46.41094238 524.33338867 -47.50938477 524.16677734 -48.64111328 523.99511719 C-85.95828035 518.00365924 -121.36368366 505.71303192 -149 479.1875 C-149.90492188 478.34574219 -150.80984375 477.50398438 -151.7421875 476.63671875 C-158.5538551 470.11751887 -164.0300427 463.18657579 -169 455.1875 C-169.37898438 454.58309082 -169.75796875 453.97868164 -170.1484375 453.35595703 C-186.07160254 427.5943599 -191.46142803 398.44847162 -191.3125 368.5 C-191.31034485 367.71446747 -191.3081897 366.92893494 -191.30596924 366.11959839 C-191.12097114 323.94912116 -177.55100457 288.37978693 -149 257.1875 C-148.40058594 256.5171875 -147.80117188 255.846875 -147.18359375 255.15625 C-108.53392396 214.0849217 -45.2019274 199.19512673 9.015625 197.30859375 C34.56269704 196.61580894 60.11126547 197.42203909 85.5625 199.6875 C86.30327789 199.75321198 87.04405579 199.81892395 87.80728149 199.8866272 C100.87358282 201.06078834 100.87358282 201.06078834 106 202.1875 C105.80673287 152.16830436 105.80673287 152.16830436 82.359375 109.390625 C71.72943827 99.46465759 58.08206258 93.16789583 44.3125 88.875 C43.23959717 88.52973267 43.23959717 88.52973267 42.14501953 88.17749023 C24.82434702 83.12361971 6.77399006 82.67382358 -11.125 82.8125 C-12.19949402 82.81715271 -13.27398804 82.82180542 -14.38104248 82.82659912 C-30.75807222 82.90958312 -46.82425714 83.41598581 -63 86.1875 C-64.22734863 86.39681152 -65.45469727 86.60612305 -66.71923828 86.82177734 C-86.62985656 90.27918315 -106.54630109 94.42633571 -125.79760742 100.63012695 C-128 101.1875 -128 101.1875 -132 101.1875 C-140.72963058 83.86137047 -146.17252258 67.36689227 -149 48.1875 C-149.19916016 46.83785156 -149.19916016 46.83785156 -149.40234375 45.4609375 C-150.34390151 37.74790266 -150.08660413 29.94338119 -150 22.1875 C-112.74720186 11.37390364 -74.75499135 3.86324208 -36 1.1875 C-34.78086914 1.10137451 -33.56173828 1.01524902 -32.30566406 0.92651367 C-21.53411114 0.20579089 -10.79389086 -0.01434898 0 0 Z M-6 276.1875 C-6.80211914 276.31640625 -7.60423828 276.4453125 -8.43066406 276.578125 C-34.1363046 280.83774783 -62.03306221 290.24145359 -78 312.1875 C-92.9395706 334.73673952 -96.5938403 362.01499508 -91.40820312 388.43481445 C-88.85475138 400.00336943 -84.47259461 409.03567065 -77 418.1875 C-76.39414062 418.96867188 -75.78828125 419.74984375 -75.1640625 420.5546875 C-60.52664408 438.4036914 -37.61863393 445.5241952 -15.47265625 447.78125 C14.99903226 450.64854894 45.62345013 449.23414038 75.9375 445.3125 C77.11376953 445.16329102 78.29003906 445.01408203 79.50195312 444.86035156 C88.64173282 443.59995893 96.91379799 441.4590505 106 439.1875 C106 386.7175 106 334.2475 106 280.1875 C102.75725784 278.56612892 99.15151604 278.59576945 95.58203125 278.25 C94.73259445 278.16500244 93.88315765 278.08000488 93.00798035 277.99243164 C91.19992498 277.81239794 89.39167458 277.63431419 87.58325195 277.45800781 C84.86815377 277.19293346 82.15378493 276.92123467 79.43945312 276.6484375 C63.36321873 275.04750425 47.41096343 273.97702717 31.25 274 C30.45907959 274.00060425 29.66815918 274.0012085 28.85327148 274.00183105 C17.13331333 274.0260923 5.58602623 274.25736978 -6 276.1875 Z " fill="#FF4900" transform="translate(658,420.8125)"/>
<path d="M0 0 C125.07 0 250.14 0 379 0 C384 12 384 12 382 17 C380.49706982 19.45305846 378.96438913 21.85444057 377.375 24.25 C376.37680066 25.77291114 375.37945752 27.29638371 374.3828125 28.8203125 C373.56925293 30.06216309 373.56925293 30.06216309 372.73925781 31.32910156 C369.54192886 36.23909296 366.4008401 41.18510421 363.25 46.125 C357.43406663 55.22951677 351.56036724 64.29398846 345.64550781 73.33447266 C341.05342735 80.36211177 336.51666377 87.4236931 332 94.5 C324.95900022 105.53007234 317.8245862 116.49683439 310.66503906 127.45019531 C303.79679064 137.9680819 297.01300459 148.53921734 290.25 159.125 C284.43333127 168.22905223 278.56037258 177.2939803 272.64550781 186.33447266 C268.05342735 193.36211177 263.51666377 200.4236931 259 207.5 C251.95900022 218.53007234 244.8245862 229.49683439 237.66503906 240.45019531 C230.79679006 250.96808278 224.01306858 261.53925732 217.25 272.125 C210.12315708 283.27836524 202.90671788 294.37118147 195.66503906 305.45019531 C188.79679006 315.96808278 182.01306858 326.53925732 175.25 337.125 C168.12315708 348.27836524 160.90671788 359.37118147 153.66503906 370.45019531 C141.63387644 388.87445666 129.81356614 407.43582464 118 426 C200.17 426 282.34 426 367 426 C369.23310692 439.39864155 370.20370329 452.04075366 370.1875 465.5625 C370.18789276 466.26055756 370.18828552 466.95861511 370.18869019 467.67782593 C370.17066563 494.4880031 370.17066563 494.4880031 367 504 C236.98 504 106.96 504 -27 504 C-31 493 -31 493 -31 488 C-30.06054687 485.99316406 -30.06054687 485.99316406 -28.71875 484.015625 C-27.96247314 482.87927612 -27.96247314 482.87927612 -27.19091797 481.7199707 C-26.63291504 480.90488037 -26.07491211 480.08979004 -25.5 479.25 C-24.30345473 477.45785371 -23.10820241 475.66484367 -21.9140625 473.87109375 C-21.27758789 472.92089355 -20.64111328 471.97069336 -19.98535156 470.99169922 C-16.54634551 465.80950785 -13.21594135 460.55822424 -9.875 455.3125 C-5.435728 448.36252653 -0.98889868 441.41803414 3.5 434.5 C8.02950956 427.51880901 12.5176257 420.51153523 17 413.5 C21.90377997 405.82928273 26.8220469 398.16877175 31.77734375 390.53125 C35.87773848 384.20423143 39.93902167 377.85236834 44 371.5 C48.90377997 363.82928273 53.8220469 356.16877175 58.77734375 348.53125 C62.87773848 342.20423143 66.93902167 335.85236834 71 329.5 C75.90377997 321.82928273 80.8220469 314.16877175 85.77734375 306.53125 C89.87773848 300.20423143 93.93902167 293.85236834 98 287.5 C102.90377997 279.82928273 107.8220469 272.16877175 112.77734375 264.53125 C116.87773848 258.20423143 120.93902167 251.85236834 125 245.5 C129.90377997 237.82928273 134.8220469 230.16877175 139.77734375 222.53125 C143.87773848 216.20423143 147.93902167 209.85236834 152 203.5 C156.90377997 195.82928273 161.8220469 188.16877175 166.77734375 180.53125 C170.87773848 174.20423143 174.93902167 167.85236834 179 161.5 C183.90377997 153.82928273 188.8220469 146.16877175 193.77734375 138.53125 C198.57710265 131.12509384 203.32444541 123.68544635 208.07788086 116.24951172 C212.45914622 109.39884396 216.8565791 102.55915258 221.28710938 95.74023438 C224.89510039 90.18262053 228.44196206 84.59120248 232 79 C117.16 78.505 117.16 78.505 0 78 C-2.59391143 65.03044285 -3.20224138 52.60373919 -3.1875 39.4375 C-3.18789276 38.69208954 -3.18828552 37.94667908 -3.18869019 37.17868042 C-3.17124533 9.51373599 -3.17124533 9.51373599 0 0 Z " fill="#FF4A00" transform="translate(31,433)"/>
<path d="M0 0 C0.67098724 -0.00200409 1.34197449 -0.00400818 2.03329468 -0.006073 C33.81669349 -0.02915326 33.81669349 -0.02915326 42.375 4.25 C48.56693246 24.49285613 49.44996905 47.47505482 50.98046875 68.46875 C51.25342469 72.10816249 51.68714717 75.66120263 52.375 79.25 C53.10203125 78.25742187 53.8290625 77.26484375 54.578125 76.2421875 C81.77220632 39.37249775 115.6277171 9.91467651 162.30859375 2.609375 C163.82646484 2.43148438 163.82646484 2.43148438 165.375 2.25 C166.47062256 2.11972412 166.47062256 2.11972412 167.58837891 1.98681641 C175.29054998 1.17051052 182.96463125 1.0969454 190.69970703 1.11962891 C192.87149025 1.12499133 195.04306675 1.1196501 197.21484375 1.11328125 C216.9328231 1.1026077 216.9328231 1.1026077 223.375 3.25 C225.79280759 16.29418708 226.90192949 28.86566079 226.8125 42.125 C226.81092896 43.43982864 226.81092896 43.43982864 226.80932617 44.78121948 C226.7699316 60.87627432 225.2669991 76.4074597 222.375 92.25 C221.74335938 92.17998779 221.11171875 92.10997559 220.4609375 92.0378418 C190.0767191 88.94305154 157.60590521 90.68963963 129.375 103.25 C128.54484375 103.60449219 127.7146875 103.95898438 126.859375 104.32421875 C98.87424372 117.18835168 81.12401192 142.56868738 70.36376953 170.56640625 C61.72564093 194.01092715 58.23061464 219.24526383 58.22351074 244.16435242 C58.21927833 245.3009604 58.21504592 246.43756838 58.21068525 247.60861903 C58.19776144 251.38320516 58.19165854 255.15777023 58.18554688 258.93237305 C58.1781397 261.65170101 58.16925824 264.37102367 58.16041565 267.09034729 C58.1421509 272.92764981 58.1272724 278.76495283 58.11463928 284.60227013 C58.09627971 293.04295473 58.0716191 301.48361225 58.04526538 309.92427526 C58.00257194 323.62292936 57.96342785 337.32159088 57.92724609 351.02026367 C57.92508329 351.83862502 57.92292049 352.65698637 57.92069215 353.50014655 C57.90095777 360.97934786 57.88145611 368.45854979 57.86197662 375.93775177 C57.84896775 380.92977414 57.8358935 385.92179633 57.82275391 390.91381836 C57.82059504 391.73451105 57.81843617 392.55520375 57.81621188 393.40076592 C57.78015023 407.06414171 57.74021088 420.72750347 57.69745111 434.3908599 C57.67126959 442.81679001 57.64861691 451.2427158 57.63046753 459.66866712 C57.61783541 465.43029583 57.60172268 471.19190784 57.58281839 476.95351937 C57.57202725 480.28124491 57.56346165 483.60893846 57.55812263 486.93667984 C57.55212042 490.53530664 57.54009487 494.13386281 57.52648926 497.73246765 C57.52619327 498.7952711 57.52589728 499.85807455 57.52559233 500.95308417 C57.51830571 502.38709593 57.51830571 502.38709593 57.51087189 503.85007763 C57.50875592 504.68161553 57.50663995 505.51315342 57.50445986 506.36988944 C57.375 508.25 57.375 508.25 56.375 509.25 C31.22626654 514.32948934 -17.96138649 520.08180675 -41.625 508.25 C-41.625 341.93 -41.625 175.61 -41.625 4.25 C-27.14901213 1.69541391 -14.49335893 0.03504067 0 0 Z " fill="#FF4A00" transform="translate(2333.625,428.75)"/>
<path d="M0 0 C52.8 0 105.6 0 160 0 C160 166.32 160 332.64 160 504 C131.81535915 512.05275453 93.67438255 511.02934153 65 505 C64 504 64 504 63.8758015 501.13786501 C63.87618122 499.84112008 63.87656094 498.54437515 63.87695217 497.20833492 C63.87579833 496.48624552 63.87464448 495.76415611 63.87345567 495.0201852 C63.87078212 492.56982577 63.87531719 490.11953038 63.87974548 487.66917419 C63.87930993 485.90702123 63.87843532 484.14486832 63.87715632 482.38271576 C63.87490819 477.51649491 63.87893695 472.65029584 63.88393438 467.78407776 C63.88823417 462.54546426 63.88679279 457.30685208 63.8860321 452.0682373 C63.88550657 442.98402551 63.88865645 433.89982088 63.89426994 424.81561089 C63.90238095 411.6812051 63.90499975 398.54680279 63.90625793 385.41239477 C63.90844908 364.10508739 63.91511087 342.79778382 63.92456055 321.49047852 C63.93373304 300.78670267 63.94081467 280.08292786 63.94506836 259.37915039 C63.94533108 258.103966 63.94559381 256.82878161 63.94586449 255.51495527 C63.94716948 249.11802749 63.9484332 242.7210997 63.94967639 236.3241719 C63.96005097 183.21611182 63.9779453 130.10805641 64 77 C42.88 77 21.76 77 0 77 C-7.47217322 54.58348034 -7.47217322 22.41651966 0 0 Z " fill="#FF4A00" transform="translate(1472,433)"/>
<path d="M0 0 C1.10730469 -0.00773438 2.21460938 -0.01546875 3.35546875 -0.0234375 C11.72433812 -0.00399762 19.04854552 1.04264936 27.5 2.25 C27.83 32.94 28.16 63.63 28.5 95.25 C49.95 73.8 71.4 52.35 93.5 30.25 C109.38673164 38.19336582 123.34638167 53.99511622 133.5 68.25 C131.84986099 72.50556648 128.67050922 75.34580236 125.48974609 78.48730469 C124.86503733 79.11225452 124.24032856 79.73720436 123.59668922 80.38109207 C121.57690167 82.39938893 119.55034126 84.41072745 117.5234375 86.421875 C116.27404255 87.66832876 115.0250976 88.91523374 113.77661133 90.16259766 C109.14819368 94.78053673 104.5110673 99.38974065 99.875 104 C89.52125 114.3125 79.1675 124.625 68.5 135.25 C114.535 135.745 114.535 135.745 161.5 136.25 C163.82538995 157.17850953 163.82538995 157.17850953 163.75 163.75 C163.75773437 164.42417969 163.76546875 165.09835938 163.7734375 165.79296875 C163.74257516 174.38813143 162.4586953 182.62174233 161.5 191.25 C130.81 191.58 100.12 191.91 68.5 192.25 C89.95 213.7 111.4 235.15 133.5 257.25 C130.56597506 262.38454365 128.51425517 265.6305397 124.625 269.75 C121.79456282 272.77906435 119.00327384 275.79408356 116.375 279 C110.14776084 286.3026955 102.28674594 291.73915958 94.5 297.25 C89.89590517 293.39902134 85.51833695 289.41070626 81.28930664 285.15283203 C80.70364394 284.56728987 80.11798124 283.9817477 79.51457119 283.37846184 C77.6440863 281.50723841 75.77704759 279.63262041 73.91015625 277.7578125 C72.74595539 276.59213893 71.58152735 275.42669221 70.41687012 274.26147461 C66.12933418 269.96872389 61.84617501 265.6716035 57.5625 261.375 C47.971875 251.76375 38.38125 242.1525 28.5 232.25 C28.17 262.94 27.84 293.63 27.5 325.25 C6.57149047 327.57538995 6.57149047 327.57538995 0 327.5 C-0.67417969 327.50773437 -1.34835937 327.51546875 -2.04296875 327.5234375 C-10.63813143 327.49257516 -18.87174233 326.2086953 -27.5 325.25 C-27.83 294.56 -28.16 263.87 -28.5 232.25 C-60.675 264.425 -60.675 264.425 -93.5 297.25 C-109.38673164 289.30663418 -123.34638167 273.50488378 -133.5 259.25 C-131.84986099 254.99443352 -128.67050922 252.15419764 -125.48974609 249.01269531 C-124.86503733 248.38774548 -124.24032856 247.76279564 -123.59668922 247.11890793 C-121.57690167 245.10061107 -119.55034126 243.08927255 -117.5234375 241.078125 C-116.27404255 239.83167124 -115.0250976 238.58476626 -113.77661133 237.33740234 C-109.14819368 232.71946327 -104.5110673 228.11025935 -99.875 223.5 C-84.344375 208.03125 -84.344375 208.03125 -68.5 192.25 C-114.535 191.755 -114.535 191.755 -161.5 191.25 C-162.87234063 182.32978592 -163.81497489 174.33364536 -163.75 165.4375 C-163.75773437 164.39013672 -163.76546875 163.34277344 -163.7734375 162.26367188 C-163.7517644 153.32893772 -162.62988423 145.28907385 -161.5 136.25 C-130.81 135.92 -100.12 135.59 -68.5 135.25 C-89.95 113.8 -111.4 92.35 -133.5 70.25 C-131.59063419 65.47658548 -129.38194834 62.3963186 -126.0625 58.625 C-125.52681396 58.01108398 -124.99112793 57.39716797 -124.43920898 56.76464844 C-115.62696429 46.76247172 -106.24397017 38.12435652 -95.5 30.25 C-91.24443352 31.90013901 -88.40419764 35.07949078 -85.26269531 38.26025391 C-84.63774548 38.88496267 -84.01279564 39.50967144 -83.36890793 40.15331078 C-81.35061107 42.17309833 -79.33927255 44.19965874 -77.328125 46.2265625 C-76.08167124 47.47595745 -74.83476626 48.7249024 -73.58740234 49.97338867 C-68.96946327 54.60180632 -64.36025935 59.2389327 -59.75 63.875 C-49.4375 74.22875 -39.125 84.5825 -28.5 95.25 C-28.17 64.56 -27.84 33.87 -27.5 2.25 C-18.03495559 0.8978508 -9.43811175 -0.06592395 0 0 Z M-25.5 126.25 C-26.94826172 126.45302734 -26.94826172 126.45302734 -28.42578125 126.66015625 C-31.01056951 127.16357655 -32.46692104 127.57008499 -34.5 129.25 C-36.64954028 133.42482968 -37.59560248 137.66305567 -38.5 142.25 C-38.72300781 143.28898437 -38.94601562 144.32796875 -39.17578125 145.3984375 C-41.90981937 160.16596315 -40.89123725 174.70536023 -37.5 189.25 C-37.30277344 190.21550781 -37.10554688 191.18101562 -36.90234375 192.17578125 C-36.10550952 194.83624965 -35.46295352 196.27778726 -33.5 198.25 C-14.32531962 207.36324095 10.94189115 205.62553492 30.72265625 199.484375 C33.75526428 198.40835927 33.75526428 198.40835927 35.6875 195.3125 C36.00774748 193.96916102 36.2714069 192.61193364 36.5 191.25 C36.75652344 190.35539062 37.01304687 189.46078125 37.27734375 188.5390625 C42.08870178 170.93437 42.812193 146.94443258 34.5 130.25 C18.23616246 119.12603173 -7.44618064 122.33989819 -25.5 126.25 Z " fill="#FF4A00" transform="translate(1563.5,0.75)"/>
</svg>
