<?xml version="1.0" encoding="UTF-8"?>
<svg version="1.1" xmlns="http://www.w3.org/2000/svg" width="1024" height="1024">
<path d="M0 0 C0.65946625 0.00087616 1.3189325 0.00175232 1.99838257 0.00265503 C31.10057843 0.12984648 56.54704128 11.15111184 77.4375 31.375 C96.12720524 50.89714901 106.10220176 75.64322008 105.875 102.6875 C105.86815186 103.95134521 105.86130371 105.21519043 105.85424805 106.51733398 C105.60796555 120.91517467 102.73997953 133.36626092 96.4375 146.375 C95.92316406 147.44363281 95.40882813 148.51226562 94.87890625 149.61328125 C82.74929985 173.45229983 60.48368704 192.21117836 35.12744141 200.68310547 C23.76672051 204.25393435 12.5915301 205.74984342 0.6875 205.6875 C-1.01865479 205.67904053 -1.01865479 205.67904053 -2.75927734 205.67041016 C-28.17546608 205.30561904 -51.48386389 196.12390167 -70.5625 179.375 C-71.85027344 178.35986328 -71.85027344 178.35986328 -73.1640625 177.32421875 C-86.62483465 166.384601 -96.95222 147.91776942 -101.5625 131.375 C-101.5625 130.385 -101.5625 129.395 -101.5625 128.375 C-120.5044701 128.45909255 -139.4463538 128.55429597 -158.38820171 128.66252708 C-167.18432078 128.7125312 -175.98043109 128.75897494 -184.77661133 128.796875 C-192.4482921 128.82993914 -200.11990241 128.86984867 -207.79150516 128.91779006 C-211.8490695 128.94291253 -215.90658796 128.96473486 -219.9642086 128.97834396 C-223.79325062 128.99129499 -227.62213414 129.01348577 -231.45108795 129.04238319 C-232.84692214 129.0513582 -234.24278178 129.05712522 -235.63864326 129.05921364 C-255.01835618 129.0933629 -270.97738756 131.78027069 -285.59765625 145.25 C-296.49964275 156.75099675 -298.8517662 171.65427311 -301.34887695 186.7121582 C-305.91191235 214.13768534 -314.92364617 236.05351982 -335.5625 255.375 C-334.11321454 258.77931116 -332.29010882 260.71803988 -329.5625 263.1875 C-310.5397359 281.87384866 -304.35799026 306.75999542 -300.28344727 332.19458008 C-297.43994868 349.78229487 -291.87383876 363.58633737 -277.25 374.62109375 C-262.09926397 384.50871072 -244.08534954 383.71629123 -226.6875 384 C-224.72784911 384.03827823 -222.76821327 384.07733526 -220.80859375 384.1171875 C-216.06002132 384.21209025 -211.31137076 384.29650099 -206.5625 384.375 C-206.42940933 383.76025314 -206.29631866 383.14550629 -206.15919495 382.51213074 C-205.98234665 381.70399429 -205.80549835 380.89585785 -205.62329102 380.06323242 C-205.44895035 379.26286057 -205.27460968 378.46248871 -205.09498596 377.63786316 C-199.78734675 355.08241178 -181.11728259 335.24613554 -162.1875 323.1875 C-144.19279373 312.48851979 -125.75523046 306.95281938 -104.8125 307.0625 C-103.67506348 307.06813965 -102.53762695 307.0737793 -101.36572266 307.07958984 C-76.40362049 307.43786359 -52.04725643 316.36062192 -33.5625 333.375 C-33.03914062 333.85066406 -32.51578125 334.32632812 -31.9765625 334.81640625 C-14.39260937 350.9556684 -0.78599234 374.1301102 0.61450195 398.44848633 C1.16943525 427.95723037 1.16943525 427.95723037 -3.5625 441.375 C-3.80919434 442.08543457 -4.05588867 442.79586914 -4.31005859 443.52783203 C-13.80733092 470.10736828 -33.16111504 490.8419926 -58.40234375 503.28173828 C-62.69744081 505.28496231 -67.0618002 506.91418728 -71.5625 508.375 C-72.19865234 508.58527832 -72.83480469 508.79555664 -73.49023438 509.01220703 C-99.87794715 517.302675 -130.07656458 513.72039412 -154.5625 501.375 C-179.85665499 487.72843756 -197.96194765 465.72812923 -206.5625 438.375 C-206.5625 437.715 -206.5625 437.055 -206.5625 436.375 C-207.87629639 436.39071045 -209.19009277 436.4064209 -210.54370117 436.42260742 C-215.52556971 436.47785267 -220.50741269 436.51168564 -225.48950195 436.53979492 C-227.62561631 436.55467015 -229.76170135 436.57497658 -231.89770508 436.60131836 C-266.67533974 437.01874819 -297.38132431 430.70721077 -323.30688477 405.97729492 C-328.81228442 400.57132332 -333.44132809 394.91976264 -337.5625 388.375 C-338.06007813 387.65699219 -338.55765625 386.93898438 -339.0703125 386.19921875 C-350.12109267 369.44947604 -352.74627442 349.40004132 -355.95019531 330.03125 C-358.28174214 316.27042034 -363.7575484 303.6112327 -374.5625 294.375 C-390.94609226 282.78563909 -407.45177653 282.88155075 -426.875 282.6875 C-429.17645109 282.65427249 -431.47788426 282.61977795 -433.77929688 282.58398438 C-439.37357491 282.49970616 -444.96787212 282.43110086 -450.5625 282.375 C-450.69591797 283.29015381 -450.82933594 284.20530762 -450.96679688 285.14819336 C-451.69616732 289.0990496 -453.24923462 292.3928809 -455.0625 295.9375 C-455.42069824 296.63858887 -455.77889648 297.33967773 -456.14794922 298.06201172 C-469.82368642 324.2209381 -492.14837147 342.36724012 -520.359375 351.30859375 C-549.89187833 359.35310963 -579.95069652 355.12371036 -606.5625 340.375 C-624.48324426 329.78805653 -637.66663666 314.34593813 -647.0625 295.9375 C-647.40128174 295.27516357 -647.74006348 294.61282715 -648.08911133 293.93041992 C-650.0669575 289.88606021 -650.79920185 286.95478891 -651.5625 282.375 C-671.6925 282.375 -691.8225 282.375 -712.5625 282.375 C-714.0475 286.83 -714.0475 286.83 -715.5625 291.375 C-719.78272247 301.02255957 -724.50829184 309.48453771 -731.5625 317.375 C-732.22636719 318.18066406 -732.89023437 318.98632812 -733.57421875 319.81640625 C-749.56169542 338.69995079 -773.06056176 351.04546832 -797.5625 354.375 C-798.32304688 354.49617188 -799.08359375 354.61734375 -799.8671875 354.7421875 C-827.39279868 358.25791977 -856.09362212 350.72491105 -878.1875 334 C-879.65777827 332.80622976 -881.11576574 331.59719702 -882.5625 330.375 C-883.79806641 329.34052734 -883.79806641 329.34052734 -885.05859375 328.28515625 C-899.04524617 316.17190629 -908.70352354 300.88144545 -914.5625 283.375 C-914.97757813 282.15039062 -915.39265625 280.92578125 -915.8203125 279.6640625 C-923.81662501 253.11306868 -918.61647037 225.47803434 -906.05859375 201.50390625 C-892.57890553 177.96036361 -870.18738492 160.37909403 -844.08691406 153.1652832 C-814.74962587 145.43374449 -784.67557784 148.54699158 -758.23046875 163.703125 C-735.32202513 178.05863579 -718.24887548 199.26262798 -710.9375 225.4921875 C-710.5625 227.375 -710.5625 227.375 -710.5625 230.375 C-692.0825 230.045 -673.6025 229.715 -654.5625 229.375 C-652.5825 223.435 -650.6025 217.495 -648.5625 211.375 C-643.36782655 200.45738123 -637.37391794 191.51400339 -629.5625 182.375 C-628.99144531 181.70082031 -628.42039062 181.02664063 -627.83203125 180.33203125 C-611.01810278 162.13495185 -584.476233 150.37899146 -559.91943359 149.25390625 C-528.52925786 148.21087001 -501.19776138 156.18740323 -477.5625 177.375 C-476.86898438 177.98601562 -476.17546875 178.59703125 -475.4609375 179.2265625 C-466.42423612 187.68721917 -459.93574115 197.97601181 -454.625 209.0625 C-454.07694702 210.20102417 -454.07694702 210.20102417 -453.51782227 211.36254883 C-450.83496116 217.20016883 -449.10106074 223.14540196 -447.5625 229.375 C-441.23119975 229.45173706 -434.90002161 229.50388486 -428.56835938 229.53979492 C-426.41922524 229.55478213 -424.27012117 229.57517887 -422.12109375 229.60131836 C-402.38754072 229.83514996 -384.86928356 228.48765295 -369.8828125 214.03125 C-359.60344203 202.2636205 -357.03861901 188.84602803 -354.42578125 173.88671875 C-348.94915103 142.69755084 -338.49659694 115.81555895 -311.5 96.5625 C-309.86372947 95.48533131 -308.21805662 94.42228502 -306.5625 93.375 C-305.79679688 92.86453125 -305.03109375 92.3540625 -304.2421875 91.828125 C-284.53883041 79.21277426 -262.29853453 76.20092335 -239.38232422 76.26147461 C-237.87347923 76.2617572 -236.3646341 76.26159735 -234.85578918 76.2610321 C-230.78831701 76.26074692 -226.72087474 76.26659839 -222.65340948 76.27360606 C-218.39199827 76.2798862 -214.13058627 76.28044707 -209.86917114 76.28163147 C-201.81236505 76.2847311 -193.75557264 76.29292595 -185.69877255 76.30298096 C-176.52096624 76.31418471 -167.34315926 76.31966326 -158.16534781 76.32467639 C-139.29772414 76.33510978 -120.43011317 76.35268258 -101.5625 76.375 C-101.26831429 75.25677856 -101.26831429 75.25677856 -100.96818542 74.1159668 C-100.70564468 73.13281494 -100.44310394 72.14966309 -100.17260742 71.13671875 C-99.78560921 69.67818481 -99.78560921 69.67818481 -99.39079285 68.19018555 C-98.26490331 64.36353417 -96.70700529 60.90760283 -94.875 57.375 C-94.35063354 56.35164551 -94.35063354 56.35164551 -93.81567383 55.30761719 C-90.61534071 49.21543409 -86.93833592 43.69526094 -82.5625 38.375 C-81.36367187 36.91320312 -81.36367187 36.91320312 -80.140625 35.421875 C-60.1357898 11.93826612 -30.46489413 -0.04451951 0 0 Z M-37.5625 68.375 C-38.11421875 68.93574219 -38.6659375 69.49648438 -39.234375 70.07421875 C-48.81663587 80.16835253 -52.06637656 92.47547092 -51.8125 106.10546875 C-50.68253726 120.88326274 -43.3856371 132.39049771 -32.58984375 142.16015625 C-20.80513019 151.62180512 -7.35068206 154.39879722 7.4375 153.375 C22.71754703 151.14118477 35.14028671 142.79466888 44.3125 130.5 C51.63017651 119.43719187 54.14375075 106.49158912 51.94140625 93.43359375 C48.24616998 78.75703386 39.50539581 66.28822505 26.4375 58.375 C4.77545925 48.55181309 -20.86051582 49.35329579 -37.5625 68.375 Z M-853.5625 219.375 C-863.24770615 230.84139348 -866.45998632 243.59971598 -865.5625 258.375 C-863.4771612 272.53056255 -856.33073784 284.53943105 -844.875 293.0625 C-831.23127931 302.19313697 -815.98258155 304.71211212 -799.9296875 301.69140625 C-784.93892328 296.97499088 -773.81040799 287.65798678 -766.234375 273.9765625 C-760.26092256 261.27183157 -760.01607264 248.06766534 -764.23828125 234.734375 C-770.0134958 220.08338822 -780.65702918 210.97858058 -794.5625 204.375 C-816.07118098 196.21371115 -838.14915282 203.11996834 -853.5625 219.375 Z M-591.5703125 219.7265625 C-601.18098564 232.83202587 -603.82336432 245.46275145 -602.5625 261.375 C-600.00964093 275.00050082 -591.54436325 286.37671164 -580.5625 294.5 C-567.43128176 302.72359122 -552.90913493 304.40545046 -537.8515625 301.7109375 C-524.09929502 297.95437988 -513.11426175 289.55240241 -505.75 277.4375 C-498.24467345 263.79456017 -497.08156462 250.78608375 -501.30859375 235.71484375 C-505.94952006 222.69962374 -515.42390947 213.05060899 -527.4375 206.5625 C-549.44069884 196.40189648 -575.58684879 201.00663029 -591.5703125 219.7265625 Z M-144.3359375 376.73046875 C-154.15678096 388.39487405 -157.47571106 401.3408401 -156.5625 416.375 C-154.69185139 429.07321643 -148.77658701 440.6565164 -138.6796875 448.66015625 C-125.292925 458.58719153 -112.00576807 461.64149956 -95.5625 460.375 C-81.3398714 457.87398692 -69.17212516 449.55905247 -60.77734375 437.89453125 C-53.15291694 425.81159441 -50.59232657 412.39431494 -53.6875 398.375 C-57.38348638 385.13104882 -65.54705732 373.84803248 -77.3125 366.6171875 C-99.95799987 354.11498444 -126.38227768 357.72238763 -144.3359375 376.73046875 Z " fill="#EA4A70" transform="translate(918.5625,255.625)"/>
</svg>
