<?xml version="1.0" encoding="UTF-8"?>
<svg version="1.1" xmlns="http://www.w3.org/2000/svg" width="2560" height="1568">
<path d="M0 0 C6.67024461 2.58108759 12.8202054 6.44014771 19 10 C20.79564898 11.01259387 22.59254432 12.02298046 24.390625 13.03125 C28.21751355 15.1813084 32.03676403 17.34419212 35.8515625 19.515625 C42.33535287 23.19973936 48.85268816 26.82213438 55.375 30.4375 C65.12408657 35.84342115 74.85827506 41.27495015 84.58105469 46.72802734 C91.10935087 50.38720628 97.64716612 54.02874257 104.19189453 57.65844727 C114.01428387 63.10609443 123.83189143 68.56235937 133.625 74.0625 C135.00099365 74.83025757 135.00099365 74.83025757 136.40478516 75.61352539 C152.29516786 84.56604035 152.29516786 84.56604035 156.875 89.875 C157.67550781 90.76832031 157.67550781 90.76832031 158.4921875 91.6796875 C163.22057085 98.95600799 163.43054535 105.76821508 163.38031673 114.20374966 C163.38730661 116.03699482 163.38730661 116.03699482 163.3944377 117.90727523 C163.40432503 121.29787427 163.40080364 124.68797742 163.39160402 128.07854643 C163.38489219 131.76788103 163.39556135 135.45717239 163.40399987 139.14649779 C163.41637525 145.61195882 163.41757545 152.07734728 163.41144943 158.54281616 C163.40236414 168.15719023 163.41038574 177.77149712 163.42174067 187.38586603 C163.44141916 204.55674944 163.44375275 221.72760269 163.43854547 238.89849469 C163.43399052 253.92553929 163.43458471 268.95257195 163.44038582 283.97961617 C163.44114268 285.99434108 163.44189866 288.009066 163.44265376 290.02379091 C163.44379894 293.0596938 163.44494882 296.09559668 163.44611301 299.13149956 C163.45681992 327.36092391 163.46154126 355.59034428 163.45364285 383.81976986 C163.45319709 385.4163763 163.45319709 385.4163763 163.45274232 387.04523742 C163.45029331 395.68928142 163.44768176 404.33332537 163.44505819 412.97736932 C163.43495456 446.69936864 163.44331258 480.42131817 163.46655273 514.14331055 C163.49261421 552.02049343 163.5054763 589.89764633 163.49836498 627.77483851 C163.49764891 631.81208169 163.49697452 635.84932488 163.49632454 639.88656807 C163.49615473 640.88065761 163.49598492 641.87474714 163.49580997 642.8989606 C163.49350528 657.91661412 163.50149201 672.93423985 163.51461601 687.95188713 C163.52951124 705.02689459 163.53039188 722.10183682 163.5125451 739.17684286 C163.50296626 748.73538616 163.50444922 758.29377741 163.52177979 767.85231063 C163.5322458 774.23497741 163.52820207 780.61752802 163.51229975 787.00018331 C163.50364325 790.63822929 163.50130319 794.27597669 163.51656907 797.91400766 C163.53285876 801.83296124 163.51823182 805.7514537 163.50057125 809.6704092 C163.51022176 810.79960802 163.51987227 811.92880683 163.52981523 813.09222379 C163.43909649 822.85627168 160.68974369 830.00388187 154.02197266 837.15966797 C150.43773373 840.42192262 146.40699272 842.71604666 142.1875 845.0625 C140.75712402 845.88258545 140.75712402 845.88258545 139.29785156 846.71923828 C137.25655065 847.88838298 135.21168188 849.05131687 133.16357422 850.20849609 C128.92221972 852.61033737 124.70688597 855.05614922 120.48950195 857.49975586 C116.10264557 860.03916681 111.70835112 862.56557257 107.31445312 865.09277344 C101.87349435 868.22364924 96.43694752 871.36216542 91 874.5 C88.83335502 875.75003758 86.66668834 877.00003756 84.5 878.25 C82.89125 879.178125 82.89125 879.178125 81.25 880.125 C19.5 915.75 19.5 915.75 16.24951172 917.62524414 C14.08442929 918.87435518 11.91939018 920.12354129 9.75439453 921.37280273 C4.31384294 924.51202309 -1.12747216 927.64990563 -6.5703125 930.78515625 C-17.06232209 936.83055225 -27.54472352 942.89126045 -38 949 C-54.88463865 958.86249003 -71.81300145 968.64915522 -88.8125 978.3125 C-89.76713135 978.857854 -90.7217627 979.40320801 -91.70532227 979.96508789 C-92.59276123 980.4677417 -93.4802002 980.97039551 -94.39453125 981.48828125 C-95.16643799 981.92696533 -95.93834473 982.36564941 -96.73364258 982.81762695 C-104.17454743 986.69959423 -111.76737705 987.33221891 -120 986 C-125.75532662 984.03283545 -130.77337444 981.07547421 -136 978 C-137.95708004 976.88321749 -139.9155103 975.76879914 -141.875 974.65625 C-147.46594395 971.46673657 -153.02995097 968.23272944 -158.58886719 964.98779297 C-164.04837499 961.8063363 -169.52475646 958.65427041 -175 955.5 C-177.16413837 954.25143357 -179.32820073 953.0027354 -181.4921875 951.75390625 C-185.85065388 949.23930564 -190.21012191 946.72645339 -194.5703125 944.21484375 C-205.02206199 938.19252671 -215.46299548 932.15330663 -225.875 926.0625 C-234.55262241 920.98724877 -243.26605568 915.97741233 -252 911 C-261.72115617 905.4599827 -271.40894658 899.86625191 -281.06689453 894.21655273 C-291.59084625 888.06233258 -302.15380137 881.97630004 -312.71777344 875.89111328 C-315.98174327 874.01051894 -319.24494189 872.12859454 -322.5078125 870.24609375 C-323.58047363 869.62726318 -324.65313477 869.00843262 -325.75830078 868.37084961 C-327.91062339 867.12870108 -330.06264425 865.88602956 -332.21435547 864.64282227 C-337.23143913 861.74513533 -342.2514144 858.85296113 -347.28442383 855.98303223 C-349.05115824 854.97521977 -350.81675502 853.9654422 -352.58203125 852.95507812 C-354.78553709 851.69467279 -356.99111691 850.43788302 -359.19921875 849.18554688 C-382.10428459 836.06132541 -382.10428459 836.06132541 -386.35043347 824.45488048 C-387.62162674 819.65071123 -387.41405482 814.76913053 -387.38768005 809.82998657 C-387.39306559 808.61739178 -387.39845113 807.40479699 -387.40399987 806.1554569 C-387.41579663 802.80639701 -387.41422458 799.4578372 -387.40683305 796.10879755 C-387.40209209 792.49042124 -387.41461945 788.87209767 -387.42485046 785.2537384 C-387.44202594 778.17144778 -387.44288105 771.08924594 -387.43763756 764.0069399 C-387.43359212 758.24872121 -387.43504386 752.4905287 -387.44038582 746.73231125 C-387.44113424 745.91200011 -387.44188266 745.09168897 -387.44265376 744.24651992 C-387.44418528 742.57992049 -387.44572363 740.91332108 -387.44726873 739.24672167 C-387.46098937 723.62573588 -387.45555926 708.00480021 -387.44408352 692.38381557 C-387.43415266 678.10323976 -387.44709002 663.82279354 -387.47101771 649.54223771 C-387.49541986 634.86758164 -387.50501377 620.1929859 -387.49836498 605.51830995 C-387.49487511 597.28415748 -387.49708948 589.05010466 -387.51461601 580.81596756 C-387.529352 573.80608075 -387.52995531 566.79636373 -387.5125451 559.7864802 C-387.50404394 556.21250913 -387.50186351 552.6388412 -387.51719666 549.06488609 C-387.53363815 545.18442987 -387.51887077 541.30443925 -387.50120544 537.42398071 C-387.51081045 536.30295444 -387.52041546 535.18192817 -387.53031152 534.02693141 C-387.43875459 524.23578456 -385.04599122 515.9946356 -378 509 C-375.72118854 507.33988305 -373.53401225 505.87137745 -371.125 504.4375 C-370.43792969 504.01823242 -369.75085937 503.59896484 -369.04296875 503.16699219 C-361.14950191 498.39831165 -353.08612543 493.91950595 -345.04296875 489.41015625 C-339.094421 486.06727374 -333.19884546 482.63845303 -327.3125 479.1875 C-318.57393464 474.06756023 -309.79985381 469.01353264 -301 464 C-291.27865901 458.46031101 -281.59104908 452.86624937 -271.93310547 447.21655273 C-261.40915375 441.06233258 -250.84619863 434.97630004 -240.28222656 428.89111328 C-234.85340058 425.76319852 -229.42680719 422.63141552 -224 419.5 C-221.83334417 418.24998121 -219.6666775 416.99998122 -217.5 415.75 C-216.4275 415.13125 -215.355 414.5125 -214.25 413.875 C-202.33333333 407 -190.41666667 400.125 -178.5 393.25 C-177.42637207 392.6305249 -176.35274414 392.0110498 -175.24658203 391.37280273 C-173.09156893 390.12967554 -170.93629767 388.88699575 -168.78076172 387.64477539 C-163.77138407 384.75719937 -158.76443838 381.86569015 -153.76715088 378.95724487 C-152.01729819 377.93911289 -150.26659057 376.92246667 -148.515625 375.90625 C-146.33423929 374.63963894 -144.15441975 373.3703247 -141.9765625 372.09765625 C-116.73091584 357.45778383 -116.73091584 357.45778383 -104.52636719 360.64624023 C-96.80075862 363.41905998 -89.87381177 367.22785126 -82.8125 371.375 C-81.58907441 372.08460038 -80.36518937 372.79340916 -79.14086914 373.50146484 C-76.02628408 375.30568665 -72.91791448 377.1202972 -69.81188965 378.93920898 C-65.88020571 381.24105723 -61.9437332 383.53471648 -58.00854492 385.83056641 C-56.03052979 386.98633485 -54.05400839 388.14466544 -52.0793457 389.30615234 C-49.39301311 390.88285553 -46.69908874 392.44524456 -44 394 C-43.01531738 394.57145752 -42.03063477 395.14291504 -41.01611328 395.73168945 C-40.04270996 396.28300537 -39.06930664 396.83432129 -38.06640625 397.40234375 C-37.19056885 397.90241943 -36.31473145 398.40249512 -35.41235352 398.91772461 C-30.79106127 400.99101563 -27.64757811 399.5491927 -23 398 C-21.63370062 394.6612742 -21.87289482 391.12158647 -21.86971474 387.5615263 C-21.86777131 386.91404935 -21.86582788 386.2665724 -21.86382556 385.59947494 C-21.85849385 383.42092676 -21.86026936 381.24244177 -21.86196899 379.06388855 C-21.85955127 377.48975072 -21.85668911 375.91561351 -21.85341966 374.34147722 C-21.84565843 370.00862449 -21.84404681 365.67578759 -21.84336853 361.34292877 C-21.84153026 356.67274167 -21.83392423 352.00256386 -21.82688904 347.3323822 C-21.81535808 339.23698734 -21.80711657 331.14159456 -21.80076981 323.04619408 C-21.79044995 310.25305684 -21.76988824 297.45994562 -21.74765015 284.66682434 C-21.74017029 280.29130467 -21.73275659 275.9157849 -21.72536278 271.54026508 C-21.72258693 269.89998708 -21.72258693 269.89998708 -21.719755 268.22657215 C-21.69882353 255.77596925 -21.67999708 243.32536348 -21.66210938 230.87475586 C-21.66047119 229.7364392 -21.65883301 228.59812253 -21.65714519 227.42531142 C-21.6308551 208.97483245 -21.61221453 190.52435146 -21.59551747 172.07386168 C-21.5781042 153.13805986 -21.54926743 134.20229739 -21.5106281 115.266527 C-21.48721445 103.58285213 -21.4732323 91.8992414 -21.47130047 80.21554289 C-21.46919303 72.21019664 -21.45628007 64.20491421 -21.43482114 56.19959661 C-21.42277947 51.57903135 -21.41564924 46.95859283 -21.42153358 42.3380127 C-21.42682386 38.10825542 -21.41837002 33.87875682 -21.39897721 29.64904276 C-21.39439757 28.11877198 -21.39487777 26.58847596 -21.40092559 25.05821028 C-21.40841619 22.97716316 -21.39745212 20.89698218 -21.38196754 18.81599712 C-21.38061102 17.66039813 -21.37925449 16.50479913 -21.37785685 15.31418198 C-20.78888606 10.14831985 -19.33250815 6.23500755 -15.4375 2.625 C-10.29199882 -0.80533412 -6.09131802 -1.11238591 0 0 Z M-120.1640625 571.75390625 C-121.70320313 572.65302734 -121.70320313 572.65302734 -123.2734375 573.5703125 C-124.37945313 574.22773437 -125.48546875 574.88515625 -126.625 575.5625 C-127.7911293 576.24701002 -128.9578057 576.93058879 -130.125 577.61328125 C-132.55064254 579.03301526 -134.97387561 580.45673795 -137.39550781 581.88330078 C-142.90855046 585.12653857 -148.45604184 588.31001232 -154 591.5 C-156.14463593 592.73809994 -158.28916657 593.97638229 -160.43359375 595.21484375 C-164.38883888 597.49719713 -168.34728146 599.77378439 -172.31021118 602.04275513 C-174.08432545 603.05877184 -175.85769919 604.07606928 -177.63085938 605.09375 C-179.84815314 606.36582292 -182.06681075 607.63552285 -184.28710938 608.90234375 C-188.94993966 611.58042113 -193.58426008 614.29618894 -198.12109375 617.18359375 C-198.82548584 617.6314624 -199.52987793 618.07933105 -200.25561523 618.54077148 C-202.75491549 620.63150873 -203.84924946 622.78580207 -204.25168228 626.02713776 C-204.25243633 626.74831535 -204.25319038 627.46949295 -204.25396729 628.21252441 C-204.25960693 629.04524368 -204.26524658 629.87796295 -204.27105713 630.73591614 C-204.26700867 631.64097397 -204.26296021 632.5460318 -204.25878906 633.47851562 C-204.2622937 634.43827805 -204.26579834 635.39804047 -204.26940918 636.3868866 C-204.27821318 639.56008126 -204.27238196 642.73305306 -204.265625 645.90625 C-204.26697203 648.11055545 -204.26891288 650.31486061 -204.27142334 652.51916504 C-204.2743728 657.13927031 -204.27008262 661.75929825 -204.26074219 666.37939453 C-204.24934782 672.30456955 -204.25590823 678.22956338 -204.26788712 684.15473175 C-204.27511047 688.70657723 -204.27281558 693.25837968 -204.26763153 697.81022644 C-204.26629635 699.99513266 -204.26793814 702.18004278 -204.27259064 704.36494446 C-204.27766359 707.41722987 -204.26993461 710.46922091 -204.25878906 713.52148438 C-204.26283752 714.42654221 -204.26688599 715.33160004 -204.27105713 716.26408386 C-204.26541748 717.09680313 -204.25977783 717.9295224 -204.25396729 718.78747559 C-204.25321323 719.50865318 -204.25245918 720.22983078 -204.25168228 720.97286224 C-203.95457105 723.36590077 -203.25256764 724.94695951 -202 727 C-199.79844202 728.66502236 -199.79844202 728.66502236 -197.1015625 730.109375 C-196.0791748 730.69082275 -195.05678711 731.27227051 -194.00341797 731.87133789 C-192.88854004 732.49129639 -191.77366211 733.11125488 -190.625 733.75 C-189.45528107 734.4109481 -188.28618365 735.07299718 -187.11767578 735.73608398 C-184.66148543 737.12804167 -182.20216909 738.51422459 -179.74023438 739.89599609 C-174.35206064 742.92260206 -168.98903615 745.99313755 -163.62484741 749.0619812 C-161.87337846 750.06342716 -160.12099976 751.06326433 -158.3684082 752.06274414 C-149.51178191 757.11650603 -140.69445244 762.23573562 -131.89990234 767.39672852 C-130.10822687 768.44687323 -128.31314193 769.49122991 -126.51416016 770.52880859 C-124.85045115 771.50234816 -123.20350389 772.50516944 -121.57568359 773.53759766 C-120.8120752 774.00601074 -120.0484668 774.47442383 -119.26171875 774.95703125 C-118.60518311 775.37573486 -117.94864746 775.79443848 -117.2722168 776.22583008 C-112.91078722 777.71181839 -109.08959995 776.49661796 -105.01586914 774.63989258 C-104.03223389 774.06392334 -103.04859863 773.4879541 -102.03515625 772.89453125 C-100.91818359 772.24806641 -99.80121094 771.60160156 -98.65039062 770.93554688 C-97.45431124 770.22806039 -96.25835071 769.52037294 -95.0625 768.8125 C-93.80854794 768.08164289 -92.55398087 767.35184003 -91.29882812 766.62304688 C-88.12191187 764.77508854 -84.95260639 762.91450923 -81.78546143 761.04986572 C-78.15654664 758.91603455 -74.51737534 756.79975613 -70.88012695 754.68017578 C-68.95939331 753.55967998 -67.03995802 752.43695562 -65.12182617 751.31201172 C-59.60298872 748.07906965 -54.06117275 744.89154401 -48.4921875 741.74609375 C-47.21223209 741.02149761 -45.93228414 740.29688829 -44.65234375 739.57226562 C-42.19250806 738.18012613 -39.72840639 736.79596893 -37.26171875 735.41601562 C-27.3057055 730.46316377 -27.3057055 730.46316377 -21 722 C-20.90823039 720.66587187 -20.86946132 719.32766385 -20.86628723 717.99038696 C-20.86202225 717.17731583 -20.85775726 716.36424469 -20.85336304 715.52653503 C-20.85381622 714.63815445 -20.85426941 713.74977386 -20.85473633 712.83447266 C-20.85137772 711.8959697 -20.8480191 710.95746674 -20.84455872 709.99052429 C-20.83504387 706.8816903 -20.83310531 703.77291015 -20.83203125 700.6640625 C-20.82881897 698.50556414 -20.82545492 696.34706601 -20.82194519 694.18856812 C-20.81595254 689.66086319 -20.81410542 685.13317736 -20.81469727 680.60546875 C-20.81479888 674.80256502 -20.80114794 668.99978367 -20.78392506 663.19690895 C-20.77280856 658.73767535 -20.77077795 654.27847136 -20.77130699 649.81922531 C-20.7701263 647.67979892 -20.76569954 645.54037178 -20.75797462 643.40095901 C-20.74818219 640.40865755 -20.75104994 637.41662212 -20.75708008 634.42431641 C-20.75146057 633.53998428 -20.74584106 632.65565216 -20.74005127 631.74452209 C-20.76226058 627.40954671 -20.87354811 623.90307963 -23 620 C-24.73756995 618.35464586 -24.73756995 618.35464586 -26.90234375 617.09375 C-28.11446533 616.33578125 -28.11446533 616.33578125 -29.35107422 615.5625 C-34.04491108 612.79378517 -38.7877571 610.12642784 -43.5625 607.5 C-52.07436119 602.77593905 -60.53872723 597.98492942 -68.9375 593.0625 C-69.90276611 592.49692383 -70.86803223 591.93134766 -71.86254883 591.34863281 C-73.32857544 590.48963379 -73.32857544 590.48963379 -74.82421875 589.61328125 C-81.03885355 585.9720276 -87.26932735 582.35864043 -93.50686646 578.75680542 C-95.21336069 577.77116227 -96.91906711 576.78415555 -98.62475586 575.79711914 C-99.66124268 575.19891357 -100.69772949 574.60070801 -101.765625 573.984375 C-103.13895996 573.19111816 -103.13895996 573.19111816 -104.54003906 572.38183594 C-105.35182617 571.92583008 -106.16361328 571.46982422 -107 571 C-107.68545898 570.60844727 -108.37091797 570.21689453 -109.07714844 569.81347656 C-113.54315838 567.92409806 -116.32078303 569.4851847 -120.1640625 571.75390625 Z " fill="#323232" transform="translate(1727,0)"/>
<path d="M0 0 C1.07507813 -0.02578125 2.15015625 -0.0515625 3.2578125 -0.078125 C12.20194557 0.73322184 19.24392049 4.93279715 26.8125 9.5 C28.94877383 10.76767716 31.0855085 12.03457797 33.22265625 13.30078125 C34.31980957 13.95385254 35.41696289 14.60692383 36.54736328 15.27978516 C41.92169316 18.46179852 47.33578106 21.57400678 52.75 24.6875 C54.9349652 25.94649421 57.11986069 27.2056094 59.3046875 28.46484375 C60.93229004 29.40239502 60.93229004 29.40239502 62.59277344 30.35888672 C68.02159942 33.48680148 73.44819281 36.61858448 78.875 39.75 C81.04165583 41.00001879 83.2083225 42.25001878 85.375 43.5 C143.875 77.25 143.875 77.25 202.375 111 C203.44838623 111.6192334 204.52177246 112.2384668 205.62768555 112.87646484 C207.78549803 114.12141282 209.94321353 115.3665289 212.10083008 116.61181641 C217.65216592 119.81552651 223.20536541 123.0159363 228.76171875 126.2109375 C234.20345622 129.34011104 239.63639426 132.48418938 245.06689453 135.6328125 C247.55435577 137.06534104 250.05280717 138.47488556 252.55859375 139.875 C262.14139209 145.29608025 270.43907204 151.3358759 273.875 162.25 C275.03036122 168.43762128 275.01773774 174.52489641 275.00871277 180.80622864 C275.0121111 182.54420992 275.0121111 182.54420992 275.01557809 184.31730193 C275.02080103 187.52023812 275.02156507 190.72313888 275.02038372 193.92607796 C275.02017916 197.38562362 275.0257037 200.84516099 275.03044128 204.30470276 C275.03873638 211.07762441 275.04149561 217.85053736 275.04205366 224.62346367 C275.04252935 230.13045884 275.04458673 235.63745115 275.04775429 241.14444542 C275.05655763 256.76829127 275.06117415 272.39213026 275.06042381 288.01597861 C275.06036388 289.27856114 275.06036388 289.27856114 275.06030273 290.56665039 C275.06024141 291.83077986 275.06024141 291.83077986 275.06017885 293.1204473 C275.05977244 306.77702888 275.06934162 320.43358287 275.0834411 334.09015647 C275.09781432 348.12292232 275.10471077 362.15567473 275.10384732 376.18844813 C275.10351569 384.06264867 275.10624814 391.93682028 275.11702538 399.81101418 C275.1261428 406.51528872 275.12829542 413.21952124 275.12151595 419.92379931 C275.11825706 423.34174098 275.11817119 426.75960207 275.1268692 430.17753601 C275.13459255 433.88936921 275.12994179 437.60099173 275.12223816 441.31282043 C275.12738172 442.3839465 275.13252529 443.45507256 275.13782471 444.55865699 C275.08555016 455.98111458 273.48193526 465.57387614 265.81152344 474.38793945 C262.09678627 477.95983814 257.6058669 480.2655122 253.125 482.75 C252.07296387 483.34820557 251.02092773 483.94641113 249.93701172 484.56274414 C247.71118807 485.82827635 245.48244018 487.08867754 243.25097656 488.34423828 C238.88987316 490.8061108 234.55560166 493.31294459 230.22167969 495.82226562 C226.96540995 497.70752637 223.70586375 499.58699878 220.4453125 501.46484375 C213.92013757 505.22355381 207.3973655 508.9864175 200.875 512.75 C198.70834417 514.00001879 196.5416775 515.25001878 194.375 516.5 C192.76625 517.428125 192.76625 517.428125 191.125 518.375 C155.37500001 538.99999999 155.37500001 538.99999999 152.12451172 540.87524414 C149.95942929 542.12435518 147.79439018 543.37354129 145.62939453 544.62280273 C140.18884294 547.76202309 134.74752784 550.89990563 129.3046875 554.03515625 C118.85293801 560.05747329 108.41200452 566.09669337 98 572.1875 C88.73169767 577.60822017 79.42035637 582.95059683 70.09158325 588.26620483 C61.84669449 592.96526383 53.6289992 597.70829295 45.4375 602.5 C43.49093264 603.63549763 41.54431876 604.7709155 39.59765625 605.90625 C36.70451957 607.5942013 33.81394699 609.28602664 30.92919922 610.98828125 C28.08281766 612.66758477 25.22957951 614.33468099 22.375 616 C21.53267822 616.50176758 20.69035645 617.00353516 19.82250977 617.52050781 C12.19675156 621.94324724 4.75794949 624.26473016 -4.125 623.25 C-12.496087 620.94405618 -19.77453481 616.85334634 -27.1875 612.4375 C-28.90366624 611.43123385 -30.61984097 610.42498183 -32.33651733 609.41958618 C-34.10371158 608.38316744 -35.86864691 607.34298317 -37.63330078 606.30224609 C-43.107576 603.07852101 -48.6183982 599.91806164 -54.125 596.75 C-56.29183214 595.50028686 -58.45849844 594.25028615 -60.625 593 C-62.23375 592.071875 -62.23375 592.071875 -63.875 591.125 C-84.45833333 579.25 -105.04166667 567.375 -125.625 555.5 C-126.69766113 554.88116943 -127.77032227 554.26233887 -128.87548828 553.62475586 C-131.04057071 552.37564482 -133.20560982 551.12645871 -135.37060547 549.87719727 C-140.81115706 546.73797691 -146.25247216 543.60009437 -151.6953125 540.46484375 C-162.14706199 534.44252671 -172.58799548 528.40330663 -183 522.3125 C-191.6776265 517.23724638 -200.3912091 512.22768607 -209.125 507.25 C-220.97501793 500.49495466 -232.78318295 493.67185038 -244.54101562 486.75732422 C-246.91743479 485.37107971 -249.30637736 484.01084773 -251.703125 482.66015625 C-261.88370282 476.87008835 -268.34847786 471.62719952 -272.29997075 460.31336999 C-273.68339531 455.17665361 -273.67249688 450.19402362 -273.62620544 444.90231323 C-273.63173984 443.70686736 -273.63727424 442.51142149 -273.64297634 441.27974999 C-273.65416207 437.99250485 -273.64761932 434.70587083 -273.63323963 431.41865659 C-273.62206799 427.86170271 -273.63409266 424.3048134 -273.64308167 420.74786377 C-273.6569734 413.79261392 -273.64948857 406.83754633 -273.63440608 399.88230525 C-273.61749875 391.77535956 -273.62076211 383.66845868 -273.62450016 375.5615008 C-273.6303711 361.09386095 -273.61623631 346.62630829 -273.59155273 332.15869141 C-273.56762532 318.13261651 -273.56055292 304.10665805 -273.57104492 290.08056641 C-273.58246284 274.78937469 -273.58437408 259.49823675 -273.56994683 244.20704567 C-273.56842105 242.57560293 -273.5669007 240.94416019 -273.56538582 239.31271744 C-273.564628 238.51010851 -273.56387019 237.70749959 -273.56308941 236.88056918 C-273.55835404 231.23455867 -273.56019265 225.58857224 -273.56445122 219.9425621 C-273.56938567 213.06009246 -273.5633586 206.17773272 -273.54355692 199.29528819 C-273.53370856 195.7862823 -273.52855315 192.27744351 -273.53644943 188.7684288 C-273.54240969 184.96001391 -273.52988183 181.15209016 -273.51268005 177.34371948 C-273.5186901 176.24128147 -273.52470014 175.13884346 -273.53089231 174.00299823 C-273.45923662 165.27276743 -271.95487697 157.26596481 -266.328125 150.328125 C-256.55449101 141.10902343 -242.80109912 135.18117139 -231.17578125 128.6640625 C-225.18431131 125.29693946 -219.24318614 121.84782321 -213.3125 118.375 C-201.70557919 111.58114284 -190.06107048 104.85410119 -178.40722656 98.14111328 C-172.97840058 95.01319852 -167.55180719 91.88141552 -162.125 88.75 C-159.95834417 87.49998121 -157.7916775 86.24998122 -155.625 85 C-154.5525 84.38125 -153.48 83.7625 -152.375 83.125 C-123.125 66.25 -93.875 49.375 -64.625 32.5 C-63.55121094 31.88044434 -62.47742188 31.26088867 -61.37109375 30.62255859 C-59.21766491 29.38032038 -57.06402116 28.13845463 -54.91015625 26.89697266 C-49.88293245 23.99870197 -44.85778998 21.09701928 -39.84057617 18.18145752 C-38.07524789 17.15584372 -36.30921529 16.13145336 -34.54296875 15.10742188 C-32.3358368 13.82728534 -30.13001077 12.54489334 -27.92578125 11.25976562 C-8.70491092 0.12347391 -8.70491092 0.12347391 0 0 Z " fill="#67A557" transform="translate(944.125,357.75)"/>
<path d="M0 0 C1.55460938 -0.04253906 1.55460938 -0.04253906 3.140625 -0.0859375 C12.52043871 1.1119175 20.73142372 6.38482836 28.8125 11 C29.9166626 11.62463135 31.0208252 12.2492627 32.15844727 12.89282227 C39.55837672 17.09091622 46.90847442 21.3683263 54.2265625 25.70703125 C69.55158136 34.77601674 85.04985265 43.55598624 100.51547241 52.38259888 C114.35780945 60.28338446 128.15927101 68.25455132 141.95898438 76.22949219 C145.18068275 78.09102672 148.40271079 79.95198839 151.625 81.8125 C152.69105469 82.42802734 153.75710938 83.04355469 154.85546875 83.67773438 C163.43995597 88.62953042 172.04580293 93.54324868 180.65472412 98.45236206 C189.68958567 103.6062389 198.68525744 108.82413773 207.66137695 114.07958984 C214.83307867 118.2723502 222.03417926 122.41185775 229.25012207 126.52780151 C231.04635908 127.55328504 232.8412318 128.58111766 234.63574219 129.60961914 C239.89042548 132.61885749 245.15297463 135.60815477 250.46484375 138.515625 C262.02373804 144.89118301 270.42296751 150.32120908 274.93458211 163.28519285 C276.34656361 168.63551764 276.28955871 173.87102043 276.23774719 179.37519836 C276.24393209 181.2753171 276.24393209 181.2753171 276.25024194 183.21382207 C276.26104732 186.70250686 276.24714017 190.19070774 276.22892153 193.67934525 C276.21361471 197.45626529 276.22159325 201.23314826 276.22660828 205.01008606 C276.23282644 212.41494842 276.21784569 219.81962331 276.19588266 227.22444973 C276.17101482 235.91678065 276.1682694 244.60907869 276.16647889 253.3014399 C276.16260058 268.8937898 276.14015847 284.48605694 276.10668945 300.07836914 C276.07459032 315.04549498 276.05308292 330.01257758 276.04516602 344.97973633 C276.04443778 346.34979193 276.04443778 346.34979193 276.04369483 347.74752543 C276.04176386 351.4244081 276.03985179 355.10129077 276.03797873 358.77817347 C276.02984823 374.0953744 276.01265937 389.41256732 275.99434257 404.72975898 C275.99026391 408.16062638 275.98653032 411.59149387 275.9831202 415.02236199 C275.96159683 436.44882043 275.91034056 457.87483096 275.788865 479.30097589 C275.7661958 483.31260306 275.74526912 487.32422662 275.72773314 491.3358798 C275.68762118 500.45933475 275.63516999 509.58243775 275.54812562 518.70557958 C275.51111119 522.59951588 275.48007562 526.49324021 275.46564543 530.3873316 C275.45194045 533.98166951 275.41948516 537.57534547 275.37235095 541.16939594 C275.35164105 543.10414892 275.35028778 545.03907896 275.3495549 546.97394264 C275.24481009 553.36994607 275.15993577 557.56688363 270.75 562.375 C267.52658445 565.22359979 264.87962192 566.66147674 260.625 567 C250.64294121 566.38366106 240.96212205 558.869061 232.5625 553.875 C224.18109007 548.93670696 215.75217922 544.10228091 207.25 539.375 C198.09254061 534.27710613 189.01305897 529.06191398 179.97167969 523.76123047 C172.34200535 519.29220882 164.6799412 514.88188853 157 510.5 C156.42066711 510.16929504 155.84133423 509.83859009 155.2444458 509.49786377 C149.19882869 506.0470943 143.15008602 502.60184625 137.09848022 499.16159058 C134.60178361 497.74173763 132.10606631 496.32016864 129.61047363 494.89837646 C127.8828956 493.915068 126.15387997 492.93428656 124.42480469 491.95361328 C118.7924519 488.74487386 113.1959536 485.48311795 107.65625 482.1171875 C106.60888672 481.48151855 105.56152344 480.84584961 104.48242188 480.19091797 C97.53758521 475.57550561 93.8367974 469.39578393 91.75 461.375 C91.18005323 455.2992103 91.22594576 449.25412439 91.26757812 443.15649414 C91.26538934 441.32067068 91.26138816 439.48484862 91.25572205 437.64903259 C91.24718852 433.71162069 91.25089624 429.77448205 91.2641449 425.83708382 C91.28456173 419.60365585 91.27446949 413.37050049 91.2598877 407.1370697 C91.23091351 392.77997411 91.24157315 378.42295988 91.25258636 364.0658493 C91.26227379 350.9043322 91.26348486 337.74295839 91.23270559 324.58146566 C91.21937282 318.39248948 91.22523372 312.20392599 91.24607086 306.01497471 C91.25508956 302.15650033 91.24755345 298.29818321 91.23565865 294.43972206 C91.2335374 292.65922761 91.23819288 290.87870927 91.2503643 289.09825516 C91.32672006 277.25535201 91.02264916 265.90013495 82.38867188 256.82421875 C79.64707678 254.39958995 76.70363856 252.62389524 73.5 250.875 C71.98304478 250.01437251 70.46611969 249.15369191 68.94921875 248.29296875 C68.12083496 247.82938965 67.29245117 247.36581055 66.43896484 246.88818359 C62.46758186 244.65333416 58.52766177 242.36493442 54.58447266 240.08081055 C51.27240568 238.16429962 47.954809 236.25762261 44.63671875 234.3515625 C40.53566957 231.99150816 36.44665618 229.61378573 32.37321472 227.20643616 C30.60078756 226.15951629 28.8260332 225.11665641 27.05053711 224.07495117 C24.8213957 222.76536435 22.59668302 221.44819984 20.37719727 220.12231445 C12.71078314 215.63577174 5.85872782 212.4486887 -3.25 213.375 C-11.95660949 215.84509736 -19.5581034 220.12792724 -27.3125 224.6875 C-28.53069295 225.39526922 -29.74937113 226.10220385 -30.96850586 226.80834961 C-33.48016116 228.26453959 -35.98905912 229.72532352 -38.49609375 231.18945312 C-42.14310665 233.31671985 -45.80395479 235.41918084 -49.46875 237.515625 C-50.63147926 238.18179711 -51.79415907 238.84805555 -52.95678711 239.5144043 C-55.1237958 240.75627607 -57.29124506 241.99737953 -59.45922852 243.23754883 C-78.11445023 253.22373955 -78.11445023 253.22373955 -89.25 270.375 C-89.97408923 276.43090379 -89.92142565 282.44191156 -89.87768555 288.53344727 C-89.88287051 290.36266812 -89.89027527 292.19188382 -89.89971924 294.02108765 C-89.91522981 297.94381452 -89.9151499 301.86611381 -89.90271568 305.78885078 C-89.88310662 311.99656766 -89.89841262 318.20390738 -89.91816711 324.41160583 C-89.94527348 334.23206511 -89.94881606 344.05236966 -89.94239408 353.87285894 C-89.93144307 371.45718544 -89.95611597 389.04146529 -89.99614173 406.62574428 C-90.0091856 412.79175965 -90.01048797 418.95763329 -90.0020088 425.12365544 C-89.99837483 428.96341536 -90.00269444 432.80313931 -90.0088501 436.64289474 C-90.00993218 438.41777492 -90.00759346 440.19266114 -90.0015049 441.9675312 C-89.93003324 463.85997931 -89.93003324 463.85997931 -94.9375 471.0625 C-95.39511719 471.74699219 -95.85273438 472.43148438 -96.32421875 473.13671875 C-102.3798235 480.17497742 -110.03098356 484.34150314 -118.0625 488.8125 C-119.3123474 489.51604234 -120.5616877 490.22048621 -121.81054688 490.92578125 C-123.733298 492.01144759 -125.65636961 493.09649992 -127.58108521 494.17868042 C-133.83307324 497.69409202 -140.04345109 501.28004908 -146.25 504.875 C-158.71514073 512.07863999 -171.21362115 519.22330173 -183.71777344 526.35888672 C-188.98204742 529.36322675 -194.24428464 532.37113061 -199.50668335 535.37875366 C-201.24173786 536.37027846 -202.97694767 537.36153149 -204.7121582 538.3527832 C-210.12126103 541.44288393 -215.52958595 544.53431318 -220.93496704 547.63092041 C-223.45477467 549.07433698 -225.9750514 550.51693337 -228.49536133 551.95947266 C-230.24801322 552.96307367 -231.9999961 553.96784274 -233.75195312 554.97265625 C-236.91328306 556.78181711 -240.08122088 558.57892882 -243.25 560.375 C-244.26070557 560.95910645 -245.27141113 561.54321289 -246.31274414 562.14501953 C-247.2743042 562.69013184 -248.23586426 563.23524414 -249.2265625 563.796875 C-250.06912598 564.27995117 -250.91168945 564.76302734 -251.77978516 565.26074219 C-255.92537286 567.13072265 -259.82935829 567.29015039 -264.25 566.375 C-269.38308791 563.76179161 -272.4297908 560.83562759 -274.25 555.375 C-274.34731645 553.22230797 -274.38277348 551.06666677 -274.38701439 548.91178036 C-274.38966622 548.2494723 -274.39231804 547.58716425 -274.39505023 546.90478626 C-274.40275288 544.66974061 -274.40330277 542.43474982 -274.40390015 540.19969177 C-274.40791414 538.58730671 -274.41235226 536.97492266 -274.4171797 535.36253983 C-274.42915823 530.9192078 -274.43479662 526.47588664 -274.43936086 522.03254163 C-274.44531216 517.24503005 -274.45692324 512.45753149 -274.46765137 507.67002869 C-274.49218699 496.10124215 -274.50680463 484.5324513 -274.51971143 472.96364674 C-274.52342265 469.69666482 -274.52739594 466.42968334 -274.5314641 463.16270185 C-274.55670092 442.88026143 -274.57875661 422.59782035 -274.59119225 402.3153677 C-274.594122 397.61608821 -274.59708366 392.91680874 -274.60009766 388.2175293 C-274.60084371 387.04952792 -274.60158976 385.88152653 -274.60235842 384.67813117 C-274.61501182 365.75750864 -274.64823392 346.83698009 -274.68989949 327.9164015 C-274.7323158 308.49586448 -274.75588697 289.07537558 -274.76111281 269.65479237 C-274.76452737 258.74893296 -274.77628781 247.84322038 -274.80921555 236.93740654 C-274.83721306 227.64919703 -274.84821668 218.36116445 -274.83702008 209.07291602 C-274.83183261 204.3344164 -274.83472602 199.59628731 -274.85948563 194.85784149 C-274.88197939 190.51675407 -274.88123739 186.17630332 -274.86228175 181.83520473 C-274.85948191 180.26782336 -274.86507952 178.7003988 -274.88009469 177.13308685 C-274.98149535 165.85583105 -273.34077143 156.78058744 -265.25 148.375 C-262.9296875 146.6640625 -262.9296875 146.6640625 -260.125 145 C-259.5791626 144.67386719 -259.0333252 144.34773437 -258.47094727 144.01171875 C-256.40502935 142.78585536 -254.3283141 141.57973101 -252.25 140.375 C-250.91412842 139.59721191 -250.91412842 139.59721191 -249.55126953 138.80371094 C-235.98412108 130.9132781 -222.34969038 123.13953993 -208.71899414 115.35961914 C-196.53884955 108.40599414 -184.39331287 101.39269663 -172.25 94.375 C-158.30155632 86.31410696 -144.33996112 78.27790574 -130.34527588 70.29763794 C-122.28736788 65.70105777 -114.25582214 61.0617584 -106.25 56.375 C-96.47497235 50.65251551 -86.65213044 45.0165656 -76.8125 39.40625 C-68.94462262 34.91944073 -61.09216092 30.4066376 -53.25 25.875 C-51.13028941 24.65220319 -49.01049707 23.42954809 -46.890625 22.20703125 C-43.4220385 20.20668759 -39.95455677 18.20449454 -36.49023438 16.19677734 C-33.28448483 14.33912729 -30.07559501 12.48700445 -26.86474609 10.63818359 C-25.63542231 9.929045 -24.40720315 9.21798753 -23.18017578 8.50488281 C-21.47201536 7.51250051 -19.75952041 6.52759068 -18.046875 5.54296875 C-16.58266113 4.69641724 -16.58266113 4.69641724 -15.08886719 3.83276367 C-10.07111977 1.25614088 -5.63150508 0.06935351 0 0 Z " fill="#323232" transform="translate(274.25,352.625)"/>
<path d="M0 0 C16.39299994 0.21889763 33.58359406 14.24822606 47.15039062 22.16796875 C52.65341382 25.37361333 58.17560459 28.54586085 63.6953125 31.72265625 C72.99191959 37.08180316 82.26720542 42.476502 91.53173828 47.89086914 C98.8634377 52.17260566 106.213178 56.42229385 113.5703125 60.66015625 C126.92046915 68.35133094 140.22764378 76.11498585 153.52929688 83.88964844 C165.95113841 91.14868767 178.39189671 98.37319796 190.85888672 105.55444336 C199.09291616 110.30021618 207.30632026 115.08038409 215.50927734 119.87963867 C221.91914064 123.62604038 228.35095085 127.33213586 234.79394531 131.02124023 C240.06555782 134.04564439 245.32335898 137.09318481 250.5703125 140.16015625 C251.3634082 140.62325195 252.15650391 141.08634766 252.97363281 141.56347656 C262.78393526 147.35456045 269.91139285 153.00300367 273.5703125 164.16015625 C273.8499624 167.02401686 273.9916044 169.66552849 273.97436523 172.52294922 C273.98466011 173.73174744 273.98466011 173.73174744 273.99516296 174.96496582 C274.01336221 177.61094119 274.00960293 180.25631963 274.00390625 182.90234375 C274.00847179 184.75408112 274.01377847 186.60581681 274.01979065 188.45755005 C274.0287086 192.33261003 274.02631415 196.20746378 274.01635742 200.08251953 C274.00487737 205.03092885 274.02507114 209.97862353 274.05427456 214.92693901 C274.07268549 218.74985219 274.07233424 222.57259572 274.06663704 226.39554214 C274.06648438 228.21906663 274.07248259 230.04260303 274.08492851 231.86608505 C274.1925038 250.2121591 274.1925038 250.2121591 269.5703125 257.16015625 C269.06153564 257.95156006 268.55275879 258.74296387 268.02856445 259.55834961 C263.30818624 264.96155456 258.00776781 268.28088884 251.7578125 271.72265625 C250.71173828 272.315625 249.66566406 272.90859375 248.58789062 273.51953125 C246.37476774 274.77402871 244.15838328 276.02278766 241.93896484 277.26611328 C236.45505101 280.34947344 231.01549644 283.50908207 225.5703125 286.66015625 C223.38553352 287.91947359 221.20063787 289.17858853 219.015625 290.4375 C208.84432663 296.30579192 198.70832023 302.23460784 188.5703125 308.16015625 C175.17748408 315.98810976 161.76974978 323.78838088 148.32568359 331.52807617 C142.80878315 334.70642612 137.29984227 337.897457 131.8046875 341.11328125 C130.71542969 341.75072266 129.62617188 342.38816406 128.50390625 343.04492188 C126.43779094 344.25543729 124.37262858 345.46758122 122.30859375 346.68164062 C107.73651948 355.22075488 107.73651948 355.22075488 100.5703125 354.16015625 C96.4146849 352.56183794 93.26975185 350.72727253 90.5703125 347.16015625 C88.96667347 341.78725608 88.32041782 337.10262421 88.31494141 331.46240234 C88.30951073 330.37782997 88.30951073 330.37782997 88.30397034 329.27134705 C88.29712898 327.71691515 88.29456091 326.16245951 88.29591751 324.60801315 C88.29689064 322.14399974 88.28385068 319.68041316 88.26693726 317.21646118 C88.22088651 310.21660564 88.19604795 303.21679898 88.18945312 296.21679688 C88.18443274 291.92151619 88.16016664 287.62668898 88.12412643 283.33156204 C88.11435043 281.70097198 88.11198447 280.07031942 88.11729813 278.43970871 C88.12438661 276.15902002 88.10705531 273.87968215 88.08447266 271.59912109 C88.08162262 270.30420746 88.07877258 269.00929382 88.07583618 267.67514038 C87.36827266 262.75534211 85.34637362 259.50351585 81.38574219 256.5078125 C80.59586914 256.08371094 79.80599609 255.65960937 78.9921875 255.22265625 C78.09153564 254.72789795 77.19088379 254.23313965 76.26293945 253.72338867 C75.29187256 253.20752197 74.32080566 252.69165527 73.3203125 252.16015625 C71.22431242 251.01214579 69.12928924 249.86235028 67.03515625 248.7109375 C65.95991699 248.12393066 64.88467773 247.53692383 63.77685547 246.93212891 C58.75973227 244.15960871 53.82260187 241.25504674 48.8828125 238.34765625 C38.54716806 232.28835567 28.15642401 226.32949491 17.74536133 220.40112305 C16.62154053 219.76086182 15.49771973 219.12060059 14.33984375 218.4609375 C13.34573486 217.89544189 12.35162598 217.32994629 11.32739258 216.74731445 C9.5099545 215.70107652 7.70818551 214.62706472 5.92456055 213.52416992 C2.39871364 211.48135061 -0.41807886 210.65870517 -4.4296875 211.16015625 C-9.35175414 213.03130272 -13.8739274 215.54619554 -18.4296875 218.16015625 C-19.04924316 218.51513184 -19.66879883 218.87010742 -20.30712891 219.23583984 C-23.7258493 221.20943404 -27.12201921 223.21923029 -30.51171875 225.2421875 C-36.26333818 228.66886157 -42.06590392 232.00599632 -47.8671875 235.34765625 C-49.50276611 236.29402954 -49.50276611 236.29402954 -51.17138672 237.25952148 C-56.39971209 240.28142204 -61.63507053 243.28525921 -66.90962219 246.22557068 C-68.71708618 247.23426538 -70.52122351 248.24866787 -72.32446289 249.26489258 C-74.59453731 250.54189901 -76.87083895 251.80791659 -79.15405273 253.0612793 C-85.96450554 256.91136266 -89.90247414 259.57851618 -92.4296875 267.16015625 C-92.53666446 270.05950606 -92.58695434 272.93516765 -92.59082031 275.83496094 C-92.59578522 276.72148346 -92.60075012 277.60800598 -92.60586548 278.52139282 C-92.62048633 281.45828017 -92.62728955 284.39511347 -92.6328125 287.33203125 C-92.63856471 289.3736369 -92.64432244 291.41524253 -92.65008545 293.45684814 C-92.6605957 297.74076591 -92.66643798 302.02466491 -92.66992188 306.30859375 C-92.6754018 311.79075205 -92.6994191 317.27266137 -92.72789383 322.75474167 C-92.74654421 326.9738639 -92.75172713 331.19292651 -92.75325775 335.41208649 C-92.75628018 337.43264373 -92.76429485 339.45320002 -92.77744293 341.47371674 C-92.79455087 344.30525983 -92.79261136 347.13619923 -92.78613281 349.96777344 C-92.79995499 351.21335526 -92.79995499 351.21335526 -92.8140564 352.48410034 C-92.77214261 358.34983233 -91.94022164 363.45213075 -87.79101562 367.92773438 C-82.04465983 371.89560225 -76.0578776 375.31663791 -69.9296875 378.66015625 C-61.43320607 383.35566233 -52.9883026 388.11947796 -44.6171875 393.03515625 C-36.00095072 398.08757205 -27.35531463 403.08553918 -18.6796875 408.03515625 C-18.09669891 408.36785522 -17.51371033 408.7005542 -16.91305542 409.04333496 C-12.75282202 411.4171696 -8.59140244 413.78892019 -4.4296875 416.16015625 C0.32113451 418.86705007 5.07133931 421.57501998 9.8203125 424.28515625 C10.69419113 424.78372131 10.69419113 424.78372131 11.58572388 425.2923584 C19.67204668 429.90766065 27.72568637 434.57616692 35.7578125 439.28515625 C43.81045435 444.00544035 51.91507672 448.6195029 60.0703125 453.16015625 C69.22601307 458.25784608 78.30475914 463.47100179 87.34423828 468.77172852 C95.01518479 473.26567352 102.72209591 477.694378 110.4453125 482.09765625 C123.84551459 489.74174346 137.23813678 497.39772791 150.5703125 505.16015625 C151.33585449 505.60391602 152.10139648 506.04767578 152.89013672 506.50488281 C154.74883128 507.58709345 156.59899758 508.68200012 158.4453125 509.78515625 C159.83363281 510.60886719 159.83363281 510.60886719 161.25 511.44921875 C164.87956061 514.12556142 167.14353792 516.87983252 168.5703125 521.16015625 C168.98023833 526.07926617 169.06621864 530.11507443 166.23046875 534.40234375 C158.77895745 542.29217925 146.47592587 546.97258996 137.05688477 552.03417969 C130.07580677 555.78616721 123.14800859 559.61893368 116.2578125 563.53515625 C104.55145801 570.1858075 92.78516972 576.72547733 81.00976562 583.25292969 C76.48299972 585.76308693 71.95826423 588.27688856 67.43383789 590.79125977 C65.19635182 592.03448804 62.95856005 593.2771663 60.72045898 594.51928711 C55.5510148 597.38877787 50.38387473 600.26214517 45.22584534 603.15209961 C23.44259033 615.35667188 23.44259033 615.35667188 14.1328125 620.03515625 C13.50673096 620.350896 12.88064941 620.66663574 12.2355957 620.99194336 C5.37055218 624.36856086 -1.46612764 625.49048722 -8.98022461 623.4765625 C-15.94996475 620.95471602 -22.10591212 617.69092966 -28.4296875 613.84765625 C-30.54274758 612.58858588 -32.65739245 611.33217222 -34.7734375 610.078125 C-36.40925781 609.10818604 -36.40925781 609.10818604 -38.078125 608.11865234 C-43.64113305 604.86789109 -49.2852533 601.76666336 -54.9296875 598.66015625 C-64.54134601 593.35764471 -74.05640663 587.91595793 -83.52050781 582.35498047 C-91.55486356 577.64422724 -99.66485599 573.07998019 -107.80004883 568.54614258 C-115.64095563 564.17243128 -123.45015444 559.74519431 -131.2421875 555.28515625 C-132.11586975 554.78511078 -132.11586975 554.78511078 -133.00720215 554.27496338 C-135.96562282 552.58141911 -138.92358616 550.88707799 -141.88134766 549.19238281 C-145.40000268 547.1766466 -148.92041142 545.16398956 -152.44140625 543.15234375 C-153.018302 542.82274658 -153.59519775 542.49314941 -154.1895752 542.15356445 C-155.93624921 541.15570905 -157.68296081 540.15791946 -159.4296875 539.16015625 C-165.87363895 535.47924973 -172.3175193 531.79823982 -178.75662231 528.1088562 C-181.70971766 526.41687785 -184.66331739 524.72578161 -187.6171875 523.03515625 C-188.19819214 522.70259827 -188.77919678 522.37004028 -189.37780762 522.02740479 C-197.61754262 517.3134552 -205.88784419 512.65681811 -214.1796875 508.03515625 C-226.35951909 501.24008212 -238.42386738 494.25774847 -250.4296875 487.16015625 C-251.16300293 486.72912598 -251.89631836 486.2980957 -252.65185547 485.85400391 C-254.47900769 484.77723324 -256.29959858 483.69046948 -258.1171875 482.59765625 C-259.04917969 482.03949219 -259.98117187 481.48132813 -260.94140625 480.90625 C-267.93950572 475.99549574 -273.01928115 469.61164463 -274.55834579 461.13904667 C-275.56278084 455.11179019 -275.70917679 449.22199352 -275.68365479 443.12290955 C-275.68677477 441.96083766 -275.68989475 440.79876577 -275.69310927 439.60147959 C-275.69966159 436.40753878 -275.69736417 433.21375251 -275.69113684 430.0198158 C-275.68658454 426.56306322 -275.69360976 423.10633046 -275.69909668 419.64958191 C-275.70796257 412.8905642 -275.7060813 406.13159105 -275.7002714 399.37257164 C-275.69574421 393.87711134 -275.69514656 388.38166349 -275.69731903 382.88620186 C-275.6976255 382.10237688 -275.69793196 381.31855191 -275.69824772 380.51097466 C-275.6988872 378.91838085 -275.69953563 377.32578704 -275.7001929 375.73319323 C-275.70588788 360.82038782 -275.69935118 345.90760706 -275.68859217 330.9948057 C-275.67965566 318.21258926 -275.68121113 305.43040915 -275.69042969 292.64819336 C-275.70114402 277.78513175 -275.70534047 262.92209171 -275.69920516 248.05902678 C-275.6985681 246.47278281 -275.69793935 244.88653885 -275.69731903 243.30029488 C-275.69701048 242.51993955 -275.69670193 241.73958422 -275.69638403 240.93558175 C-275.69466071 235.44934289 -275.69756432 229.96311776 -275.70227814 224.47688103 C-275.70789982 217.78733798 -275.70634343 211.09784185 -275.69571665 204.40830415 C-275.6904775 200.99843893 -275.68837309 197.58865179 -275.69501495 194.17878723 C-275.70049207 190.47592041 -275.69360973 186.77327226 -275.68365479 183.07041931 C-275.68811623 182.00202173 -275.69257767 180.93362414 -275.69717431 179.83285087 C-275.65424304 171.58151695 -275.19508125 163.12119403 -270.8046875 155.91015625 C-270.35867188 155.141875 -269.91265625 154.37359375 -269.453125 153.58203125 C-263.68926004 146.68319674 -255.26140307 142.5854724 -247.5546875 138.22265625 C-245.81807673 137.23030724 -244.08147063 136.23794993 -242.34515381 135.24508667 C-240.55425211 134.22185005 -238.7620839 133.20086009 -236.96972656 132.18017578 C-231.44298514 129.03010311 -225.93758931 125.84301145 -220.4296875 122.66015625 C-218.26311852 121.40998695 -216.09645158 120.15998738 -213.9296875 118.91015625 C-212.8571875 118.29140625 -211.7846875 117.67265625 -210.6796875 117.03515625 C-164.09635417 90.16015625 -117.51302083 63.28515625 -70.9296875 36.41015625 C-69.8562207 35.79084229 -68.78275391 35.17152832 -67.67675781 34.53344727 C-65.51987847 33.28910627 -63.36297758 32.04480261 -61.20605469 30.80053711 C-54.49193757 26.92728131 -47.77848766 23.05287335 -41.06616211 19.17651367 C-38.83614706 17.88988614 -36.60521242 16.60485093 -34.37329102 15.3215332 C-29.89836267 12.74795892 -25.4275179 10.17274083 -21.00390625 7.51171875 C-13.95911365 3.29409475 -8.2101537 0.54118376 0 0 Z " fill="#333333" transform="translate(2286.4296875,355.83984375)"/>
<path d="M0 0 C5.76328879 3.47065791 11.59422634 6.82151173 17.42578125 10.17578125 C19.67189566 11.47001622 21.91798915 12.76428751 24.1640625 14.05859375 C26.4387725 15.36854095 28.71351194 16.67843704 30.98828125 17.98828125 C44.66407075 25.86447458 58.32789411 33.75948409 71.95410156 41.72119141 C82.51448407 47.88747179 93.10954891 53.99324075 103.70605469 60.09716797 C109.13488067 63.22508273 114.56147406 66.35686573 119.98828125 69.48828125 C122.15493708 70.73830004 124.32160375 71.98830003 126.48828125 73.23828125 C139.48828125 80.73828125 152.48828125 88.23828125 165.48828125 95.73828125 C166.56198975 96.35767578 167.63569824 96.97707031 168.74194336 97.61523438 C170.89658749 98.85840425 173.05104882 100.101891 175.20532227 101.34570312 C180.21582246 104.23811272 185.2279076 107.12763352 190.24691772 110.00524902 C192.00556874 111.01376439 193.76361334 112.02332895 195.52148438 113.03320312 C197.71300356 114.29178643 199.90562629 115.54845112 202.09960938 116.80273438 C219.82797277 126.99341212 233.64451199 135.55914604 240.26171875 155.87109375 C242.05633257 163.57056594 242.13404496 171.32342612 242.12199402 179.19537354 C242.12539235 180.84086311 242.12539235 180.84086311 242.12885934 182.51959491 C242.13516645 186.17876422 242.13437209 189.83789618 242.13354492 193.49707031 C242.13653846 196.12751818 242.13994144 198.75796562 242.14372253 201.38841248 C242.15200593 207.78239873 242.15477633 214.17637577 242.15533491 220.57036695 C242.15581117 225.77122446 242.15787138 230.97207894 242.16103554 236.17293549 C242.16983579 250.93970521 242.1744559 265.70646768 242.17370506 280.47324005 C242.17364513 281.66573671 242.17364513 281.66573671 242.17358398 282.88232422 C242.17352266 284.07628796 242.17352266 284.07628796 242.1734601 285.29437217 C242.17305381 298.18898375 242.18262086 311.0835661 242.19672235 323.97816923 C242.2111094 337.23921453 242.21799126 350.5002456 242.21712857 363.76129889 C242.21679741 371.1979367 242.21950909 378.63454387 242.23030663 386.07117462 C242.23944232 392.40348199 242.24156179 398.73574483 242.2347972 405.06805596 C242.23154742 408.29398925 242.2325207 411.51982014 242.24015045 414.74574852 C242.28776574 436.27969305 242.190184 454.64084332 227.05078125 471.48828125 C222.16313073 476.10323024 216.26591617 479.26087026 210.46484375 482.57324219 C207.68498688 484.16157524 204.91454759 485.76566225 202.14453125 487.37109375 C196.57388081 490.59618461 190.99564935 493.80793296 185.41552734 497.01660156 C179.93672337 500.16853352 174.46264238 503.32864128 168.98828125 506.48828125 C162.46598964 510.25199165 155.94314357 514.0147275 149.41796875 517.7734375 C138.96621926 523.79575454 128.52528577 529.83497462 118.11328125 535.92578125 C108.84328348 541.34749303 99.52996373 546.6903304 90.1998291 552.00750732 C81.07545285 557.20873254 71.98695351 562.46856003 62.92138672 567.77172852 C52.4048027 573.92164017 41.84913724 580.00319947 31.29248047 586.08398438 C26.85198006 588.6431615 22.41400722 591.20670331 17.97631836 593.77075195 C15.79198336 595.03152316 13.6066132 596.29050277 11.42016602 597.54760742 C6.28656007 600.49936241 1.16581807 603.46846366 -3.92578125 606.4921875 C-4.85994873 607.04108643 -5.79411621 607.58998535 -6.7565918 608.15551758 C-8.47768759 609.16720168 -10.19331093 610.1882922 -11.90161133 611.22143555 C-20.39082803 616.17985587 -29.11528044 618.56777566 -38.94921875 618.42578125 C-39.72571777 618.41603271 -40.5022168 618.40628418 -41.30224609 618.39624023 C-54.57137536 617.99026708 -64.89256755 611.59000978 -76.01171875 604.98828125 C-78.03764231 603.79407045 -80.0636929 602.60007512 -82.08984375 601.40625 C-87.27218243 598.34670491 -92.44626465 595.27356455 -97.61727905 592.19494629 C-101.80317547 589.70396014 -105.99554042 587.22415121 -110.19140625 584.75 C-144.4756888 564.5243112 -144.4756888 564.5243112 -147.01171875 561.98828125 C-147.05235707 560.3221101 -147.05443975 558.6544003 -147.01171875 556.98828125 C-142.73436204 555.0440282 -138.44981442 553.15194776 -134.0859375 551.41015625 C-132.64426554 550.83269416 -131.20286696 550.25454919 -129.76171875 549.67578125 C-129.02783936 549.38106934 -128.29395996 549.08635742 -127.5378418 548.78271484 C-121.70274343 546.38813772 -116.34700363 543.53543592 -110.94140625 540.2734375 C-107.22812884 538.64454648 -105.04261396 538.44623984 -101.01171875 538.98828125 C-98.00345522 540.29403645 -95.32372732 542.02287111 -92.57421875 543.80078125 C-90.82010386 544.89368402 -89.06480589 545.98468929 -87.30859375 547.07421875 C-85.8380957 547.99412598 -85.8380957 547.99412598 -84.33789062 548.93261719 C-78.42596591 552.58634635 -72.44101591 556.11755358 -66.46139526 559.6590271 C-64.36211821 560.90331736 -62.26492648 562.15105418 -60.16821289 563.3996582 C-57.58765091 564.93576518 -55.00259155 566.46374021 -52.41259766 567.98388672 C-50.34164034 569.20445812 -48.27896218 570.43941629 -46.23193359 571.69970703 C-45.45156738 572.16747559 -44.67120117 572.63524414 -43.8671875 573.1171875 C-43.2280542 573.51107666 -42.5889209 573.90496582 -41.93041992 574.31079102 C-39.23398858 575.2628965 -37.73195404 574.83046407 -35.01171875 573.98828125 C-33.0530179 573.02202583 -31.13198183 571.97772616 -29.2421875 570.8828125 C-27.55706055 569.91311523 -27.55706055 569.91311523 -25.83789062 568.92382812 C-24.62491121 568.21629804 -23.4120229 567.50861172 -22.19921875 566.80078125 C-20.93588516 566.07037811 -19.67220844 565.34056818 -18.40820312 564.61132812 C-14.60373005 562.41329684 -10.80696004 560.20220418 -7.01171875 557.98828125 C-5.95291504 557.37130371 -4.89411133 556.75432617 -3.80322266 556.11865234 C0.10139533 553.84218037 4.00495186 551.56392683 7.90551758 549.28051758 C16.16364972 544.45106102 24.46744287 539.70380803 32.77929688 534.96777344 C40.87572258 530.35325321 48.94634634 525.6973287 56.98828125 520.98828125 C65.62325682 515.93197202 74.29434444 510.94221003 82.98828125 505.98828125 C92.70952631 500.44842192 102.39722993 494.85453193 112.05517578 489.20483398 C124.7618825 481.77417746 137.52390718 474.4394237 150.27929688 467.09277344 C156.76333238 463.35761454 163.24472372 459.61793594 169.72314453 455.87304688 C172.5429568 454.24534008 175.3652224 452.6219873 178.18859863 451.00047302 C180.97841394 449.39643729 183.76423758 447.78549177 186.55078125 446.17578125 C187.5867041 445.58273193 188.62262695 444.98968262 189.68994141 444.37866211 C190.63530762 443.83089111 191.58067383 443.28312012 192.5546875 442.71875 C193.38943604 442.23817139 194.22418457 441.75759277 195.08422852 441.26245117 C197.1272421 440.12254637 197.1272421 440.12254637 197.98828125 437.98828125 C198.08580372 436.4964853 198.12106381 435.00040824 198.12529564 433.50543404 C198.13037018 432.55643514 198.13544472 431.60743624 198.14067304 430.6296798 C198.1411708 429.57989602 198.14166856 428.53011225 198.1421814 427.44851685 C198.14875478 425.7840976 198.14875478 425.7840976 198.15546095 424.08605373 C198.16888802 420.34268651 198.17503653 416.59934285 198.18115234 412.85595703 C198.18905009 410.18238139 198.19731341 407.50880881 198.20593262 404.8352356 C198.23046678 396.79446236 198.24508413 388.75368292 198.25799268 380.71288377 C198.26170352 378.44291237 198.26567682 376.17294158 198.26974535 373.90297079 C198.29497792 359.81467961 198.3170367 345.72638748 198.3294735 331.63807869 C198.33240331 328.37411623 198.33536496 325.11015379 198.33837891 321.84619141 C198.33949798 320.62929095 198.33949798 320.62929095 198.34063967 319.38780664 C198.35330079 306.2376552 198.38653361 293.08763874 198.42818074 279.93755044 C198.47056288 266.44511882 198.49416411 252.95275639 198.49939406 239.46025836 C198.50281215 231.88120075 198.51461397 224.30235418 198.5474968 216.72336197 C198.57544734 210.27053422 198.58651876 203.81796075 198.57530133 197.36507715 C198.57010186 194.07125099 198.5757896 190.77807141 198.59776688 187.48429871 C198.62028382 183.91641911 198.6122435 180.34989698 198.59628296 176.78201294 C198.61016505 175.73669061 198.62404713 174.69136828 198.63834989 173.61436951 C198.68313202 167.95367291 198.68313202 167.95367291 195.6091404 163.41323662 C194.74425688 162.94300135 193.87937336 162.47276608 192.98828125 161.98828125 C192.14950439 161.46258545 191.31072754 160.93688965 190.4465332 160.39526367 C189.10014771 159.6272644 189.10014771 159.6272644 187.7265625 158.84375 C186.70369141 158.25722656 185.68082031 157.67070313 184.62695312 157.06640625 C183.52931641 156.4425 182.43167969 155.81859375 181.30078125 155.17578125 C180.13841408 154.51086713 178.97630944 153.84549388 177.81445312 153.1796875 C175.40286665 151.79818995 172.99016781 150.4186656 170.57666016 149.04052734 C165.0365717 145.8748957 159.51334144 142.68004238 153.98828125 139.48828125 C151.82169329 138.23814484 149.65502637 136.98814525 147.48828125 135.73828125 C30.48828125 68.23828125 30.48828125 68.23828125 27.23706055 66.36254883 C25.07449542 65.11493385 22.91189786 63.86737509 20.74926758 62.61987305 C14.1581887 58.8177285 7.56804506 55.01397428 0.97973633 51.20703125 C-1.20253706 49.94794675 -3.38626875 48.69138604 -5.5715332 47.4375 C-10.7672905 44.45466964 -15.93854901 41.44207472 -21.06640625 38.34375 C-22.01862061 37.7768042 -22.97083496 37.2098584 -23.9519043 36.62573242 C-25.72822463 35.56701204 -27.49605139 34.49385044 -29.25317383 33.40356445 C-32.83517692 31.28707562 -35.24071516 30.02604111 -39.44140625 29.8203125 C-44.50948072 31.47824933 -48.8675484 33.9742308 -53.44921875 36.67578125 C-54.45637939 37.25739014 -55.46354004 37.83899902 -56.5012207 38.43823242 C-59.67825733 40.27671437 -62.84558807 42.13109204 -66.01171875 43.98828125 C-67.96451068 45.12687351 -69.9176281 46.26490775 -71.87109375 47.40234375 C-74.807454 49.11351343 -77.74281128 50.82630886 -80.67553711 52.54370117 C-88.42399872 57.078854 -96.21091539 61.54410401 -104.01171875 65.98828125 C-112.70582035 70.94191624 -121.37674763 75.93197463 -130.01171875 80.98828125 C-139.23972404 86.39184585 -148.51166545 91.71480486 -157.80273438 97.00878906 C-165.89916008 101.62330929 -173.96978384 106.2792338 -182.01171875 110.98828125 C-190.64669432 116.04459048 -199.31778194 121.03435247 -208.01171875 125.98828125 C-216.74574581 130.9655533 -225.45892456 135.97582447 -234.13671875 141.05078125 C-242.27417616 145.80765178 -250.41358319 150.56094722 -258.57049561 155.28439331 C-260.28981756 156.28084369 -262.00747545 157.28016356 -263.72509766 158.27954102 C-264.76456543 158.88080811 -265.8040332 159.4820752 -266.875 160.1015625 C-267.79579346 160.63563721 -268.71658691 161.16971191 -269.6652832 161.7199707 C-272.01171875 162.98828125 -272.01171875 162.98828125 -275.01171875 163.98828125 C-275.30931394 198.88524676 -275.53836295 233.78192246 -275.67556803 268.67988294 C-275.6918271 272.80042534 -275.7086533 276.92096524 -275.72583008 281.04150391 C-275.72924011 281.86182449 -275.73265015 282.68214506 -275.73616352 283.52732384 C-275.79272212 296.80778664 -275.89521514 310.08751745 -276.0147051 323.36754608 C-276.13630223 336.99548858 -276.20848801 350.6230479 -276.23486918 364.25151062 C-276.25270269 372.66064093 -276.30900486 381.06770242 -276.41463282 389.47619575 C-276.48338685 395.24334754 -276.50411379 401.00943102 -276.48723666 406.77696282 C-276.47891019 410.10566338 -276.49869728 413.42784491 -276.56138992 416.75639915 C-277.43355311 429.26995264 -277.43355311 429.26995264 -273.76240516 440.80227089 C-270.33115684 444.03681205 -266.44029113 445.44860974 -262.01171875 446.98828125 C-259.97470699 448.12699635 -257.95625826 449.30036763 -255.96875 450.5234375 C-253.92181297 451.70137625 -251.87359749 452.87709573 -249.82421875 454.05078125 C-247.557105 455.35123713 -245.29018376 456.65202867 -243.0234375 457.953125 C-242.44883789 458.28268188 -241.87423828 458.61223877 -241.28222656 458.95178223 C-237.75100841 460.97979343 -234.23105938 463.02591291 -230.71995544 465.08854675 C-228.98088774 466.11005791 -227.24008191 467.12854426 -225.4987793 468.14624023 C-223.32627451 469.41730777 -221.1569271 470.6937943 -218.99145508 471.97680664 C-205.48122388 479.85424212 -191.24540334 486.16742979 -175.3125 482.33984375 C-168.0464914 479.37257322 -161.8655572 474.49910419 -158.57421875 467.30078125 C-156.83621885 462.91291602 -155.88738618 459.00333241 -155.88143349 454.27216244 C-155.87599697 452.84699099 -155.87599697 452.84699099 -155.87045062 451.3930282 C-155.87151887 450.35227894 -155.87258712 449.31152967 -155.87368774 448.23924255 C-155.87086646 447.13129886 -155.86804518 446.02335517 -155.86513841 444.88183743 C-155.85678173 441.15616259 -155.85545326 437.43051743 -155.85400391 433.70483398 C-155.84933662 431.03919266 -155.84425988 428.37355535 -155.83860779 425.70791626 C-155.827085 419.96159974 -155.81883936 414.21528614 -155.81248856 408.46896172 C-155.80216442 399.39026325 -155.78160254 390.31160141 -155.7593689 381.23292542 C-155.75188944 378.12752068 -155.74447572 375.02211579 -155.73708153 371.91671085 C-155.73430568 370.75265284 -155.73430568 370.75265284 -155.73147375 369.56507851 C-155.71054923 360.73259821 -155.69171839 351.90011388 -155.67382812 343.06762695 C-155.67218994 342.26021929 -155.67055176 341.45281162 -155.66886394 340.62093706 C-155.64255681 327.52527474 -155.62392483 314.42960961 -155.60723622 301.33393203 C-155.58983258 287.89452014 -155.56100807 274.45516379 -155.52234685 261.01579624 C-155.49891736 252.72242918 -155.48494965 244.42915263 -155.48301922 236.13575221 C-155.48091432 230.45669765 -155.46802291 224.77773327 -155.44653989 219.09871917 C-155.43447983 215.81934961 -155.4290029 212.54019598 -155.43325233 209.26080132 C-155.4371194 205.71044774 -155.42278205 202.16062963 -155.40371704 198.6103363 C-155.40924674 197.56735632 -155.41477643 196.52437633 -155.42047369 195.44979089 C-155.40721393 194.02853107 -155.40721393 194.02853107 -155.39368629 192.57855892 C-155.39232977 191.7586327 -155.39097324 190.93870647 -155.3895756 190.093934 C-154.91612874 187.4555944 -154.11794215 186.60325542 -152.01171875 184.98828125 C-146.82049348 183.25787283 -141.25030471 183.80236343 -135.81542969 183.80297852 C-133.65149142 183.80079615 -131.48806659 183.78264003 -129.32421875 183.76367188 C-127.94140799 183.7607368 -126.55859481 183.75875277 -125.17578125 183.7578125 C-123.9223291 183.75370361 -122.66887695 183.74959473 -121.37744141 183.74536133 C-118.0398641 183.98624987 -115.88243911 184.27672931 -113.01171875 185.98828125 C-110.19235614 190.81447476 -110.73695896 196.18483374 -110.76448059 201.59373474 C-110.76206618 202.67435387 -110.75965176 203.754973 -110.75716418 204.86833817 C-110.75152014 208.49618957 -110.76019603 212.12386544 -110.76879883 215.75170898 C-110.76772607 218.35038806 -110.76578747 220.9490669 -110.76304626 223.54774475 C-110.7580048 229.87980062 -110.76364652 236.21180425 -110.77289657 242.54385363 C-110.78329203 249.92646815 -110.78321001 257.30907143 -110.78272399 264.69169188 C-110.78222325 277.87577108 -110.79138492 291.05982604 -110.8059082 304.24389648 C-110.81996996 317.01571088 -110.82708006 329.78750393 -110.82641602 342.55932617 C-110.82637606 343.34463773 -110.8263361 344.1299493 -110.82629494 344.93905818 C-110.82625458 345.72305194 -110.82621423 346.50704571 -110.82617265 347.31479686 C-110.82548076 361.87382854 -110.83138796 376.43285118 -110.84032587 390.99187992 C-110.8433306 396.12751067 -110.84440408 401.26313975 -110.84485817 406.39877129 C-110.84561603 413.33034307 -110.85200801 420.26189219 -110.86202431 427.19345665 C-110.86493144 429.7305818 -110.86617832 432.26770952 -110.86559677 434.80483627 C-110.85763356 490.72529362 -110.85763356 490.72529362 -130.60546875 510.87890625 C-147.17923797 525.40785978 -167.68368137 528.85881339 -189.01171875 527.98828125 C-215.73229154 525.88902188 -239.34312347 511.30822222 -261.84375 497.86474609 C-265.18626316 495.88489436 -268.54763876 493.93974118 -271.91796875 492.0078125 C-272.49600754 491.67625153 -273.07404633 491.34469055 -273.66960144 491.00308228 C-276.45191152 489.40811254 -279.23572825 487.81581256 -282.02075195 486.22558594 C-298.76099646 476.61261324 -312.1450956 467.92943931 -318.06946754 448.52350903 C-319.37008325 443.16119266 -319.29505572 437.86161776 -319.27914429 432.36994934 C-319.2836754 431.21664098 -319.28820651 430.06333262 -319.29287493 428.87507552 C-319.30330878 425.69155917 -319.30485101 422.50818571 -319.30248618 419.3246578 C-319.30207661 415.88414686 -319.31313057 412.44366913 -319.32260132 409.00317383 C-319.33918256 402.2688158 -319.34470958 395.53449278 -319.34582607 388.80011604 C-319.34677801 383.32272437 -319.35089555 377.8453442 -319.35722733 372.36795616 C-319.37483265 356.82054859 -319.38406742 341.27316857 -319.38256638 325.72575096 C-319.38248647 324.88836984 -319.38240655 324.05098872 -319.38232422 323.18823242 C-319.38224246 322.34982249 -319.3821607 321.51141256 -319.38207646 320.64759626 C-319.38126398 307.06743416 -319.40039391 293.48738307 -319.42860095 279.90725306 C-319.4573703 265.94562592 -319.47113899 251.98405284 -319.4694134 238.02239531 C-319.46875085 230.19111451 -319.47418367 222.35995007 -319.4957695 214.52869606 C-319.51403482 207.85962665 -319.51828504 201.19072634 -319.50475065 194.52164266 C-319.49824738 191.12341254 -319.50020605 187.72576932 -319.51545715 184.327528 C-319.5309638 180.63190999 -319.52156438 176.93713216 -319.50619507 173.24153137 C-319.51648219 172.1837169 -319.52676932 171.12590243 -319.53736818 170.03603297 C-319.4103773 156.13585099 -314.51411624 143.77422983 -305.19921875 133.48828125 C-299.39609195 127.99159019 -292.5894936 124.33410341 -285.65234375 120.46923828 C-281.69839244 118.25172084 -277.77995484 115.97373843 -273.85717773 113.70166016 C-270.5169337 111.76761241 -267.17307234 109.83996314 -263.828125 107.9140625 C-257.2205684 104.10908307 -250.61584182 100.29921615 -244.01171875 96.48828125 C-241.84506564 95.23825775 -239.67839896 93.98825778 -237.51171875 92.73828125 C-236.43921875 92.11953125 -235.36671875 91.50078125 -234.26171875 90.86328125 C-196.34505208 68.98828125 -158.42838542 47.11328125 -120.51171875 25.23828125 C-119.43841309 24.61904785 -118.36510742 23.99981445 -117.25927734 23.36181641 C-115.10081377 22.11658641 -112.94228552 20.87146853 -110.78369141 19.62646484 C-105.24097134 16.42941788 -99.69951867 13.2302053 -94.16015625 10.02734375 C-88.73051477 6.88804073 -83.29541762 3.75833945 -77.85839844 0.63183594 C-75.29097641 -0.85048697 -72.73209633 -2.34629403 -70.17578125 -3.84765625 C-63.36449149 -7.81865441 -56.84146151 -11.49583605 -49.01171875 -13.01171875 C-48.33753906 -13.16253906 -47.66335938 -13.31335938 -46.96875 -13.46875 C-29.54220055 -16.44401454 -14.40709338 -8.68139736 0 0 Z " fill="#679F62" transform="translate(1304.01171875,950.01171875)"/>
<path d="M0 0 C1.37112946 -0.00855011 1.37112946 -0.00855011 2.7699585 -0.01727295 C4.69949204 -0.0266677 6.62904123 -0.03323477 8.55859375 -0.03710938 C11.43520202 -0.04671087 14.31106195 -0.07774407 17.1875 -0.109375 C47.98628349 -0.28461396 80.65306476 5.03046547 103.88671875 26.828125 C118.97425203 42.09138662 125.71082131 61.82257371 126.79296875 83.01171875 C125.92903984 86.4009783 124.13431356 87.33872447 121.234375 89.203125 C118.51018387 89.59376929 116.20109117 89.76570015 113.484375 89.734375 C112.74864258 89.7382019 112.01291016 89.74202881 111.25488281 89.74597168 C109.70506414 89.74868403 108.15519916 89.74137019 106.60546875 89.72460938 C104.24114357 89.70318633 101.87985634 89.72443011 99.515625 89.75 C98.00520167 89.7473566 96.49478021 89.74223136 94.984375 89.734375 C93.9310498 89.74652039 93.9310498 89.74652039 92.85644531 89.75891113 C89.36607978 89.69265177 87.3381782 89.26728882 84.34716797 87.41845703 C82.28354663 85.25468305 81.44462435 84.06181015 80.6796875 81.2265625 C80.46135254 80.47793945 80.24301758 79.72931641 80.01806641 78.95800781 C79.80069824 78.17264648 79.58333008 77.38728516 79.359375 76.578125 C76.03334244 65.72566911 71.36904189 57.01923968 61.234375 51.203125 C36.05218603 38.20346993 -0.86649221 38.83633807 -27.65625 46.984375 C-31.55484391 48.51246708 -34.76824625 50.50586745 -38.09375 53.03125 C-39.765625 54.203125 -39.765625 54.203125 -41.765625 54.203125 C-46.34082217 63.0015811 -49.68132926 71.40351627 -46.765625 81.328125 C-44.67411079 86.23987105 -41.55847819 88.11958497 -36.765625 90.203125 C-16.56746972 98.18668513 5.87772786 100.1976463 27.23007202 103.24713135 C106.30511132 114.54410557 106.30511132 114.54410557 125.26171875 138.796875 C135.81831852 154.33047635 137.68279523 174.44553373 134.5859375 192.70703125 C130.57167799 211.87684082 119.51437392 227.4695533 103.234375 238.203125 C77.99451393 253.21842168 48.24627665 257.8382114 19.234375 257.203125 C18.41630371 257.19055664 17.59823242 257.17798828 16.75537109 257.16503906 C-5.41820487 256.77609859 -27.75665552 254.65718076 -48.765625 247.203125 C-49.82265625 246.83574219 -50.8796875 246.46835938 -51.96875 246.08984375 C-71.15838916 238.78070109 -87.05912419 225.2917856 -96.015625 206.765625 C-100.65250046 196.26773895 -102.87722243 185.94053869 -103.015625 174.453125 C-103.04140625 173.15890625 -103.0671875 171.8646875 -103.09375 170.53125 C-102.765625 167.203125 -102.765625 167.203125 -101.48144531 165.52037048 C-98.51185909 163.24060144 -94.86382368 163.75643079 -91.265625 163.76953125 C-90.43353516 163.7642894 -89.60144531 163.75904755 -88.74414062 163.75364685 C-86.98568843 163.74722621 -85.22719329 163.74856423 -83.46875 163.75708008 C-80.77526603 163.76559452 -78.08389959 163.73682451 -75.390625 163.70507812 C-73.6822923 163.70346615 -71.97395584 163.70404357 -70.265625 163.70703125 C-69.45931641 163.69579727 -68.65300781 163.68456329 -67.82226562 163.67298889 C-62.27563701 163.74228455 -62.27563701 163.74228455 -59.80566406 165.97412109 C-58.79829529 168.13310629 -58.11765081 170.03542637 -57.625 172.36328125 C-57.44541748 173.1519458 -57.26583496 173.94061035 -57.08081055 174.75317383 C-56.89429932 175.58228271 -56.70778809 176.4113916 -56.515625 177.265625 C-53.91271979 187.85277896 -50.17708744 196.77385481 -40.76953125 203.00390625 C-40.10824219 203.39964844 -39.44695312 203.79539062 -38.765625 204.203125 C-38.19714844 204.56792969 -37.62867188 204.93273438 -37.04296875 205.30859375 C-11.39247333 220.02239442 32.91285621 217.3637322 60.296875 210.328125 C70.347658 207.43520122 78.0673497 203.60899566 84.546875 195.203125 C87.86805125 188.74767853 89.1105514 179.81429691 87.671875 172.703125 C84.61571783 165.26204666 80.45597777 162.04880901 73.2734375 158.7109375 C53.40210099 150.83428887 31.19878449 149.18584019 10.16943359 146.72802734 C-61.93869091 138.29034438 -61.93869091 138.29034438 -83.765625 114.203125 C-92.61252184 102.58598774 -94.95154543 89.85828003 -95.015625 75.640625 C-95.03625 74.52365234 -95.056875 73.40667969 -95.078125 72.25585938 C-95.15636955 55.38437763 -89.65425242 40.45712009 -77.9440918 28.25878906 C-57.68768012 7.97147254 -28.06978514 0.14032565 0 0 Z " fill="#679F62" transform="translate(1316.765625,1127.796875)"/>
<path d="M0 0 C3.372988 3.05289314 5.33994413 6.11887736 7.43359375 10.14453125 C7.74752579 10.74186569 8.06145782 11.33920013 8.38490295 11.95463562 C9.05801591 13.23653953 9.72796449 14.52010915 10.39501953 15.80517578 C12.17305835 19.22883741 13.97567969 22.6395092 15.77734375 26.05078125 C16.13835175 26.73540436 16.49935974 27.42002747 16.87130737 28.12539673 C19.96870405 33.98198121 23.20380125 39.75299523 26.5 45.5 C31.56387479 54.35146263 36.40902484 63.3050799 41.1875 72.3125 C46.54896786 82.41674461 51.98496177 92.46919386 57.57568359 102.44873047 C60.67324253 107.99715194 63.74168172 113.56174918 66.8125 119.125 C67.15697174 119.74877533 67.50144348 120.37255066 67.85635376 121.01522827 C72.51034079 129.44527908 77.11912289 137.89816132 81.6875 146.375 C85.82606125 154.0535624 90.05598034 161.67155317 94.375 169.25 C99.56070352 178.35073275 104.5392625 187.55319743 109.4574585 196.8001709 C113.69590831 204.76407335 118.02629895 212.66551367 122.5 220.5 C127.64828836 229.51584489 132.58330129 238.63572806 137.45800781 247.80126953 C142.19066356 256.69373147 147.06737849 265.49103691 152.06396484 274.23779297 C157.23375387 283.32674409 162.16023561 292.54134596 167.06445312 301.77539062 C167.66451172 302.90396484 168.26457031 304.03253906 168.8828125 305.1953125 C169.41277832 306.19578613 169.94274414 307.19625977 170.48876953 308.22705078 C171.50574324 310.09309075 172.57623203 311.93083636 173.69482422 313.73779297 C175 316 175 316 175 318 C162.68423176 318.80759136 153.27821265 313.34738298 142.9375 307.1875 C141.22133376 306.18123385 139.50515903 305.17498183 137.78848267 304.16958618 C136.02128842 303.13316744 134.25635309 302.09298317 132.49169922 301.05224609 C127.017424 297.82852101 121.5066018 294.66806164 116 291.5 C113.83316786 290.25028686 111.66650156 289.00028615 109.5 287.75 C108.4275 287.13125 107.355 286.5125 106.25 285.875 C85.66666667 274 65.08333333 262.125 44.5 250.25 C43.42733887 249.63116943 42.35467773 249.01233887 41.24951172 248.37475586 C39.08442929 247.12564482 36.91939018 245.87645871 34.75439453 244.62719727 C29.31384294 241.48797691 23.87252784 238.35009437 18.4296875 235.21484375 C7.97793801 229.19252671 -2.46299548 223.15330663 -12.875 217.0625 C-21.5526265 211.98724638 -30.2662091 206.97768607 -39 202 C-50.84648447 195.2469689 -62.65214287 188.42729901 -74.40722656 181.51611328 C-76.81291274 180.10939848 -79.22836528 178.72161333 -81.6484375 177.33984375 C-82.99493536 176.56014394 -84.34130123 175.7802161 -85.6875 175 C-87.36392578 174.0409375 -87.36392578 174.0409375 -89.07421875 173.0625 C-92.44965975 170.68301689 -94.49964873 168.26576492 -97 165 C-96.59386475 164.31824707 -96.18772949 163.63649414 -95.76928711 162.93408203 C-88.26843171 150.33348599 -80.80332551 137.71649364 -73.5 125 C-68.4023772 116.1246926 -63.23301682 107.29615077 -58 98.5 C-52.09066587 88.56495885 -46.2692089 78.58348895 -40.50610352 68.56298828 C-35.20551188 59.34681407 -29.85743334 50.15912411 -24.4921875 40.98046875 C-22.07304231 36.84166552 -19.66267851 32.69789727 -17.2578125 28.55078125 C-16.63914307 27.48553223 -16.02047363 26.4202832 -15.38305664 25.32275391 C-14.21380254 23.30913433 -13.04618087 21.29456545 -11.88061523 19.27880859 C-8.08242953 12.74499432 -4.10122595 6.34777698 0 0 Z " fill="#3E863D" transform="translate(774,663)"/>
<path d="M0 0 C2.70715008 2.41548749 4.21429696 4.97261957 5.8984375 8.171875 C6.45321777 9.21633789 7.00799805 10.26080078 7.57958984 11.33691406 C8.1720752 12.46323242 8.76456055 13.58955078 9.375 14.75 C10.64205003 17.1374404 11.91406879 19.52220803 13.1875 21.90625 C13.50899017 22.50874573 13.83048035 23.11124146 14.16171265 23.73199463 C17.1381466 29.29305101 20.24192961 34.77619753 23.375 40.25 C28.7810349 49.71845978 33.92769171 59.30940505 39.02920532 68.94366455 C43.92054242 78.17502198 48.9516522 87.30825633 54.13671875 96.37890625 C58.72285579 104.43288584 63.09640838 112.59513333 67.44519043 120.77865601 C72.46157446 130.21326665 77.63224011 139.54707236 82.96484375 148.80664062 C83.46757813 149.68384766 83.9703125 150.56105469 84.48828125 151.46484375 C85.14630737 152.60360962 85.14630737 152.60360962 85.81762695 153.76538086 C87.07774673 156.14693698 88.1609595 158.43724694 89 161 C87.9375 163.48828125 87.9375 163.48828125 86 166.3125 C85.23836631 167.46623653 84.48089797 168.6227286 83.7265625 169.78125 C83.29504883 170.43867187 82.86353516 171.09609375 82.41894531 171.7734375 C79.5968366 176.20179804 77.00478896 180.76831506 74.375 185.3125 C73.15386377 187.41288714 71.93250598 189.51314548 70.7109375 191.61328125 C70.09573242 192.67240723 69.48052734 193.7315332 68.84667969 194.82275391 C65.90409815 199.88551913 62.95172724 204.94256349 60 210 C58.83328269 211.99997046 57.66661611 213.99997051 56.5 216 C49.5 228 42.5 240 35.5 252 C34.9227417 252.98959717 34.3454834 253.97919434 33.75073242 254.9987793 C32.58166481 257.00287191 31.41255661 259.00694085 30.2434082 261.01098633 C26.79410813 266.92359237 23.34632611 272.83707994 19.8996582 278.7512207 C18.18196894 281.69698554 16.46219156 284.64152377 14.7421875 287.5859375 C12.36094334 291.66309213 9.98701086 295.74437956 7.61875916 299.8290863 C6.06703535 302.50353635 4.51145185 305.17572961 2.95523071 307.8475647 C2.19865912 309.14849606 1.44373139 310.45038494 0.69052124 311.75326538 C-0.3621913 313.57371723 -1.42067217 315.39069688 -2.48046875 317.20703125 C-3.08785889 318.2535083 -3.69524902 319.29998535 -4.32104492 320.37817383 C-5.73944207 322.59311741 -7.04711519 324.26389546 -9 326 C-14.86965112 317.97814348 -15.29389737 310.88129552 -15.26069641 301.1333313 C-15.26452196 299.94130313 -15.26834751 298.74927496 -15.27228898 297.52112472 C-15.28080489 294.22497939 -15.28039197 290.92905784 -15.27610838 287.63291907 C-15.27363776 284.0731793 -15.2826595 280.51346555 -15.29014587 276.95373535 C-15.30288565 269.98462268 -15.30468746 263.01554855 -15.30234561 256.04642619 C-15.30056145 250.38066643 -15.30231419 244.71491836 -15.30657005 239.04916 C-15.30716524 238.24230146 -15.30776043 237.43544291 -15.30837366 236.60413411 C-15.30958543 234.96491242 -15.31079956 233.32569074 -15.31201603 231.68646906 C-15.32288883 216.31875836 -15.32073033 200.95106961 -15.31463119 185.58335768 C-15.30946249 171.53162659 -15.32071669 157.47996484 -15.33972941 143.42824747 C-15.35911223 128.99206742 -15.36736301 114.55592016 -15.36360615 100.11972702 C-15.36169476 92.01806918 -15.36417568 83.91647036 -15.37832069 75.81482315 C-15.39024114 68.91763109 -15.39163197 62.02053436 -15.37953053 55.12334098 C-15.37364642 51.6062526 -15.37252927 48.08933853 -15.38453293 44.57226181 C-15.39497881 40.75489164 -15.38691622 36.93798932 -15.3742218 33.12063599 C-15.38159609 32.0154695 -15.38897037 30.910303 -15.39656812 29.77164662 C-15.32533619 19.58332215 -13.08225801 11.52383765 -6 4 C-4.0556559 2.43482505 -2.17641561 1.24366606 0 0 Z " fill="#569D4A" transform="translate(686,502)"/>
<path d="M0 0 C3.87199979 1.72232385 7.40748106 3.88604303 11 6.125 C13.11545124 7.40436402 15.23135085 8.68298691 17.34765625 9.9609375 C18.43449707 10.62448242 19.52133789 11.28802734 20.64111328 11.97167969 C24.02761192 14.01667392 27.44131922 16.00511346 30.87109375 17.9765625 C31.97130859 18.60933105 33.07152344 19.24209961 34.20507812 19.89404297 C36.33411188 21.11646855 38.46429332 22.33689779 40.59570312 23.55517578 C41.55283203 24.10931152 42.50996094 24.66344727 43.49609375 25.234375 C44.34357178 25.72131836 45.1910498 26.20826172 46.06420898 26.70996094 C48 28 48 28 49 30 C49.11153151 31.88809144 49.15925985 33.78008723 49.17700195 35.67138672 C49.19625481 37.45366165 49.19625481 37.45366165 49.21589661 39.27194214 C49.22328354 40.56149811 49.23067047 41.85105408 49.23828125 43.1796875 C49.246353 44.49913361 49.25442474 45.81857971 49.26274109 47.17800903 C49.27776688 49.97397738 49.2876058 52.76992032 49.29516602 55.56591797 C49.30623454 59.14622982 49.34063967 62.72592083 49.38033772 66.30601311 C49.40648512 69.05983636 49.41485606 71.81351119 49.41844749 74.56744766 C49.4256844 76.52844334 49.45213039 78.48933762 49.47883606 80.45016479 C49.47591049 81.6446524 49.47298492 82.83914001 49.4699707 84.06982422 C49.47583694 85.12080292 49.48170319 86.17178162 49.48774719 87.25460815 C48.87587163 90.6986837 47.67299595 91.82089674 45 94 C42.78369141 95.44116211 42.78369141 95.44116211 40.3515625 96.77734375 C39.43898682 97.28499268 38.52641113 97.7926416 37.58618164 98.31567383 C36.12039673 99.11847778 36.12039673 99.11847778 34.625 99.9375 C28.30350408 103.43187268 22.01868057 106.94791953 15.87109375 110.7421875 C14.8951123 111.34039307 13.91913086 111.93859863 12.91357422 112.55493164 C11.05360266 113.70152654 9.20186164 114.86161371 7.35986328 116.03686523 C-0.75216768 121.00361888 -0.75216768 121.00361888 -5.89282227 120.57592773 C-10.70158007 119.26161194 -14.80435398 116.48984242 -19 113.875 C-21.11545124 112.59563598 -23.23135085 111.31701309 -25.34765625 110.0390625 C-26.97791748 109.04374512 -26.97791748 109.04374512 -28.64111328 108.02832031 C-32.02761192 105.98332608 -35.44131922 103.99488654 -38.87109375 102.0234375 C-39.97130859 101.39066895 -41.07152344 100.75790039 -42.20507812 100.10595703 C-44.33411188 98.88353145 -46.46429332 97.66310221 -48.59570312 96.44482422 C-49.55283203 95.89068848 -50.50996094 95.33655273 -51.49609375 94.765625 C-52.34357178 94.27868164 -53.1910498 93.79173828 -54.06420898 93.29003906 C-56 92 -56 92 -57 90 C-57.11153151 88.11190856 -57.15925985 86.21991277 -57.17700195 84.32861328 C-57.18983719 83.14042999 -57.20267242 81.9522467 -57.21589661 80.72805786 C-57.22328354 79.43850189 -57.23067047 78.14894592 -57.23828125 76.8203125 C-57.246353 75.50086639 -57.25442474 74.18142029 -57.26274109 72.82199097 C-57.27776688 70.02602262 -57.2876058 67.23007968 -57.29516602 64.43408203 C-57.30623454 60.85377018 -57.34063967 57.27407917 -57.38033772 53.69398689 C-57.40648512 50.94016364 -57.41485606 48.18648881 -57.41844749 45.43255234 C-57.4256844 43.47155666 -57.45213039 41.51066238 -57.47883606 39.54983521 C-57.47591049 38.3553476 -57.47298492 37.16085999 -57.4699707 35.93017578 C-57.47583694 34.87919708 -57.48170319 33.82821838 -57.48774719 32.74539185 C-56.87507179 29.29681424 -55.67998971 28.17944831 -53 26 C-51.31839407 24.92890482 -49.59506181 23.92161428 -47.84375 22.96875 C-46.83046631 22.41074707 -45.81718262 21.85274414 -44.77319336 21.27783203 C-43.69303955 20.69114746 -42.61288574 20.10446289 -41.5 19.5 C-34.98120866 15.92726912 -28.48616862 12.35931918 -22.18359375 8.4140625 C-21.29414063 7.85912109 -20.4046875 7.30417969 -19.48828125 6.73242188 C-17.83177897 5.6885464 -16.18399134 4.63066385 -14.546875 3.55664062 C-9.82096034 0.59175957 -5.66032806 -1.46641958 0 0 Z " fill="#679F62" transform="translate(2290,608)"/>
<path d="M0 0 C9.30459167 10.26656371 12.00002835 21.72882928 11.53515625 35.2265625 C10.75553606 47.54177713 4.70646878 57.34172375 -4.05859375 65.73046875 C-13.81565935 73.86135675 -25.47072331 76.95817613 -38.1171875 76.2265625 C-47.04315095 74.9644199 -54.548757 71.74184903 -61.80859375 66.41796875 C-62.77796875 65.73734375 -63.74734375 65.05671875 -64.74609375 64.35546875 C-72.57039496 57.68422245 -77.81548224 46.54770619 -78.80859375 36.41796875 C-79.76453062 22.12554674 -75.6835911 11.74088166 -67.55859375 0.23046875 C-59.50985885 -8.00119195 -49.01807782 -13.79706725 -37.375 -14.609375 C-22.45184663 -14.45037641 -10.8226704 -10.37100197 0 0 Z M-61.80859375 6.41796875 C-68.63631 15.51640612 -71.76790639 25.15538473 -70.375 36.50390625 C-68.5039319 46.13022902 -63.98413105 54.42388695 -56.15625 60.46484375 C-46.393219 66.94674636 -37.45485231 68.53893589 -25.80859375 67.41796875 C-15.19833087 64.73735004 -7.21720178 58.5886105 -1.37109375 49.41796875 C3.42413622 40.67763268 4.80486913 31.30268821 2.50390625 21.484375 C-0.88465966 11.30455826 -7.06689277 3.33083961 -16.359375 -2.0625 C-31.84068127 -9.54129072 -50.30006147 -6.7898099 -61.80859375 6.41796875 Z " fill="#679F62" transform="translate(1658.80859375,1073.58203125)"/>
<path d="M0 0 C25 0 25 0 32 3 C35.45233666 6.45233666 35.72378784 9.82153883 36.0703125 14.52734375 C35.9460775 18.89627476 34.16570562 21.70477154 31.3125 24.875 C30.6628125 25.431875 30.6628125 25.431875 30 26 C30.62390625 26.64710937 31.2478125 27.29421875 31.890625 27.9609375 C34.56032274 31.8072798 35.08833932 35.06343342 35.75 39.625 C35.93755859 40.7696875 35.93755859 40.7696875 36.12890625 41.9375 C36.61559846 44.98601162 37 47.90899044 37 51 C35.18757948 51.02687279 33.37504767 51.04633715 31.5625 51.0625 C30.55316406 51.07410156 29.54382812 51.08570313 28.50390625 51.09765625 C26 51 26 51 25 50 C24.77486899 48.66197814 24.60639193 47.31426977 24.46484375 45.96484375 C24.37783203 45.15595703 24.29082031 44.34707031 24.20117188 43.51367188 C24.11416016 42.66353516 24.02714844 41.81339844 23.9375 40.9375 C23.84662109 40.08349609 23.75574219 39.22949219 23.66210938 38.34960938 C23.43749278 36.23348465 23.21824773 34.11679106 23 32 C19.04 31.67 15.08 31.34 11 31 C11 37.6 11 44.2 11 51 C7.37 51 3.74 51 0 51 C0 34.17 0 17.34 0 0 Z M11 9 C10.67 13.29 10.34 17.58 10 22 C17.02249824 22.64796146 17.02249824 22.64796146 23.1875 19.875 C25.28331612 17.1170427 25.28331612 17.1170427 25 13.8125 C24.21262767 10.70976172 24.21262767 10.70976172 21 9 C18.48415109 8.75849227 18.48415109 8.75849227 15.8125 8.875 C14.224375 8.91625 12.63625 8.9575 11 9 Z " fill="#679F62" transform="translate(1608,1079)"/>
</svg>
