<?xml version="1.0" encoding="UTF-8"?>
<svg version="1.1" xmlns="http://www.w3.org/2000/svg" width="420" height="120">
<path d="M0 0 C138.6 0 277.2 0 420 0 C420 39.6 420 79.2 420 120 C281.4 120 142.8 120 0 120 C0 80.4 0 40.8 0 0 Z " fill="#F9F9F8" transform="translate(0,0)"/>
<path d="M0 0 C33.66 0 67.32 0 102 0 C102 33.99 102 67.98 102 103 C68.34 103 34.68 103 0 103 C0 69.01 0 35.02 0 0 Z " fill="#F4DD20" transform="translate(312,8)"/>
<path d="M0 0 C5.61392156 3.28931636 9.02861945 8.98189261 10.88671875 15.10546875 C11.26184337 17.97518907 11.2634396 20.77803062 11.19921875 23.66796875 C11.20244141 24.39693359 11.20566406 25.12589844 11.20898438 25.87695312 C11.16498552 30.3208376 10.54569405 33.92167846 8.88671875 38.10546875 C8.22671875 38.10546875 7.56671875 38.10546875 6.88671875 38.10546875 C6.65984375 38.84796875 6.43296875 39.59046875 6.19921875 40.35546875 C4.61063362 43.68393283 2.93673009 45.07212786 -0.11328125 47.10546875 C-6.09593718 49.06893953 -13.87832028 49.59775725 -19.63671875 46.94140625 C-23.7256416 43.9773172 -25.4200549 41.59417933 -28.11328125 37.10546875 C-28.44328125 44.03546875 -28.77328125 50.96546875 -29.11328125 58.10546875 C-29.44328125 58.10546875 -29.77328125 58.10546875 -30.11328125 58.10546875 C-30.11328125 38.96546875 -30.11328125 19.82546875 -30.11328125 0.10546875 C-29.78328125 0.10546875 -29.45328125 0.10546875 -29.11328125 0.10546875 C-28.78328125 3.73546875 -28.45328125 7.36546875 -28.11328125 11.10546875 C-27.57703125 10.21859375 -27.04078125 9.33171875 -26.48828125 8.41796875 C-20.08101204 -1.19293506 -10.74256542 -4.49541539 0 0 Z " fill="#E9E9E9" transform="translate(128.11328125,57.89453125)"/>
<path d="M0 0 C5.04129629 3.90611078 6.91644258 8.59528974 8.203125 14.70703125 C8.203125 17.01703125 8.203125 19.32703125 8.203125 21.70703125 C-5.326875 21.70703125 -18.856875 21.70703125 -32.796875 21.70703125 C-30.23677756 33.51439661 -30.23677756 33.51439661 -23.796875 41.70703125 C-17.97743928 44.49957926 -11.65101711 44.83382363 -5.4453125 43.01953125 C-0.73926605 40.9044542 1.81702557 38.38378613 4.203125 33.70703125 C4.98528088 30.97878085 4.98528088 30.97878085 5.203125 28.70703125 C5.863125 28.70703125 6.523125 28.70703125 7.203125 28.70703125 C6.97844442 34.2117054 5.65838039 36.98506546 2.06640625 41.12890625 C-2.73852884 45.19849488 -7.09215029 46.13822564 -13.296875 46.14453125 C-15.19953125 46.17353516 -15.19953125 46.17353516 -17.140625 46.203125 C-22.3576341 45.49526159 -25.37496316 43.16956914 -28.984375 39.45703125 C-33.51825959 32.57803394 -36.06310227 23.92533327 -34.796875 15.70703125 C-32.13845355 8.31092301 -28.62545028 1.87572869 -21.796875 -2.29296875 C-13.47332561 -6.18909825 -7.38364746 -4.83560961 0 0 Z " fill="#F5F5F5" transform="translate(203.796875,60.29296875)"/>
<path d="M0 0 C2.77253019 2.06162501 3.54589269 3.51355294 4.4375 6.8125 C2.1275 8.1325 -0.1825 9.4525 -2.5625 10.8125 C-2.93375 10.3175 -3.305 9.8225 -3.6875 9.3125 C-6.30944393 7.21494486 -8.30092472 7.59506165 -11.5625 7.8125 C-12.2225 9.7925 -12.8825 11.7725 -13.5625 13.8125 C-9.78132205 15.77765977 -5.87506081 17.28315328 -1.90234375 18.8125 C0.4375 19.8125 0.4375 19.8125 3.4375 21.8125 C3.4375 22.4725 3.4375 23.1325 3.4375 23.8125 C4.0975 23.8125 4.7575 23.8125 5.4375 23.8125 C7.91198823 28.16996533 7.97466076 31.90131587 7.4375 36.8125 C6.13421869 40.72234393 5.27961623 42.30086543 1.75 44.4453125 C-4.43938727 46.99989451 -11.85134624 47.15848562 -18.1796875 44.86328125 C-21.51336816 42.92779266 -23.23395837 41.42851555 -25.0625 38 C-25.2275 37.278125 -25.3925 36.55625 -25.5625 35.8125 C-22.8125 34.1875 -22.8125 34.1875 -19.5625 32.8125 C-17.375 33.5 -17.375 33.5 -15.5625 34.8125 C-11.87532562 37.27061625 -9.91904296 37.12368164 -5.5625 36.8125 C-4.5725 36.1525 -3.5825 35.4925 -2.5625 34.8125 C-2.52966204 32.41293264 -2.52966204 32.41293264 -3.5625 29.8125 C-5.86600534 28.40596116 -7.91410487 27.34632328 -10.375 26.3125 C-16.01907826 23.89773571 -19.74518807 21.44712385 -22.5625 15.8125 C-22.99531664 11.57589098 -23.01108706 7.89855289 -21.375 3.9375 C-15.73587807 -2.67388433 -7.88105815 -2.62701938 0 0 Z " fill="#060504" transform="translate(398.5625,56.1875)"/>
<path d="M0 0 C2.97 0 5.94 0 9 0 C9.09916726 5.44428237 9.17160909 10.88803448 9.21972656 16.33300781 C9.23979339 18.18368696 9.26705345 20.03430309 9.30175781 21.88476562 C9.35049433 24.55093977 9.37301787 27.21627287 9.390625 29.8828125 C9.41127014 30.70492218 9.43191528 31.52703186 9.45318604 32.37405396 C9.45525913 37.72865217 8.58259883 40.76800459 5 45 C-0.09213859 48.39475906 -6.06328845 47.67400739 -12 47 C-14.99851881 45.67495032 -15.89885334 44.64144152 -18 42 C-18.33 40.68 -18.66 39.36 -19 38 C-16.36 36.68 -13.72 35.36 -11 34 C-10.649375 34.66 -10.29875 35.32 -9.9375 36 C-9.298125 36.66 -8.65875 37.32 -8 38 C-5.69 38 -3.38 38 -1 38 C-0.67 25.46 -0.34 12.92 0 0 Z " fill="#050503" transform="translate(358,55)"/>
<path d="M0 0 C2 3 2 3 2 10 C-11.53 10 -25.06 10 -39 10 C-36.43990256 21.80736536 -36.43990256 21.80736536 -30 30 C-24.18056428 32.79254801 -17.85414211 33.12679238 -11.6484375 31.3125 C-6.94239105 29.19742295 -4.38609943 26.67675488 -2 22 C-1.21784412 19.2717496 -1.21784412 19.2717496 -1 17 C-0.34 17 0.32 17 1 17 C0.77531942 22.50467415 -0.54474461 25.27803421 -4.13671875 29.421875 C-8.94165384 33.49146363 -13.29527529 34.43119439 -19.5 34.4375 C-21.40265625 34.46650391 -21.40265625 34.46650391 -23.34375 34.49609375 C-28.5607591 33.78823034 -31.57808816 31.46253789 -35.1875 27.75 C-40.14648065 20.22602936 -40.3961212 13.80269334 -40 5 C-39.67 5.99 -39.34 6.98 -39 8 C-26.13 8 -13.26 8 0 8 C0 5.36 0 2.72 0 0 Z " fill="#474747" transform="translate(210,72)"/>
<path d="M0 0 C0.66 0 1.32 0 2 0 C2.06058594 0.61488281 2.12117187 1.22976562 2.18359375 1.86328125 C2.26738281 2.67152344 2.35117188 3.47976562 2.4375 4.3125 C2.51871094 5.11300781 2.59992188 5.91351563 2.68359375 6.73828125 C2.95265693 9.16087179 2.95265693 9.16087179 4 12 C3.67 12.66 3.34 13.32 3 14 C2.84339117 16.62380313 2.7417092 19.22524852 2.68359375 21.8515625 C2.66281265 22.62559418 2.64203156 23.39962585 2.62062073 24.19711304 C2.55516552 26.67298392 2.49625913 29.14896202 2.4375 31.625 C2.39431093 33.30209448 2.35069652 34.97917807 2.30664062 36.65625 C2.19948829 40.77072308 2.09820955 44.88530414 2 49 C1.34 49 0.68 49 0 49 C0 32.83 0 16.66 0 0 Z " fill="#585858" transform="translate(148,57)"/>
<path d="M0 0 C0.33 0 0.66 0 1 0 C1.33 3.63 1.66 7.26 2 11 C2.66 10.34 3.32 9.68 4 9 C3.125 13.75 3.125 13.75 2 16 C1.44984476 24.55914588 1.63806921 32.01541437 5 40 C4.01 39.01 3.02 38.02 2 37 C1.67 43.93 1.34 50.86 1 58 C0.67 58 0.34 58 0 58 C0 38.86 0 19.72 0 0 Z " fill="#202020" transform="translate(98,58)"/>
<path d="M0 0 C0.99 0.66 1.98 1.32 3 2 C2.01 2.495 2.01 2.495 1 3 C-0.2375 2.5359375 -0.2375 2.5359375 -1.5 2.0625 C-7.41880493 0.26571993 -12.76904292 -0.11547854 -18.375 2.6875 C-23.61001831 7.29930185 -25.79584133 11.49773192 -28 18 C-28.33 18 -28.66 18 -29 18 C-28.43294113 10.91176413 -26.22615337 7.12936409 -21.125 2.25 C-14.63544839 -2.42247716 -7.14136719 -4.06841525 0 0 Z " fill="#333333" transform="translate(200,58)"/>
<path d="M0 0 C0.66 0.33 1.32 0.66 2 1 C1.01 1.33 0.02 1.66 -1 2 C-2.35071372 6.05214116 -2.67474771 9.76749164 -2 14 C1.0939583 17.54895217 4.52456035 18.7510401 9 20 C9 20.33 9 20.66 9 21 C3.57107935 20.56568635 0.29203296 19.37231161 -4 16 C-5.59453633 12.81092735 -5.38561702 9.47055318 -5 6 C-2.86111111 1.43055556 -2.86111111 1.43055556 0 0 Z " fill="#434343" transform="translate(268,59)"/>
<path d="M0 0 C0.33 0 0.66 0 1 0 C1.33 3.63 1.66 7.26 2 11 C2.66 10.34 3.32 9.68 4 9 C3.17812739 13.38332057 2.09845718 17.67940177 1 22 C0.67 22 0.34 22 0 22 C0 14.74 0 7.48 0 0 Z " fill="#1A1A1A" transform="translate(98,58)"/>
<path d="M0 0 C3.18462224 0.94677958 4.73697662 1.66441845 6.8125 4.3125 C8.06161737 7.13944983 8.26151458 8.94899661 8 12 C7.34 12 6.68 12 6 12 C5.62875 10.4221875 5.62875 10.4221875 5.25 8.8125 C4.23299214 5.1866459 2.54626571 2.80089228 0 0 Z " fill="#4A4A4A" transform="translate(245,59)"/>
<path d="M0 0 C6.46326465 -0.45356243 9.60931587 0.40621058 15 4 C11.8568669 5.57156655 9.634536 4.11705576 6.375 3.0625 C4.59222656 2.49208984 4.59222656 2.49208984 2.7734375 1.91015625 C1.85820312 1.60980469 0.94296875 1.30945312 0 1 C0 0.67 0 0.34 0 0 Z " fill="#575757" transform="translate(188,56)"/>
<path d="M0 0 C5 2 5 2 10 4 C9.67 4.66 9.34 5.32 9 6 C4.545 5.01 4.545 5.01 0 4 C0 2.68 0 1.36 0 0 Z " fill="#E8D838" transform="translate(381,79)"/>
</svg>
