<?xml version="1.0" encoding="UTF-8"?>
<svg version="1.1" xmlns="http://www.w3.org/2000/svg" width="318" height="159">
<path d="M0 0 C104.94 0 209.88 0 318 0 C318 52.47 318 104.94 318 159 C213.06 159 108.12 159 0 159 C0 106.53 0 54.06 0 0 Z " fill="#FDFDFD" transform="translate(0,0)"/>
<path d="M0 0 C3.18653222 -0.20521899 6.37135052 -0.32822933 9.5625 -0.4375 C10.45775391 -0.49615234 11.35300781 -0.55480469 12.27539062 -0.61523438 C16.05339939 -0.71210639 18.86460664 -0.77207287 22.05615234 1.39819336 C23.85970587 3.17627297 25.44012012 5.00625994 27 7 C27.7940625 7.92683594 28.588125 8.85367188 29.40625 9.80859375 C30.0971875 10.67613281 30.788125 11.54367188 31.5 12.4375 C35.22377124 17.06187458 39.05027775 21.56767503 43 26 C46.59721356 24.5045292 48.63097221 22.47293692 51.1875 19.5625 C51.96609375 18.67691406 52.7446875 17.79132812 53.546875 16.87890625 C56.80897939 13.05060858 59.99755132 9.1670615 63.15234375 5.25 C66.60682672 1.04327233 66.60682672 1.04327233 69.06298828 0.77294922 C70.30411377 0.78865967 70.30411377 0.78865967 71.5703125 0.8046875 C72.46621094 0.81113281 73.36210937 0.81757813 74.28515625 0.82421875 C75.22230469 0.84097656 76.15945312 0.85773437 77.125 0.875 C78.06988281 0.88402344 79.01476562 0.89304687 79.98828125 0.90234375 C82.32577292 0.92595478 84.66276123 0.95888484 87 1 C88.5503573 19.47030612 88.5503573 19.47030612 83.3125 25.75 C81.56603476 27.52431955 79.79194128 29.27162008 78 31 C75.61946456 33.60528336 73.31245727 36.27186162 71 38.9375 C70.42419189 39.57719727 69.84838379 40.21689453 69.25512695 40.87597656 C68.71718506 41.48280273 68.17924316 42.08962891 67.625 42.71484375 C67.14289063 43.25230225 66.66078125 43.78976074 66.1640625 44.34350586 C64.81476802 46.26359039 64.26173496 47.66772852 64 50 C65.87130898 52.62512271 65.87130898 52.62512271 68.4375 55.125 C73 59.81984733 73 59.81984733 73 62 C66.73 62 60.46 62 54 62 C54.04125 64.2275 54.0825 66.455 54.125 68.75 C54.21326104 73.51609592 54.16969145 75.66061709 52 80 C49.69 77.36 47.38 74.72 45 72 C41.13419556 73.93290222 39.59073861 75.27466005 36.8125 78.4375 C36.02359375 79.3346875 35.2346875 80.231875 34.421875 81.15625 C32.09617579 83.88707101 29.8207301 86.65074796 27.5625 89.4375 C15.28052584 104.47708493 3.42166725 114.79313155 -15 121 C-16.00804687 121.3403125 -17.01609375 121.680625 -18.0546875 122.03125 C-34.48401581 126.83983389 -52.66199914 124.10961452 -68 117 C-65.38056097 114.38056097 -62.42526027 113.55802162 -59 112.375 C-58.35804687 112.14554687 -57.71609375 111.91609375 -57.0546875 111.6796875 C-52.27557664 110 -52.27557664 110 -50 110 C-50.433125 108.86820312 -50.86625 107.73640625 -51.3125 106.5703125 C-51.87517286 105.0886073 -52.43766343 103.60683286 -53 102.125 C-53.28617188 101.37863281 -53.57234375 100.63226563 -53.8671875 99.86328125 C-56 94.2265625 -56 94.2265625 -56 92 C-55.29617187 92.2165625 -54.59234375 92.433125 -53.8671875 92.65625 C-41.00102373 96.28430663 -27.41837604 96.70260174 -15.20703125 90.60546875 C-8.81450637 86.87570904 -3.45924525 82.85667834 1.125 77 C4.48329027 72.80213716 7.96102926 68.8020315 11.625 64.875 C14.91528833 61.31768374 18.17002781 57.74259568 21.25 54 C21.81203125 53.319375 22.3740625 52.63875 22.953125 51.9375 C24.1621353 50.08332359 24.1621353 50.08332359 23.953125 48.06640625 C22.61474584 45.16475635 20.70407827 43.24702028 18.5 40.9375 C14.115261 36.25123167 10.01373463 31.42864541 6.0078125 26.41015625 C4.12016589 23.95453817 4.12016589 23.95453817 1.7578125 22.32421875 C-1.12643634 18.51060084 -0.41862376 14.38066781 -0.25 9.75 C-0.23195313 8.81414063 -0.21390625 7.87828125 -0.1953125 6.9140625 C-0.14825673 4.60832985 -0.08253713 2.30469055 0 0 Z " fill="#92C042" transform="translate(115,30)"/>
<path d="M0 0 C0.66 0 1.32 0 2 0 C1.67 5.94 1.34 11.88 1 18 C3.97 18 6.94 18 10 18 C12.02321415 18.13472056 14.04512294 18.29570865 16.0625 18.5 C17.47208984 18.63921875 17.47208984 18.63921875 18.91015625 18.78125 C19.59980469 18.8534375 20.28945313 18.925625 21 19 C19.700625 20.423125 19.700625 20.423125 18.375 21.875 C10.25932787 31.37206314 5.41094284 41.21526093 5.5625 53.75 C5.57007324 54.62889893 5.57764648 55.50779785 5.58544922 56.41333008 C5.91090217 69.32098397 10.49597514 79.58492596 19.5625 88.75 C21.53046539 90.61885922 23.51038208 92.45384745 25.5390625 94.2578125 C28.38073121 97.42424334 29.46829277 100.1051803 30.8125 104.125 C31.23144531 105.34445313 31.65039062 106.56390625 32.08203125 107.8203125 C33 111 33 111 33 114 C30.27740139 115.06262393 27.54927533 116.10010785 24.8125 117.125 C23.65911133 117.57939453 23.65911133 117.57939453 22.48242188 118.04296875 C16.73092284 120.16583964 16.73092284 120.16583964 13.2109375 119.3671875 C-5.08823005 108.05144785 -16.12291959 91.84858224 -21.74609375 71.26953125 C-24.2104924 60.03527257 -24.19278574 47.06590511 -21 36 C-20.731875 35.04867187 -20.46375 34.09734375 -20.1875 33.1171875 C-16.19623026 20.11230026 -9.43263525 9.6946529 0 0 Z " fill="#5B2D83" transform="translate(27,24)"/>
<path d="M0 0 C17.69324163 7.6781992 28.6232535 22.51072856 36.625 39.4375 C40.92718981 50.5840827 41.82450763 63.17536834 41.11132812 75.02490234 C41.00528259 76.90628038 40.9771532 78.79157011 40.953125 80.67578125 C40.57774159 84.55027433 40.14582398 86.7293125 38 90 C32.72229654 93.72996165 24.59599623 98 18 98 C16.79260313 95.6333817 15.60945753 93.25909646 14.4375 90.875 C14.09525391 90.20984375 13.75300781 89.5446875 13.40039062 88.859375 C11.22293111 84.37248872 10.82755538 81.97041681 12 77 C13.12986823 61.76999538 11.82816931 49.25155352 2 37 C-0.56463308 34.21752164 -3.25110448 31.59865224 -6 29 C-7.32 27.68 -8.64 26.36 -10 25 C-5.71 22.69 -1.42 20.38 3 18 C2.32418477 11.91766294 1.26361972 5.98685848 0 0 Z " fill="#20498C" transform="translate(273,12)"/>
<path d="M0 0 C1.65052135 1.35613979 3.21726851 2.81325449 4.76171875 4.2890625 C4.76171875 4.9490625 4.76171875 5.6090625 4.76171875 6.2890625 C-1.83828125 6.2890625 -8.43828125 6.2890625 -15.23828125 6.2890625 C-15.23828125 11.8990625 -15.23828125 17.5090625 -15.23828125 23.2890625 C-21.67578125 19.4765625 -21.67578125 19.4765625 -23.64233398 18.29370117 C-31.31130657 13.83625938 -38.6124142 11.72115367 -47.48828125 11.7890625 C-48.71901367 11.79220459 -48.71901367 11.79220459 -49.97460938 11.79541016 C-58.64148148 12.01733358 -65.98024356 14.45037071 -73.23828125 19.2890625 C-75.5065918 19.42431641 -75.5065918 19.42431641 -78.125 19.265625 C-79.06279297 19.2140625 -80.00058594 19.1625 -80.96679688 19.109375 C-81.94326172 19.04492188 -82.91972656 18.98046875 -83.92578125 18.9140625 C-84.91384766 18.85734375 -85.90191406 18.800625 -86.91992188 18.7421875 C-89.3601101 18.60072731 -91.79926716 18.44931976 -94.23828125 18.2890625 C-95.40796607 0.83108013 -95.40796607 0.83108013 -90.734375 -4.64453125 C-87.31253745 -6.75692916 -83.99503963 -8.28073998 -80.23828125 -9.7109375 C-79.11550781 -10.20464844 -77.99273437 -10.69835937 -76.8359375 -11.20703125 C-50.95503487 -22.07024008 -22.13029707 -16.91635274 0 0 Z " fill="#5B2E84" transform="translate(126.23828125,20.7109375)"/>
<path d="M0 0 C2.46140365 2.46140365 3.30326986 4.78456293 4.625 8 C5.07101562 9.0725 5.51703125 10.145 5.9765625 11.25 C7 14 7 14 7 16 C7.5347998 15.75241943 8.06959961 15.50483887 8.62060547 15.24975586 C11.03507299 14.1375055 13.45487783 13.0373886 15.875 11.9375 C16.71675781 11.54755859 17.55851562 11.15761719 18.42578125 10.75585938 C19.63427734 10.20961914 19.63427734 10.20961914 20.8671875 9.65234375 C21.61081543 9.31195068 22.35444336 8.97155762 23.12060547 8.62084961 C25 8 25 8 27 9 C17.80799108 28.16831895 4.6668264 41.29040545 -15 50 C-16.04414063 50.47566406 -16.04414063 50.47566406 -17.109375 50.9609375 C-22.86880079 53.36466479 -28.83500378 54.25818387 -35 55 C-36.2271875 55.22558594 -37.454375 55.45117188 -38.71875 55.68359375 C-43.00203511 56.17547507 -45.86271626 56.27573631 -50 55 C-54.77219819 50.75089268 -58.36532043 44.78946039 -61 39 C-61 38.34 -61 37.68 -61 37 C-52.80773221 29.4221523 -45.79574184 26.11491816 -34.7578125 25.328125 C-24.6999112 24.4498883 -16.39518434 19.73019102 -9 13 C-6.37698144 9.82129708 -4.14200167 6.51588029 -2 3 C-1.34 2.01 -0.68 1.02 0 0 Z " fill="#1F488C" transform="translate(282,99)"/>
<path d="M0 0 C0.81210937 0.14824219 1.62421875 0.29648438 2.4609375 0.44921875 C6.08980233 1.27716364 8.28647115 1.9395621 10.4140625 5.1015625 C12.78680052 10.61519114 13.61573815 16.04394134 14 22 C2.68998318 29.6739708 2.68998318 29.6739708 -3.0625 29 C-5.46544778 28.49882653 -7.66461976 27.77846008 -10 27 C-26.98241936 26.05753916 -37.83708523 29.55805682 -52 39 C-52 33.06 -52 27.12 -52 21 C-58.6 21 -65.2 21 -72 21 C-62.27026292 8.83782865 -47.08812586 1.92318385 -32 -1 C-31.23171875 -1.18433594 -30.4634375 -1.36867188 -29.671875 -1.55859375 C-20.04445966 -3.14908781 -9.38160165 -2.56916653 0 0 Z " fill="#264E90" transform="translate(258,6)"/>
<path d="M0 0 C2.96678516 -0.42790171 4.69740334 -0.43585826 7.5625 0.5234375 C11.9474636 4.15344274 15.22906345 8.95386019 18.5625 13.5234375 C25.1996725 22.51319193 35.04332113 27.37596666 45.5625 30.5234375 C41.5924782 34.74158567 37.25409716 38.13570853 32.5625 41.5234375 C35.66407953 47.35440702 39.41806181 52.38945649 43.5625 57.5234375 C37.68263173 59.82363047 31.04412523 55.85640807 25.5625 53.5234375 C13.20970226 47.82648512 3.30705236 40.13203508 -5.48828125 29.7734375 C-7.30196321 27.56996402 -7.30196321 27.56996402 -9.10546875 26.0859375 C-11.8407874 23.63411126 -12.43269486 21.57442851 -12.76953125 18 C-12.90520502 12.42237624 -12.71346662 6.97244247 -11.4375 1.5234375 C-9.31632854 1.24973796 -7.19252764 0.98990876 -5.0625 0.796875 C-2.45428742 0.57274121 -2.45428742 0.57274121 0 0 Z " fill="#44A3D0" transform="translate(184.4375,94.4765625)"/>
<path d="M0 0 C3.18653222 -0.20521899 6.37135052 -0.32822933 9.5625 -0.4375 C10.45775391 -0.49615234 11.35300781 -0.55480469 12.27539062 -0.61523438 C16.05557779 -0.71216225 18.86545989 -0.77188021 22.05834961 1.40039062 C23.86124264 3.17784302 25.44132005 5.00649628 27 7 C27.78246094 7.91523437 28.56492188 8.83046875 29.37109375 9.7734375 C30.05300781 10.63195313 30.73492187 11.49046875 31.4375 12.375 C35.47593092 17.39181367 39.67599665 22.22827968 44 27 C40.94153868 32.05311 37.17803827 36.23517107 33.1953125 40.5859375 C30.70544348 43.32390735 28.33885265 46.13301934 26 49 C21.35510743 44.4843716 17.14115191 39.66142539 12.96801758 34.7097168 C10.54053461 31.8468944 8.21607533 29.18745821 5.375 26.72265625 C2.23612811 23.98174847 0.26778049 21.93338329 -0.32177734 17.67675781 C-0.67300678 11.76961897 -0.44211541 5.89628915 0 0 Z " fill="#42A2CF" transform="translate(115,30)"/>
<path d="M0 0 C2.88984148 0.92228983 4.0995287 1.58898112 5.9375 3.9375 C6.2675 2.6175 6.5975 1.2975 6.9375 -0.0625 C14.89217422 -0.67439802 14.89217422 -0.67439802 18.5 1.4375 C20.53123506 4.97008271 20.624498 7.95454731 19.9375 11.9375 C18.19496655 15.17363354 17.46564056 15.76145315 13.9375 16.9375 C11.60450175 16.97704234 9.27041811 16.98151732 6.9375 16.9375 C6.6075 15.6175 6.2775 14.2975 5.9375 12.9375 C5.1640625 13.9584375 5.1640625 13.9584375 4.375 15 C1.9375 16.9375 1.9375 16.9375 -1.6875 16.875 C-5.0625 15.9375 -5.0625 15.9375 -7.0625 12.9375 C-7.746057 8.62155289 -7.76044112 5.06494335 -5.4375 1.3125 C-3.0625 -0.0625 -3.0625 -0.0625 0 0 Z " fill="#E8E8E8" transform="translate(234.0625,69.0625)"/>
<path d="M0 0 C3.63182532 1.12256419 4.64825659 1.79976202 6.4375 5.0625 C6.7675 3.4125 7.0975 1.7625 7.4375 0.0625 C9.0875 0.0625 10.7375 0.0625 12.4375 0.0625 C12.4375 5.6725 12.4375 11.2825 12.4375 17.0625 C10.7875 17.0625 9.1375 17.0625 7.4375 17.0625 C7.1075 15.7425 6.7775 14.4225 6.4375 13.0625 C5.715625 13.7225 4.99375 14.3825 4.25 15.0625 C1.4375 17.0625 1.4375 17.0625 -1.1875 17.5 C-4.05130402 16.97245715 -4.75533173 16.30018481 -6.5625 14.0625 C-7.94575991 9.6393815 -8.0728081 6.12564189 -6.0625 1.9375 C-3.5625 0.0625 -3.5625 0.0625 0 0 Z " fill="#F0F0F0" transform="translate(75.5625,68.9375)"/>
<path d="M0 0 C4.25581144 3.12927312 7.9199685 6.70277393 11 11 C11 11.66 11 12.32 11 13 C4.73 13 -1.54 13 -8 13 C-7.95875 15.2275 -7.9175 17.455 -7.875 19.75 C-7.73214286 27.46428571 -7.73214286 27.46428571 -10 31 C-11.20550294 29.78848458 -12.38892747 28.55497111 -13.5625 27.3125 C-14.22378906 26.62800781 -14.88507813 25.94351563 -15.56640625 25.23828125 C-17 23 -17 23 -17.078125 20.63671875 C-15.53017237 16.85096503 -13.02830331 14.39111269 -10.1875 11.5 C-9.11698034 10.38686617 -8.04794259 9.27230506 -6.98046875 8.15625 C-6.21742432 7.36154297 -6.21742432 7.36154297 -5.43896484 6.55078125 C-3.5013782 4.46263222 -1.73789588 2.25547746 0 0 Z " fill="#42A2CE" transform="translate(177,79)"/>
<path d="M0 0 C1.423125 -0.061875 2.84625 -0.12375 4.3125 -0.1875 C5.51326172 -0.23970703 5.51326172 -0.23970703 6.73828125 -0.29296875 C9 0 9 0 10.76953125 1.265625 C12.87754055 4.2369143 12.4792951 7.54768601 12 11 C11.0625 13.5 11.0625 13.5 9 15 C5.92076209 15.3275785 3.11411312 15.1805283 0 15 C0 10.05 0 5.1 0 0 Z " fill="#030303" transform="translate(242,70)"/>
<path d="M0 0 C1.98 1.65 3.96 3.3 6 5 C5.78515625 7.32421875 5.78515625 7.32421875 5 10 C2.93359375 11.58203125 2.93359375 11.58203125 0.4375 12.8125 C-0.80193359 13.44091797 -0.80193359 13.44091797 -2.06640625 14.08203125 C-2.70449219 14.38496094 -3.34257812 14.68789063 -4 15 C-5.32 13.68 -6.64 12.36 -8 11 C-7.34 9.35 -6.68 7.7 -6 6 C-5.34 6 -4.68 6 -4 6 C-4 5.01 -4 4.02 -4 3 C-2 1.3125 -2 1.3125 0 0 Z " fill="#B4D37D" transform="translate(185,44)"/>
<path d="M0 0 C3.375 0.9375 3.375 0.9375 5.375 2.9375 C5.375 3.9275 5.375 4.9175 5.375 5.9375 C4.385 5.9375 3.395 5.9375 2.375 5.9375 C2.045 5.2775 1.715 4.6175 1.375 3.9375 C0.055 3.9375 -1.265 3.9375 -2.625 3.9375 C-2.625 6.9075 -2.625 9.8775 -2.625 12.9375 C-1.305 12.9375 0.015 12.9375 1.375 12.9375 C1.705 12.2775 2.035 11.6175 2.375 10.9375 C3.365 10.9375 4.355 10.9375 5.375 10.9375 C5.0625 12.8125 5.0625 12.8125 4.375 14.9375 C1.14246204 17.09252531 0.12349077 17.40606135 -3.625 16.9375 C-6.40067992 14.77260539 -7.1321651 13.01696921 -7.5625 9.5625 C-7.82378829 6.16019285 -7.65442777 4.99880786 -6.125 1.8125 C-3.625 -0.0625 -3.625 -0.0625 0 0 Z " fill="#1A1A1A" transform="translate(75.625,69.0625)"/>
<path d="M0 0 C3.78630702 0.75567052 5.4041044 2.12597273 8 5 C7.34 6.65 6.68 8.3 6 10 C5.01 10 4.02 10 3 10 C2.67 11.32 2.34 12.64 2 14 C0.68 14.33 -0.64 14.66 -2 15 C-1.34 14.01 -0.68 13.02 0 12 C-1.32 12.33 -2.64 12.66 -4 13 C-4 9.12049035 -3.59216239 7.63334507 -2 4.25 C-1.62875 3.45078125 -1.2575 2.6515625 -0.875 1.828125 C-0.58625 1.22484375 -0.2975 0.6215625 0 0 Z " fill="#A1C95E" transform="translate(172,54)"/>
<path d="M0 0 C2.875 0.875 2.875 0.875 4.875 2.875 C4.875 3.865 4.875 4.855 4.875 5.875 C3.885 5.875 2.895 5.875 1.875 5.875 C1.545 5.215 1.215 4.555 0.875 3.875 C-0.445 3.875 -1.765 3.875 -3.125 3.875 C-3.125 6.845 -3.125 9.815 -3.125 12.875 C-1.805 12.875 -0.485 12.875 0.875 12.875 C1.205 12.215 1.535 11.555 1.875 10.875 C3.195 10.875 4.515 10.875 5.875 10.875 C4.72326645 13.34300047 3.82716435 14.92283565 1.875 16.875 C-1.625 16.6875 -1.625 16.6875 -5.125 15.875 C-7.80634316 11.85298526 -7.80594539 8.59905864 -7.125 3.875 C-4.96786348 0.39039486 -4.11135677 -0.16445427 0 0 Z " fill="#151515" transform="translate(234.125,69.125)"/>
<path d="M0 0 C5 1 5 1 6 2 C6.1875 5.4375 6.1875 5.4375 6 9 C5.34 9.66 4.68 10.32 4 11 C2.68 11 1.36 11 0 11 C0 7.37 0 3.74 0 0 Z " fill="#EEEEEE" transform="translate(245,72)"/>
<path d="M0 0 C2.3125 0.9375 2.3125 0.9375 3.625 3 C3.9653125 3.9590625 3.9653125 3.9590625 4.3125 4.9375 C3.6525 5.5975 2.9925 6.2575 2.3125 6.9375 C-0.3125 6.5625 -0.3125 6.5625 -2.6875 5.9375 C-2.6875 5.2775 -2.6875 4.6175 -2.6875 3.9375 C-3.6775 3.9375 -4.6675 3.9375 -5.6875 3.9375 C-5.0275 5.9175 -4.3675 7.8975 -3.6875 9.9375 C-4.3475 9.9375 -5.0075 9.9375 -5.6875 9.9375 C-7.1481285 7.29011084 -7.6875 6.04301666 -7.6875 2.9375 C-5.01589818 0.80021855 -3.45043794 -0.08024274 0 0 Z " fill="#BEC8DB" transform="translate(271.6875,127.0625)"/>
<path d="M0 0 C1.98 1.65 3.96 3.3 6 5 C5.67 6.65 5.34 8.3 5 10 C4.34 9.67 3.68 9.34 3 9 C3 8.67 3 8.34 3 8 C1.35 7.67 -0.3 7.34 -2 7 C-2.6875 5.1875 -2.6875 5.1875 -3 3 C-1.5625 1.25 -1.5625 1.25 0 0 Z " fill="#DBEAC1" transform="translate(185,44)"/>
<path d="M0 0 C0.99 0 1.98 0 3 0 C3 5.28 3 10.56 3 16 C2.01 16 1.02 16 0 16 C0 10.72 0 5.44 0 0 Z " fill="#060606" transform="translate(84,69)"/>
<path d="M0 0 C0.33 0.66 0.66 1.32 1 2 C1.99 2.33 2.98 2.66 4 3 C4 3.66 4 4.32 4 5 C4.99 5.33 5.98 5.66 7 6 C5.71937515 7.7074998 4.38232443 9.37373596 3 11 C2.34 11 1.68 11 1 11 C1 10.34 1 9.68 1 9 C0.34 9 -0.32 9 -1 9 C0 7 1 5 2 3 C0.02 3.99 -1.96 4.98 -4 6 C-2.84826645 3.53199953 -1.95216435 1.95216435 0 0 Z " fill="#F0F6F9" transform="translate(194,115)"/>
<path d="M0 0 C1.5 1.375 1.5 1.375 3 3 C3 3.66 3 4.32 3 5 C3.99 5.33 4.98 5.66 6 6 C5.60196439 8.88575819 5.20990931 9.82189513 2.9375 11.75 C1.9784375 12.36875 1.9784375 12.36875 1 13 C1 12.01 1 11.02 1 10 C1.66 9.67 2.32 9.34 3 9 C3.33 8.01 3.66 7.02 4 6 C3.38125 6.495 2.7625 6.99 2.125 7.5 C0 9 0 9 -2 9 C-2 8.34 -2 7.68 -2 7 C-1.34 6.67 -0.68 6.34 0 6 C0.33 5.01 0.66 4.02 1 3 C0.38125 3.495 -0.2375 3.99 -0.875 4.5 C-3 6 -3 6 -5 6 C-3.86695008 2.60085025 -2.87481525 1.94745549 0 0 Z " fill="#E8F2F7" transform="translate(181,100)"/>
<path d="M0 0 C0 1.65 0 3.3 0 5 C-4.455 5.495 -4.455 5.495 -9 6 C-9.33 4.35 -9.66 2.7 -10 1 C-6.59437148 0.22157062 -3.49234244 -0.09978121 0 0 Z " fill="#B4A2C6" transform="translate(22,82)"/>
<path d="M0 0 C1.2065625 0.0309375 1.2065625 0.0309375 2.4375 0.0625 C3.0625 2.4375 3.0625 2.4375 3.4375 5.0625 C2.7775 5.7225 2.1175 6.3825 1.4375 7.0625 C-0.6875 6.6875 -0.6875 6.6875 -2.5625 6.0625 C-2.94468767 4.40635343 -3.27645102 2.73792976 -3.5625 1.0625 C-2.5625 0.0625 -2.5625 0.0625 0 0 Z " fill="#B2D8EB" transform="translate(205.5625,126.9375)"/>
<path d="M0 0 C2.125 0.375 2.125 0.375 4 1 C4.38218767 2.65614657 4.71395102 4.32457024 5 6 C4 7 4 7 1.4375 7.0625 C0.2309375 7.0315625 0.2309375 7.0315625 -1 7 C-1.625 4.625 -1.625 4.625 -2 2 C-1.34 1.34 -0.68 0.68 0 0 Z " fill="#B2D8EA" transform="translate(187,110)"/>
<path d="M0 0 C2.625 0.375 2.625 0.375 5 1 C5.625 2.875 5.625 2.875 6 5 C5.34 5.66 4.68 6.32 4 7 C2 6.875 2 6.875 0 6 C-1.25 3.9375 -1.25 3.9375 -2 2 C-1.34 1.34 -0.68 0.68 0 0 Z " fill="#D0E3AF" transform="translate(145,89)"/>
<path d="M0 0 C0.66 0 1.32 0 2 0 C2 2.97 2 5.94 2 9 C0.68 9.33 -0.64 9.66 -2 10 C-2.66 9.34 -3.32 8.68 -4 8 C-3.625 5.375 -3.625 5.375 -3 3 C-2.01 3 -1.02 3 0 3 C0 2.01 0 1.02 0 0 Z " fill="#C5B5D3" transform="translate(77,14)"/>
<path d="M0 0 C2.125 0.375 2.125 0.375 4 1 C4.38218767 2.65614657 4.71395102 4.32457024 5 6 C4 7 4 7 1.4375 7.0625 C0.2309375 7.0315625 0.2309375 7.0315625 -1 7 C-1.625 4.625 -1.625 4.625 -2 2 C-1.34 1.34 -0.68 0.68 0 0 Z " fill="#A3B4CF" transform="translate(245,136)"/>
<path d="M0 0 C0.66 0 1.32 0 2 0 C2.66 1.65 3.32 3.3 4 5 C3.34 5.66 2.68 6.32 2 7 C-0.72869407 6.96712417 -3.2966618 6.43602229 -6 6 C-4 4 -2 2 0 0 Z " fill="#C2DFEE" transform="translate(132,45)"/>
<path d="M0 0 C1.32 0 2.64 0 4 0 C4 0.66 4 1.32 4 2 C5.32 1.67 6.64 1.34 8 1 C8 1.66 8 2.32 8 3 C4.04 4.98 4.04 4.98 0 7 C-0.66 6.34 -1.32 5.68 -2 5 C-1.46428571 1.46428571 -1.46428571 1.46428571 0 0 Z " fill="#B1BED5" transform="translate(290,45)"/>
<path d="M0 0 C1.67542976 0.28604898 3.34385343 0.61781233 5 1 C5 2.32 5 3.64 5 5 C2.36 5.66 -0.28 6.32 -3 7 C-1.125 1.125 -1.125 1.125 0 0 Z " fill="#C7B7D5" transform="translate(20,95)"/>
<path d="M0 0 C1.67542976 0.28604898 3.34385343 0.61781233 5 1 C5.5625 2.9375 5.5625 2.9375 6 5 C5 6 5 6 2.4375 6.0625 C1.2309375 6.0315625 1.2309375 6.0315625 0 6 C-0.38218767 4.34385343 -0.71395102 2.67542976 -1 1 C-0.67 0.67 -0.34 0.34 0 0 Z " fill="#D1E4B1" transform="translate(120,117)"/>
<path d="M0 0 C1.65 0 3.3 0 5 0 C5.625 1.875 5.625 1.875 6 4 C5.34 4.66 4.68 5.32 4 6 C1.375 5.625 1.375 5.625 -1 5 C-0.67 3.35 -0.34 1.7 0 0 Z " fill="#A6B4CF" transform="translate(298,67)"/>
<path d="M0 0 C0.38218767 1.65614657 0.71395102 3.32457024 1 5 C0 6 0 6 -2.5625 6.0625 C-3.7690625 6.0315625 -3.7690625 6.0315625 -5 6 C-5.33 4.35 -5.66 2.7 -6 1 C-3.92446352 0.4465236 -2.15634036 0 0 0 Z " fill="#B7A2C8" transform="translate(22,88)"/>
<path d="M0 0 C1.65 0.33 3.3 0.66 5 1 C4.01 2.485 4.01 2.485 3 4 C3.66 4.33 4.32 4.66 5 5 C5.33 4.34 5.66 3.68 6 3 C6 3.99 6 4.98 6 6 C3.625 6.625 3.625 6.625 1 7 C0.34 6.34 -0.32 5.68 -1 5 C-0.625 2.375 -0.625 2.375 0 0 Z " fill="#E3EED1" transform="translate(164,67)"/>
<path d="M0 0 C1.67542976 0.28604898 3.34385343 0.61781233 5 1 C5 2.65 5 4.3 5 6 C3.35 6 1.7 6 0 6 C-0.38218767 4.34385343 -0.71395102 2.67542976 -1 1 C-0.67 0.67 -0.34 0.34 0 0 Z " fill="#B8A4C9" transform="translate(67,18)"/>
<path d="M0 0 C0.66 0 1.32 0 2 0 C2 0.66 2 1.32 2 2 C2.99 2 3.98 2 5 2 C4.67 3.65 4.34 5.3 4 7 C3.01 7 2.02 7 1 7 C1 6.34 1 5.68 1 5 C0.01 4.67 -0.98 4.34 -2 4 C-1.34 2.68 -0.68 1.36 0 0 Z " fill="#DAE9C1" transform="translate(155,78)"/>
<path d="M0 0 C0.99 0.33 1.98 0.66 3 1 C2.6875 3.375 2.6875 3.375 2 6 C1.01 6.66 0.02 7.32 -1 8 C-1.66 7.34 -2.32 6.68 -3 6 C-3 4.68 -3 3.36 -3 2 C-2.01 2 -1.02 2 0 2 C0 1.34 0 0.68 0 0 Z " fill="#C7E2F0" transform="translate(138,53)"/>
<path d="M0 0 C1.65 0.33 3.3 0.66 5 1 C5 2.65 5 4.3 5 6 C3.125 6.625 3.125 6.625 1 7 C0.34 6.34 -0.32 5.68 -1 5 C-0.625 2.375 -0.625 2.375 0 0 Z " fill="#CFD7E5" transform="translate(232,15)"/>
<path d="M0 0 C2.88575819 0.39803561 3.82189513 0.79009069 5.75 3.0625 C6.1625 3.701875 6.575 4.34125 7 5 C5.02 5.99 5.02 5.99 3 7 C1.68 5.68 0.36 4.36 -1 3 C-0.67 2.01 -0.34 1.02 0 0 Z " fill="#BDD98E" transform="translate(178,52)"/>
<path d="M0 0 C1.67542976 0.28604898 3.34385343 0.61781233 5 1 C5 5 5 5 4 7 C2.68 6.67 1.36 6.34 0 6 C-0.38218767 4.34385343 -0.71395102 2.67542976 -1 1 C-0.67 0.67 -0.34 0.34 0 0 Z " fill="#CCD4E3" transform="translate(222,17)"/>
<path d="M0 0 C1.67542976 0.28604898 3.34385343 0.61781233 5 1 C4.67 1.99 4.34 2.98 4 4 C3.34 4 2.68 4 2 4 C2 4.66 2 5.32 2 6 C2.66 6.33 3.32 6.66 4 7 C2.68 7 1.36 7 0 7 C-0.38133299 5.0085944 -0.71325582 3.00720923 -1 1 C-0.67 0.67 -0.34 0.34 0 0 Z " fill="#CAD2E1" transform="translate(259,132)"/>
<path d="M0 0 C0.598125 0.350625 1.19625 0.70125 1.8125 1.0625 C1.4825 2.3825 1.1525 3.7025 0.8125 5.0625 C0.4825 4.0725 0.1525 3.0825 -0.1875 2.0625 C-0.8475 1.7325 -1.5075 1.4025 -2.1875 1.0625 C-1.8575 4.0325 -1.5275 7.0025 -1.1875 10.0625 C-1.8475 9.7325 -2.5075 9.4025 -3.1875 9.0625 C-3.8203125 6.99609375 -3.8203125 6.99609375 -4.3125 4.5 C-4.48007813 3.67371094 -4.64765625 2.84742188 -4.8203125 1.99609375 C-4.94148437 1.35800781 -5.06265625 0.71992188 -5.1875 0.0625 C-2.1875 -0.9375 -2.1875 -0.9375 0 0 Z " fill="#D7DDE8" transform="translate(255.1875,134.9375)"/>
<path d="M0 0 C2.125 0.375 2.125 0.375 4 1 C3.67 1.99 3.34 2.98 3 4 C2.34 4 1.68 4 1 4 C1 4.66 1 5.32 1 6 C2.32 5.34 3.64 4.68 5 4 C4.67 4.99 4.34 5.98 4 7 C2.35 6.67 0.7 6.34 -1 6 C-1.625 4.125 -1.625 4.125 -2 2 C-1.34 1.34 -0.68 0.68 0 0 Z " fill="#CFD5E4" transform="translate(280,120)"/>
<path d="M0 0 C1.67542976 0.28604898 3.34385343 0.61781233 5 1 C5 2.32 5 3.64 5 5 C3.35 5.33 1.7 5.66 0 6 C-0.38218767 4.34385343 -0.71395102 2.67542976 -1 1 C-0.67 0.67 -0.34 0.34 0 0 Z " fill="#B8C2D8" transform="translate(293,51)"/>
<path d="M0 0 C2.0625 0.4375 2.0625 0.4375 4 1 C4 2.65 4 4.3 4 6 C2.125 6.625 2.125 6.625 0 7 C-0.66 6.34 -1.32 5.68 -2 5 C-1.46428571 1.46428571 -1.46428571 1.46428571 0 0 Z " fill="#D2C7DC" transform="translate(82,17)"/>
<path d="M0 0 C1.32 0.33 2.64 0.66 4 1 C4 2.98 4 4.96 4 7 C3.01 6.67 2.02 6.34 1 6 C0.67 6.33 0.34 6.66 0 7 C-0.66 7 -1.32 7 -2 7 C-2 6.01 -2 5.02 -2 4 C-1.34 3.67 -0.68 3.34 0 3 C0 2.01 0 1.02 0 0 Z " fill="#D3DAE6" transform="translate(240,14)"/>
<path d="M0 0 C0.99 0 1.98 0 3 0 C3 0.66 3 1.32 3 2 C2.34 2 1.68 2 1 2 C1.99 2.99 2.98 3.98 4 5 C4 4.01 4 3.02 4 2 C4.66 2 5.32 2 6 2 C5.67 3.32 5.34 4.64 5 6 C3.125 6.625 3.125 6.625 1 7 C0.34 6.34 -0.32 5.68 -1 5 C-0.625 2.375 -0.625 2.375 0 0 Z " fill="#E2EED0" transform="translate(115,122)"/>
<path d="M0 0 C3.26954202 0.56371414 4.82575883 1.49962266 7 4 C6.38125 3.835 5.7625 3.67 5.125 3.5 C3.03936614 2.92365356 3.03936614 2.92365356 1 3 C1.99 4.32 2.98 5.64 4 7 C1 7 1 7 -0.6875 5.5 C-1.120625 5.005 -1.55375 4.51 -2 4 C-1.34 2.68 -0.68 1.36 0 0 Z " fill="#E9F1DB" transform="translate(135,100)"/>
<path d="M0 0 C0.38218767 1.65614657 0.71395102 3.32457024 1 5 C0 6 0 6 -2.5625 6.0625 C-3.7690625 6.0315625 -3.7690625 6.0315625 -5 6 C-4.67 5.34 -4.34 4.68 -4 4 C-3.34 4 -2.68 4 -2 4 C-1.67 3.34 -1.34 2.68 -1 2 C-3.31 2.66 -5.62 3.32 -8 4 C-8 3.34 -8 2.68 -8 2 C-5.09399739 0.74335022 -3.20395416 0 0 0 Z " fill="#DDE2EB" transform="translate(300,57)"/>
<path d="M0 0 C1.65 1.32 3.3 2.64 5 4 C4.34 5.32 3.68 6.64 3 8 C0.83125748 7.49396008 -0.99967627 7.00016187 -3 6 C-3 5.34 -3 4.68 -3 4 C-0.525 4.99 -0.525 4.99 2 6 C2.33 5.34 2.66 4.68 3 4 C1.68 3.34 0.36 2.68 -1 2 C-0.67 1.34 -0.34 0.68 0 0 Z " fill="#EDF4E1" transform="translate(151,82)"/>
<path d="M0 0 C1.32 0.66 2.64 1.32 4 2 C3.75 3.875 3.75 3.875 3 6 C0.9375 7.25 0.9375 7.25 -1 8 C0 6 1 4 2 2 C1.38125 2.495 0.7625 2.99 0.125 3.5 C-2 5 -2 5 -4 5 C-4 4.34 -4 3.68 -4 3 C-2 1.375 -2 1.375 0 0 Z " fill="#DEECF4" transform="translate(142,58)"/>
<path d="M0 0 C1.875 0.25 1.875 0.25 4 1 C5.3125 2.9375 5.3125 2.9375 6 5 C5.67 5.66 5.34 6.32 5 7 C0.25 6.125 0.25 6.125 -2 5 C-2 4.34 -2 3.68 -2 3 C0 4 2 5 4 6 C4 5.01 4 4.02 4 3 C2.68 2.34 1.36 1.68 0 1 C0 0.67 0 0.34 0 0 Z " fill="#EEF5E4" transform="translate(140,94)"/>
<path d="M0 0 C2.64 0 5.28 0 8 0 C6.68 0.33 5.36 0.66 4 1 C4 1.66 4 2.32 4 3 C5.65 2.67 7.3 2.34 9 2 C8.67 2.99 8.34 3.98 8 5 C6.35 5 4.7 5 3 5 C2.87625 4.360625 2.7525 3.72125 2.625 3.0625 C2.315625 2.0415625 2.315625 2.0415625 2 1 C1.34 0.67 0.68 0.34 0 0 Z " fill="#DFD8E6" transform="translate(13,76)"/>
<path d="M0 0 C2.0625 0.4375 2.0625 0.4375 4 1 C3.01 1.33 2.02 1.66 1 2 C1 2.99 1 3.98 1 5 C2.32 4.67 3.64 4.34 5 4 C4.67 4.99 4.34 5.98 4 7 C2.68 6.67 1.36 6.34 0 6 C-0.38218767 4.34385343 -0.71395102 2.67542976 -1 1 C-0.67 0.67 -0.34 0.34 0 0 Z " fill="#D3CADD" transform="translate(61,19)"/>
<path d="M0 0 C2.1875 0.3125 2.1875 0.3125 4 1 C2.71937515 2.7074998 1.38232443 4.37373596 0 6 C-0.66 6 -1.32 6 -2 6 C-2.33 5.01 -2.66 4.02 -3 3 C-1.75 1.4375 -1.75 1.4375 0 0 Z " fill="#A2D0E6" transform="translate(197,120)"/>
<path d="M0 0 C0.33 0.66 0.66 1.32 1 2 C0.01 2.495 0.01 2.495 -1 3 C-0.34 3.33 0.32 3.66 1 4 C0.67 4.66 0.34 5.32 0 6 C-2.64 5.01 -5.28 4.02 -8 3 C-8 2.34 -8 1.68 -8 1 C-7.34 1 -6.68 1 -6 1 C-6 1.66 -6 2.32 -6 3 C-4.02 2.01 -2.04 1.02 0 0 Z " fill="#DBDFEA" transform="translate(303,73)"/>
<path d="M0 0 C0.33 0.66 0.66 1.32 1 2 C2.65 1.67 4.3 1.34 6 1 C6 2.32 6 3.64 6 5 C4.68 5.33 3.36 5.66 2 6 C2.66 5.01 3.32 4.02 4 3 C2.68 3.33 1.36 3.66 0 4 C0 2.68 0 1.36 0 0 Z " fill="#E9F2DB" transform="translate(168,63)"/>
<path d="M0 0 C1.32 0.33 2.64 0.66 4 1 C3.01 2.175625 3.01 2.175625 2 3.375 C-0.20201441 5.71512812 -0.20201441 5.71512812 0 8 C-0.99 7.67 -1.98 7.34 -3 7 C-2.690625 6.401875 -2.38125 5.80375 -2.0625 5.1875 C-0.89790296 2.91043228 -0.89790296 2.91043228 0 0 Z " fill="#DDECF5" transform="translate(201,122)"/>
<path d="M0 0 C1.32 0 2.64 0 4 0 C4.33 0.99 4.66 1.98 5 3 C5.99 3.33 6.98 3.66 8 4 C8 4.66 8 5.32 8 6 C4.65750371 5.40312566 2.53563658 4.26396123 0 2 C0 1.34 0 0.68 0 0 Z " fill="#EDF4E2" transform="translate(158,71)"/>
<path d="M0 0 C0.99 0.33 1.98 0.66 3 1 C3.6875 3.0625 3.6875 3.0625 4 5 C2.68 5.33 1.36 5.66 0 6 C0 4.02 0 2.04 0 0 Z " fill="#6481AF" transform="translate(253,136)"/>
<path d="M0 0 C0 2.64 0 5.28 0 8 C-0.66 8 -1.32 8 -2 8 C-2.66 5.69 -3.32 3.38 -4 1 C-2 0 -2 0 0 0 Z " fill="#CDD3E1" transform="translate(220,18)"/>
<path d="M0 0 C3 1 3 1 4.0625 2.9375 C4.371875 3.618125 4.68125 4.29875 5 5 C5.66 5.66 6.32 6.32 7 7 C5.0625 6.6875 5.0625 6.6875 3 6 C2.67 5.01 2.34 4.02 2 3 C1.34 3 0.68 3 0 3 C0 2.01 0 1.02 0 0 Z " fill="#E6E9F0" transform="translate(273,123)"/>
<path d="M0 0 C0.66 0.66 1.32 1.32 2 2 C1.67 2.99 1.34 3.98 1 5 C1 4.34 1 3.68 1 3 C0.38125 3.495 -0.2375 3.99 -0.875 4.5 C-3 6 -3 6 -5 6 C-3.86695008 2.60085025 -2.87481525 1.94745549 0 0 Z " fill="#DCECF5" transform="translate(181,100)"/>
<path d="M0 0 C3.68802044 1.22934015 4.72356973 2.93859378 7 6 C4.61435923 5.42415568 2.33317216 4.77772405 0 4 C-0.33 3.01 -0.66 2.02 -1 1 C-0.67 0.67 -0.34 0.34 0 0 Z " fill="#F0F6E6" transform="translate(171,57)"/>
<path d="M0 0 C2.88437779 1.29299694 4.87219421 2.65941363 7 5 C6.67 5.66 6.34 6.32 6 7 C3.95880212 5.38405168 1.95927063 3.7143618 0 2 C0 1.34 0 0.68 0 0 Z " fill="#DFECCA" transform="translate(173,54)"/>
</svg>
