<?xml version="1.0" standalone="no"?>
<!DOCTYPE svg PUBLIC "-//W3C//DTD SVG 20010904//EN"
 "http://www.w3.org/TR/2001/REC-SVG-20010904/DTD/svg10.dtd">
<svg version="1.0" xmlns="http://www.w3.org/2000/svg"
 width="272.000000pt" height="272.000000pt" viewBox="0 0 272.000000 272.000000"
 preserveAspectRatio="xMidYMid meet">
<metadata>
Created by potrace 1.16, written by Peter Selinger 2001-2019
</metadata>
<g transform="translate(0.000000,272.000000) scale(0.100000,-0.100000)"
fill="#000000" stroke="none">
<path d="M600 2094 c0 -14 36 -173 81 -352 44 -180 116 -473 160 -652 44 -179
86 -350 94 -380 7 -30 19 -74 25 -97 7 -30 16 -43 28 -43 23 0 1136 1073 1140
1099 3 17 -9 24 -80 45 -117 35 -304 89 -433 126 -60 17 -162 47 -225 65 -63
18 -164 48 -225 65 -213 62 -351 102 -431 126 -109 32 -134 32 -134 -2z m200
-70 c69 -20 131 -37 139 -37 8 0 -37 -50 -99 -110 l-113 -111 -23 85 c-13 46
-27 107 -33 134 -5 28 -13 58 -16 68 -5 12 -3 16 6 12 8 -2 70 -21 139 -41z
m424 -121 l99 -28 -109 -102 c-60 -56 -110 -101 -111 -99 -5 5 -44 146 -53
196 -5 25 -12 55 -16 67 -6 23 -6 23 42 8 27 -8 93 -27 148 -42z m-205 -112
c17 -68 29 -126 27 -128 -4 -4 -90 18 -233 59 -24 7 -43 15 -43 19 0 4 46 50
101 104 74 71 104 94 109 84 5 -8 22 -70 39 -138z m490 30 c53 -15 116 -34
140 -41 l45 -12 -110 -103 c-65 -61 -112 -98 -115 -91 -4 6 -19 63 -33 126
-15 63 -29 123 -32 133 -7 22 -8 22 105 -12z m-122 -128 c18 -75 31 -138 29
-140 -2 -3 -49 9 -104 26 -54 17 -104 31 -110 31 -6 0 -23 5 -38 10 l-28 11
104 104 c57 57 106 102 109 100 2 -3 20 -67 38 -142z m445 33 c29 -7 93 -26
142 -41 l89 -27 -109 -109 -109 -109 -31 127 c-17 71 -34 138 -38 151 -9 26
-11 26 56 8z m-72 -141 c19 -80 33 -145 31 -145 -3 0 -34 9 -70 20 -36 11
-100 29 -141 41 l-75 21 105 104 c58 57 107 104 110 104 3 0 21 -65 40 -145z
m-959 91 c24 -8 88 -27 143 -42 l98 -29 -113 -107 -114 -106 -17 76 c-9 43
-25 110 -36 150 -12 39 -17 72 -13 72 4 0 27 -6 52 -14z m416 -120 c43 -13
101 -29 128 -36 28 -7 53 -16 57 -19 5 -4 -41 -52 -100 -108 l-109 -101 -33
131 c-18 73 -35 138 -37 145 -7 17 5 15 94 -12z m-106 -134 l35 -148 -86 23
c-47 12 -105 29 -129 38 -24 8 -53 15 -65 15 -16 0 4 26 89 110 61 60 112 109
115 110 3 0 21 -67 41 -148z m520 13 c63 -19 122 -35 132 -35 9 0 17 -3 17 -7
0 -4 -48 -56 -107 -115 l-106 -107 -29 112 c-47 184 -47 187 -33 187 7 0 64
-16 126 -35z m-181 16 c0 -5 15 -72 33 -149 l34 -139 -76 23 c-42 13 -103 31
-136 39 -33 9 -65 18 -72 20 -11 4 194 215 210 215 4 0 7 -4 7 -9z m-530 -165
c30 -9 90 -26 134 -39 l78 -23 -110 -102 -111 -103 -11 43 c-6 24 -15 57 -20
73 -6 17 -14 53 -20 80 -5 28 -13 61 -16 74 -6 19 -4 23 7 19 8 -3 39 -13 69
-22z m410 -118 c47 -14 105 -31 130 -37 l45 -12 -104 -104 c-58 -57 -108 -102
-112 -99 -7 4 -69 252 -69 275 0 6 6 9 13 6 6 -2 50 -16 97 -29z m-128 -120
c20 -79 35 -144 34 -146 -2 -1 -47 12 -102 28 -54 17 -119 35 -145 41 l-45 10
105 104 c59 58 108 105 111 105 3 0 22 -64 42 -142z m-221 -123 c24 -9 86 -27
138 -41 52 -14 98 -27 101 -29 4 -3 -43 -54 -103 -114 l-111 -110 -38 147
c-38 151 -41 162 -34 162 2 0 23 -7 47 -15z"/>
</g>
</svg>
