<?xml version="1.0" standalone="no"?>
<!DOCTYPE svg PUBLIC "-//W3C//DTD SVG 20010904//EN"
 "http://www.w3.org/TR/2001/REC-SVG-20010904/DTD/svg10.dtd">
<svg version="1.0" xmlns="http://www.w3.org/2000/svg"
 width="600.000000pt" height="315.000000pt" viewBox="0 0 600.000000 315.000000"
 preserveAspectRatio="xMidYMid meet">
<metadata>
Created by potrace 1.16, written by Peter Selinger 2001-2019
</metadata>
<g transform="translate(0.000000,315.000000) scale(0.100000,-0.100000)"
fill="#000000" stroke="none">
<path d="M1430 1575 l0 -1575 1575 0 1575 0 0 1575 0 1575 -1575 0 -1575 0 0
-1575z m2007 727 l52 -47 -89 -105 c-49 -58 -87 -107 -84 -109 3 -3 217 110
331 176 l42 25 33 -66 c20 -41 29 -69 23 -75 -6 -5 -169 -95 -362 -201 l-353
-192 -182 -219 c-101 -121 -184 -224 -186 -229 -2 -4 225 124 505 287 358 208
519 307 545 335 l37 40 55 -44 c37 -29 53 -48 49 -58 -3 -8 -5 -22 -5 -30 0
-8 -13 -24 -29 -35 -27 -19 -372 -446 -365 -453 2 -1 72 38 155 89 84 50 153
89 155 88 1 -2 15 -26 30 -54 16 -27 41 -61 56 -75 l28 -25 -139 -220 c-75
-121 -142 -226 -146 -234 -7 -12 -21 -6 -71 28 l-62 42 52 82 c28 45 65 105
83 132 47 75 49 79 39 73 -5 -3 -111 -66 -235 -142 -124 -75 -229 -136 -232
-136 -14 0 -78 130 -71 142 5 7 82 107 172 221 91 114 163 209 161 211 -5 4
-1058 -612 -1083 -633 -14 -12 -22 -8 -65 30 -27 24 -49 47 -50 52 -1 4 95
123 213 264 118 142 213 259 212 261 -2 2 -91 -44 -197 -102 -106 -59 -194
-106 -195 -106 -1 0 -7 14 -14 30 -7 17 -26 41 -41 55 -16 13 -29 27 -29 32 0
4 76 107 169 228 93 121 167 222 165 223 -1 2 -86 -40 -188 -93 l-185 -96 -36
70 -35 70 171 226 c94 124 176 225 182 225 7 0 34 -20 61 -43 l49 -43 -77
-102 c-42 -56 -74 -102 -70 -102 4 0 137 68 296 150 159 83 293 148 296 146
11 -6 66 -125 61 -130 -2 -2 -49 -26 -104 -54 l-100 -52 -163 -215 c-89 -118
-160 -215 -157 -215 3 0 98 51 211 113 l207 112 219 263 c121 144 223 262 226
262 4 -1 30 -22 59 -48z"/>
</g>
</svg>
